  0
SECTION
  2
HEADER
  9
$ACADVER
  1
AC1009
  9
$FILLMODE
 70
 0
  9
$SPLFRAME
 70
 1
  9
$EXTMIN
 10
0
 20
0
 30
0.0
  9
$EXTMAX
 10
41.6667
 20
41.6667
 30
0.0
  0
ENDSEC
  0
SECTION
  2
TABLES
  0
TABLE
  2
LAYER
 70
1
  0
LAYER
  2
0
 70
     0
 62
     7
  6
CONTINUOUS
  0
ENDTAB
  0
ENDSEC
  0
SECTION
  2
ENTITIES
  0
POLYLINE
  8
0
 62
     1
 66
     1
 10
0
 20
0
 30
0.0
 70
     1
 40
0.072
 41
0.072
  0
VERTEX
  8
0
 10
0.103136
 20
12.7623
 30
0.0
 40
0.001
 41
0.001
  0
VERTEX
  8
0
 10
13.1091
 20
12.7623
 30
0.0
 40
0.001
 41
0.001
  0
VERTEX
  8
0
 10
13.1091
 20
6.75635
 30
0.0
 40
0.001
 41
0.001
  0
VERTEX
  8
0
 10
0.103136
 20
6.75635
 30
0.0
 40
0.001
 41
0.001
  0
VERTEX
  8
0
 10
0.103136
 20
12.7623
 30
0.0
 40
0.001
 41
0.001
  0
SEQEND
 8
0
  0
POLYLINE
  8
0
 62
     1
 66
     1
 10
0
 20
0
 30
0.0
 70
     1
 40
0.072
 41
0.072
  0
VERTEX
  8
0
 10
13.6198
 20
6.79699
 30
0.0
 40
0.001
 41
0.001
  0
VERTEX
  8
0
 10
13.6241
 20
6.79699
 30
0.0
 40
0.001
 41
0.001
  0
VERTEX
  8
0
 10
13.6373
 20
6.79346
 30
0.0
 40
0.001
 41
0.001
  0
VERTEX
  8
0
 10
13.6516
 20
6.78381
 30
0.0
 40
0.001
 41
0.001
  0
VERTEX
  8
0
 10
13.6612
 20
6.76947
 30
0.0
 40
0.001
 41
0.001
  0
VERTEX
  8
0
 10
13.6648
 20
6.75635
 30
0.0
 40
0.001
 41
0.001
  0
VERTEX
  8
0
 10
13.6648
 20
6.75196
 30
0.0
 40
0.001
 41
0.001
  0
VERTEX
  8
0
 10
13.6648
 20
6.74761
 30
0.0
 40
0.001
 41
0.001
  0
VERTEX
  8
0
 10
13.6612
 20
6.73449
 30
0.0
 40
0.001
 41
0.001
  0
VERTEX
  8
0
 10
13.6516
 20
6.72017
 30
0.0
 40
0.001
 41
0.001
  0
VERTEX
  8
0
 10
13.6373
 20
6.71056
 30
0.0
 40
0.001
 41
0.001
  0
VERTEX
  8
0
 10
13.6241
 20
6.70697
 30
0.0
 40
0.001
 41
0.001
  0
VERTEX
  8
0
 10
13.6198
 20
6.70697
 30
0.0
 40
0.001
 41
0.001
  0
VERTEX
  8
0
 10
13.6154
 20
6.70697
 30
0.0
 40
0.001
 41
0.001
  0
VERTEX
  8
0
 10
13.6023
 20
6.71056
 30
0.0
 40
0.001
 41
0.001
  0
VERTEX
  8
0
 10
13.5879
 20
6.72017
 30
0.0
 40
0.001
 41
0.001
  0
VERTEX
  8
0
 10
13.5783
 20
6.73449
 30
0.0
 40
0.001
 41
0.001
  0
VERTEX
  8
0
 10
13.5748
 20
6.74761
 30
0.0
 40
0.001
 41
0.001
  0
VERTEX
  8
0
 10
13.5748
 20
6.75196
 30
0.0
 40
0.001
 41
0.001
  0
VERTEX
  8
0
 10
13.5748
 20
6.75635
 30
0.0
 40
0.001
 41
0.001
  0
VERTEX
  8
0
 10
13.5783
 20
6.76947
 30
0.0
 40
0.001
 41
0.001
  0
VERTEX
  8
0
 10
13.5879
 20
6.78381
 30
0.0
 40
0.001
 41
0.001
  0
VERTEX
  8
0
 10
13.6023
 20
6.79346
 30
0.0
 40
0.001
 41
0.001
  0
VERTEX
  8
0
 10
13.6154
 20
6.79699
 30
0.0
 40
0.001
 41
0.001
  0
VERTEX
  8
0
 10
13.6198
 20
6.79699
 30
0.0
 40
0.001
 41
0.001
  0
SEQEND
 8
0
  0
POLYLINE
  8
0
 62
     1
 66
     1
 10
0
 20
0
 30
0.0
 70
     1
 40
0.072
 41
0.072
  0
VERTEX
  8
0
 10
15.4475
 20
6.7469
 30
0.0
 40
0.001
 41
0.001
  0
VERTEX
  8
0
 10
15.4519
 20
6.7469
 30
0.0
 40
0.001
 41
0.001
  0
VERTEX
  8
0
 10
15.465
 20
6.74343
 30
0.0
 40
0.001
 41
0.001
  0
VERTEX
  8
0
 10
15.4793
 20
6.73378
 30
0.0
 40
0.001
 41
0.001
  0
VERTEX
  8
0
 10
15.489
 20
6.71951
 30
0.0
 40
0.001
 41
0.001
  0
VERTEX
  8
0
 10
15.4925
 20
6.70638
 30
0.0
 40
0.001
 41
0.001
  0
VERTEX
  8
0
 10
15.4925
 20
6.70199
 30
0.0
 40
0.001
 41
0.001
  0
VERTEX
  8
0
 10
15.4925
 20
6.69764
 30
0.0
 40
0.001
 41
0.001
  0
VERTEX
  8
0
 10
15.489
 20
6.68446
 30
0.0
 40
0.001
 41
0.001
  0
VERTEX
  8
0
 10
15.4793
 20
6.67014
 30
0.0
 40
0.001
 41
0.001
  0
VERTEX
  8
0
 10
15.465
 20
6.66054
 30
0.0
 40
0.001
 41
0.001
  0
VERTEX
  8
0
 10
15.4519
 20
6.65696
 30
0.0
 40
0.001
 41
0.001
  0
VERTEX
  8
0
 10
15.4475
 20
6.65696
 30
0.0
 40
0.001
 41
0.001
  0
VERTEX
  8
0
 10
15.4432
 20
6.65696
 30
0.0
 40
0.001
 41
0.001
  0
VERTEX
  8
0
 10
15.43
 20
6.66054
 30
0.0
 40
0.001
 41
0.001
  0
VERTEX
  8
0
 10
15.4157
 20
6.67014
 30
0.0
 40
0.001
 41
0.001
  0
VERTEX
  8
0
 10
15.4061
 20
6.68446
 30
0.0
 40
0.001
 41
0.001
  0
VERTEX
  8
0
 10
15.4025
 20
6.69764
 30
0.0
 40
0.001
 41
0.001
  0
VERTEX
  8
0
 10
15.4025
 20
6.70199
 30
0.0
 40
0.001
 41
0.001
  0
VERTEX
  8
0
 10
15.4025
 20
6.70638
 30
0.0
 40
0.001
 41
0.001
  0
VERTEX
  8
0
 10
15.4061
 20
6.71951
 30
0.0
 40
0.001
 41
0.001
  0
VERTEX
  8
0
 10
15.4157
 20
6.73378
 30
0.0
 40
0.001
 41
0.001
  0
VERTEX
  8
0
 10
15.43
 20
6.74343
 30
0.0
 40
0.001
 41
0.001
  0
VERTEX
  8
0
 10
15.4432
 20
6.7469
 30
0.0
 40
0.001
 41
0.001
  0
VERTEX
  8
0
 10
15.4475
 20
6.7469
 30
0.0
 40
0.001
 41
0.001
  0
SEQEND
 8
0
  0
POLYLINE
  8
0
 62
     1
 66
     1
 10
0
 20
0
 30
0.0
 70
     1
 40
0.072
 41
0.072
  0
VERTEX
  8
0
 10
15.3197
 20
8.79699
 30
0.0
 40
0.001
 41
0.001
  0
VERTEX
  8
0
 10
15.3242
 20
8.79699
 30
0.0
 40
0.001
 41
0.001
  0
VERTEX
  8
0
 10
15.3372
 20
8.79346
 30
0.0
 40
0.001
 41
0.001
  0
VERTEX
  8
0
 10
15.3515
 20
8.78381
 30
0.0
 40
0.001
 41
0.001
  0
VERTEX
  8
0
 10
15.3611
 20
8.76947
 30
0.0
 40
0.001
 41
0.001
  0
VERTEX
  8
0
 10
15.3647
 20
8.75635
 30
0.0
 40
0.001
 41
0.001
  0
VERTEX
  8
0
 10
15.3647
 20
8.75196
 30
0.0
 40
0.001
 41
0.001
  0
VERTEX
  8
0
 10
15.3647
 20
8.74761
 30
0.0
 40
0.001
 41
0.001
  0
VERTEX
  8
0
 10
15.3611
 20
8.73449
 30
0.0
 40
0.001
 41
0.001
  0
VERTEX
  8
0
 10
15.3515
 20
8.72017
 30
0.0
 40
0.001
 41
0.001
  0
VERTEX
  8
0
 10
15.3372
 20
8.71056
 30
0.0
 40
0.001
 41
0.001
  0
VERTEX
  8
0
 10
15.3242
 20
8.70697
 30
0.0
 40
0.001
 41
0.001
  0
VERTEX
  8
0
 10
15.3197
 20
8.70697
 30
0.0
 40
0.001
 41
0.001
  0
VERTEX
  8
0
 10
15.3154
 20
8.70697
 30
0.0
 40
0.001
 41
0.001
  0
VERTEX
  8
0
 10
15.3022
 20
8.71056
 30
0.0
 40
0.001
 41
0.001
  0
VERTEX
  8
0
 10
15.2879
 20
8.72017
 30
0.0
 40
0.001
 41
0.001
  0
VERTEX
  8
0
 10
15.2783
 20
8.73449
 30
0.0
 40
0.001
 41
0.001
  0
VERTEX
  8
0
 10
15.2749
 20
8.74761
 30
0.0
 40
0.001
 41
0.001
  0
VERTEX
  8
0
 10
15.2749
 20
8.75196
 30
0.0
 40
0.001
 41
0.001
  0
VERTEX
  8
0
 10
15.2749
 20
8.75635
 30
0.0
 40
0.001
 41
0.001
  0
VERTEX
  8
0
 10
15.2783
 20
8.76947
 30
0.0
 40
0.001
 41
0.001
  0
VERTEX
  8
0
 10
15.2879
 20
8.78381
 30
0.0
 40
0.001
 41
0.001
  0
VERTEX
  8
0
 10
15.3022
 20
8.79346
 30
0.0
 40
0.001
 41
0.001
  0
VERTEX
  8
0
 10
15.3154
 20
8.79699
 30
0.0
 40
0.001
 41
0.001
  0
VERTEX
  8
0
 10
15.3197
 20
8.79699
 30
0.0
 40
0.001
 41
0.001
  0
SEQEND
 8
0
  0
POLYLINE
  8
0
 62
     1
 66
     1
 10
0
 20
0
 30
0.0
 70
     1
 40
0.072
 41
0.072
  0
VERTEX
  8
0
 10
14.2197
 20
8.79699
 30
0.0
 40
0.001
 41
0.001
  0
VERTEX
  8
0
 10
14.2242
 20
8.79699
 30
0.0
 40
0.001
 41
0.001
  0
VERTEX
  8
0
 10
14.2372
 20
8.79346
 30
0.0
 40
0.001
 41
0.001
  0
VERTEX
  8
0
 10
14.2515
 20
8.78381
 30
0.0
 40
0.001
 41
0.001
  0
VERTEX
  8
0
 10
14.2611
 20
8.76947
 30
0.0
 40
0.001
 41
0.001
  0
VERTEX
  8
0
 10
14.2647
 20
8.75635
 30
0.0
 40
0.001
 41
0.001
  0
VERTEX
  8
0
 10
14.2647
 20
8.75196
 30
0.0
 40
0.001
 41
0.001
  0
VERTEX
  8
0
 10
14.2647
 20
8.74761
 30
0.0
 40
0.001
 41
0.001
  0
VERTEX
  8
0
 10
14.2611
 20
8.73449
 30
0.0
 40
0.001
 41
0.001
  0
VERTEX
  8
0
 10
14.2515
 20
8.72017
 30
0.0
 40
0.001
 41
0.001
  0
VERTEX
  8
0
 10
14.2372
 20
8.71056
 30
0.0
 40
0.001
 41
0.001
  0
VERTEX
  8
0
 10
14.2242
 20
8.70697
 30
0.0
 40
0.001
 41
0.001
  0
VERTEX
  8
0
 10
14.2197
 20
8.70697
 30
0.0
 40
0.001
 41
0.001
  0
VERTEX
  8
0
 10
14.2154
 20
8.70697
 30
0.0
 40
0.001
 41
0.001
  0
VERTEX
  8
0
 10
14.2022
 20
8.71056
 30
0.0
 40
0.001
 41
0.001
  0
VERTEX
  8
0
 10
14.1879
 20
8.72017
 30
0.0
 40
0.001
 41
0.001
  0
VERTEX
  8
0
 10
14.1783
 20
8.73449
 30
0.0
 40
0.001
 41
0.001
  0
VERTEX
  8
0
 10
14.1747
 20
8.74761
 30
0.0
 40
0.001
 41
0.001
  0
VERTEX
  8
0
 10
14.1747
 20
8.75196
 30
0.0
 40
0.001
 41
0.001
  0
VERTEX
  8
0
 10
14.1747
 20
8.75635
 30
0.0
 40
0.001
 41
0.001
  0
VERTEX
  8
0
 10
14.1783
 20
8.76947
 30
0.0
 40
0.001
 41
0.001
  0
VERTEX
  8
0
 10
14.1879
 20
8.78381
 30
0.0
 40
0.001
 41
0.001
  0
VERTEX
  8
0
 10
14.2022
 20
8.79346
 30
0.0
 40
0.001
 41
0.001
  0
VERTEX
  8
0
 10
14.2154
 20
8.79699
 30
0.0
 40
0.001
 41
0.001
  0
VERTEX
  8
0
 10
14.2197
 20
8.79699
 30
0.0
 40
0.001
 41
0.001
  0
SEQEND
 8
0
  0
POLYLINE
  8
0
 62
     1
 66
     1
 10
0
 20
0
 30
0.0
 70
     1
 40
0.072
 41
0.072
  0
VERTEX
  8
0
 10
14.5199
 20
9.55626
 30
0.0
 40
0.001
 41
0.001
  0
VERTEX
  8
0
 10
14.5242
 20
9.55626
 30
0.0
 40
0.001
 41
0.001
  0
VERTEX
  8
0
 10
14.5372
 20
9.55274
 30
0.0
 40
0.001
 41
0.001
  0
VERTEX
  8
0
 10
14.5515
 20
9.54308
 30
0.0
 40
0.001
 41
0.001
  0
VERTEX
  8
0
 10
14.5613
 20
9.52875
 30
0.0
 40
0.001
 41
0.001
  0
VERTEX
  8
0
 10
14.5647
 20
9.51563
 30
0.0
 40
0.001
 41
0.001
  0
VERTEX
  8
0
 10
14.5647
 20
9.51124
 30
0.0
 40
0.001
 41
0.001
  0
VERTEX
  8
0
 10
14.5647
 20
9.50689
 30
0.0
 40
0.001
 41
0.001
  0
VERTEX
  8
0
 10
14.5613
 20
9.49376
 30
0.0
 40
0.001
 41
0.001
  0
VERTEX
  8
0
 10
14.5515
 20
9.47944
 30
0.0
 40
0.001
 41
0.001
  0
VERTEX
  8
0
 10
14.5372
 20
9.46983
 30
0.0
 40
0.001
 41
0.001
  0
VERTEX
  8
0
 10
14.5242
 20
9.46625
 30
0.0
 40
0.001
 41
0.001
  0
VERTEX
  8
0
 10
14.5199
 20
9.46625
 30
0.0
 40
0.001
 41
0.001
  0
VERTEX
  8
0
 10
14.5154
 20
9.46625
 30
0.0
 40
0.001
 41
0.001
  0
VERTEX
  8
0
 10
14.5022
 20
9.46983
 30
0.0
 40
0.001
 41
0.001
  0
VERTEX
  8
0
 10
14.4879
 20
9.47944
 30
0.0
 40
0.001
 41
0.001
  0
VERTEX
  8
0
 10
14.4783
 20
9.49376
 30
0.0
 40
0.001
 41
0.001
  0
VERTEX
  8
0
 10
14.4747
 20
9.50689
 30
0.0
 40
0.001
 41
0.001
  0
VERTEX
  8
0
 10
14.4747
 20
9.51124
 30
0.0
 40
0.001
 41
0.001
  0
VERTEX
  8
0
 10
14.4747
 20
9.51563
 30
0.0
 40
0.001
 41
0.001
  0
VERTEX
  8
0
 10
14.4783
 20
9.52875
 30
0.0
 40
0.001
 41
0.001
  0
VERTEX
  8
0
 10
14.4879
 20
9.54308
 30
0.0
 40
0.001
 41
0.001
  0
VERTEX
  8
0
 10
14.5022
 20
9.55274
 30
0.0
 40
0.001
 41
0.001
  0
VERTEX
  8
0
 10
14.5154
 20
9.55626
 30
0.0
 40
0.001
 41
0.001
  0
VERTEX
  8
0
 10
14.5199
 20
9.55626
 30
0.0
 40
0.001
 41
0.001
  0
SEQEND
 8
0
  0
POLYLINE
  8
0
 62
     1
 66
     1
 10
0
 20
0
 30
0.0
 70
     1
 40
0.072
 41
0.072
  0
VERTEX
  8
0
 10
14.5199
 20
12.4563
 30
0.0
 40
0.001
 41
0.001
  0
VERTEX
  8
0
 10
14.5242
 20
12.4563
 30
0.0
 40
0.001
 41
0.001
  0
VERTEX
  8
0
 10
14.5372
 20
12.4528
 30
0.0
 40
0.001
 41
0.001
  0
VERTEX
  8
0
 10
14.5515
 20
12.4431
 30
0.0
 40
0.001
 41
0.001
  0
VERTEX
  8
0
 10
14.5613
 20
12.4288
 30
0.0
 40
0.001
 41
0.001
  0
VERTEX
  8
0
 10
14.5647
 20
12.4156
 30
0.0
 40
0.001
 41
0.001
  0
VERTEX
  8
0
 10
14.5647
 20
12.4112
 30
0.0
 40
0.001
 41
0.001
  0
VERTEX
  8
0
 10
14.5647
 20
12.4069
 30
0.0
 40
0.001
 41
0.001
  0
VERTEX
  8
0
 10
14.5613
 20
12.3938
 30
0.0
 40
0.001
 41
0.001
  0
VERTEX
  8
0
 10
14.5515
 20
12.3794
 30
0.0
 40
0.001
 41
0.001
  0
VERTEX
  8
0
 10
14.5372
 20
12.3698
 30
0.0
 40
0.001
 41
0.001
  0
VERTEX
  8
0
 10
14.5242
 20
12.3663
 30
0.0
 40
0.001
 41
0.001
  0
VERTEX
  8
0
 10
14.5199
 20
12.3663
 30
0.0
 40
0.001
 41
0.001
  0
VERTEX
  8
0
 10
14.5154
 20
12.3663
 30
0.0
 40
0.001
 41
0.001
  0
VERTEX
  8
0
 10
14.5022
 20
12.3698
 30
0.0
 40
0.001
 41
0.001
  0
VERTEX
  8
0
 10
14.4879
 20
12.3794
 30
0.0
 40
0.001
 41
0.001
  0
VERTEX
  8
0
 10
14.4783
 20
12.3938
 30
0.0
 40
0.001
 41
0.001
  0
VERTEX
  8
0
 10
14.4747
 20
12.4069
 30
0.0
 40
0.001
 41
0.001
  0
VERTEX
  8
0
 10
14.4747
 20
12.4112
 30
0.0
 40
0.001
 41
0.001
  0
VERTEX
  8
0
 10
14.4747
 20
12.4156
 30
0.0
 40
0.001
 41
0.001
  0
VERTEX
  8
0
 10
14.4783
 20
12.4288
 30
0.0
 40
0.001
 41
0.001
  0
VERTEX
  8
0
 10
14.4879
 20
12.4431
 30
0.0
 40
0.001
 41
0.001
  0
VERTEX
  8
0
 10
14.5022
 20
12.4528
 30
0.0
 40
0.001
 41
0.001
  0
VERTEX
  8
0
 10
14.5154
 20
12.4563
 30
0.0
 40
0.001
 41
0.001
  0
VERTEX
  8
0
 10
14.5199
 20
12.4563
 30
0.0
 40
0.001
 41
0.001
  0
SEQEND
 8
0
  0
POLYLINE
  8
0
 62
     1
 66
     1
 10
0
 20
0
 30
0.0
 70
     1
 40
0.072
 41
0.072
  0
VERTEX
  8
0
 10
16.036
 20
12.3904
 30
0.0
 40
0.001
 41
0.001
  0
VERTEX
  8
0
 10
16.036
 20
12.7876
 30
0.0
 40
0.001
 41
0.001
  0
VERTEX
  8
0
 10
13.283
 20
12.7876
 30
0.0
 40
0.001
 41
0.001
  0
VERTEX
  8
0
 10
13.283
 20
6.25288
 30
0.0
 40
0.001
 41
0.001
  0
VERTEX
  8
0
 10
16.036
 20
6.25288
 30
0.0
 40
0.001
 41
0.001
  0
VERTEX
  8
0
 10
16.036
 20
6.62039
 30
0.0
 40
0.001
 41
0.001
  0
VERTEX
  8
0
 10
18.4601
 20
6.62039
 30
0.0
 40
0.001
 41
0.001
  0
VERTEX
  8
0
 10
18.4601
 20
6.50239
 30
0.0
 40
0.001
 41
0.001
  0
VERTEX
  8
0
 10
19.4661
 20
6.50239
 30
0.0
 40
0.001
 41
0.001
  0
VERTEX
  8
0
 10
19.4661
 20
6.62039
 30
0.0
 40
0.001
 41
0.001
  0
VERTEX
  8
0
 10
20.4601
 20
6.62039
 30
0.0
 40
0.001
 41
0.001
  0
VERTEX
  8
0
 10
20.4601
 20
6.50239
 30
0.0
 40
0.001
 41
0.001
  0
VERTEX
  8
0
 10
21.4661
 20
6.50239
 30
0.0
 40
0.001
 41
0.001
  0
VERTEX
  8
0
 10
21.4661
 20
6.62039
 30
0.0
 40
0.001
 41
0.001
  0
VERTEX
  8
0
 10
22.3481
 20
6.62039
 30
0.0
 40
0.001
 41
0.001
  0
VERTEX
  8
0
 10
22.3481
 20
12.3904
 30
0.0
 40
0.001
 41
0.001
  0
VERTEX
  8
0
 10
21.4661
 20
12.3904
 30
0.0
 40
0.001
 41
0.001
  0
VERTEX
  8
0
 10
21.4661
 20
12.5084
 30
0.0
 40
0.001
 41
0.001
  0
VERTEX
  8
0
 10
20.4601
 20
12.5084
 30
0.0
 40
0.001
 41
0.001
  0
VERTEX
  8
0
 10
20.4601
 20
12.3904
 30
0.0
 40
0.001
 41
0.001
  0
VERTEX
  8
0
 10
19.4661
 20
12.3904
 30
0.0
 40
0.001
 41
0.001
  0
VERTEX
  8
0
 10
19.4661
 20
12.5084
 30
0.0
 40
0.001
 41
0.001
  0
VERTEX
  8
0
 10
18.4601
 20
12.5084
 30
0.0
 40
0.001
 41
0.001
  0
VERTEX
  8
0
 10
18.4601
 20
12.3904
 30
0.0
 40
0.001
 41
0.001
  0
VERTEX
  8
0
 10
16.036
 20
12.3904
 30
0.0
 40
0.001
 41
0.001
  0
SEQEND
 8
0
  0
POLYLINE
  8
0
 62
     1
 66
     1
 10
0
 20
0
 30
0.0
 70
     1
 40
0.072
 41
0.072
  0
VERTEX
  8
0
 10
0.103136
 20
16.9431
 30
0.0
 40
0.001
 41
0.001
  0
VERTEX
  8
0
 10
0.103136
 20
13.061
 30
0.0
 40
0.001
 41
0.001
  0
VERTEX
  8
0
 10
1.60314
 20
13.061
 30
0.0
 40
0.001
 41
0.001
  0
VERTEX
  8
0
 10
1.60314
 20
12.943
 30
0.0
 40
0.001
 41
0.001
  0
VERTEX
  8
0
 10
3.1091
 20
12.943
 30
0.0
 40
0.001
 41
0.001
  0
VERTEX
  8
0
 10
3.1091
 20
13.061
 30
0.0
 40
0.001
 41
0.001
  0
VERTEX
  8
0
 10
4.10314
 20
13.061
 30
0.0
 40
0.001
 41
0.001
  0
VERTEX
  8
0
 10
4.10314
 20
12.943
 30
0.0
 40
0.001
 41
0.001
  0
VERTEX
  8
0
 10
5.1091
 20
12.943
 30
0.0
 40
0.001
 41
0.001
  0
VERTEX
  8
0
 10
5.1091
 20
13.061
 30
0.0
 40
0.001
 41
0.001
  0
VERTEX
  8
0
 10
6.10314
 20
13.061
 30
0.0
 40
0.001
 41
0.001
  0
VERTEX
  8
0
 10
6.10314
 20
12.943
 30
0.0
 40
0.001
 41
0.001
  0
VERTEX
  8
0
 10
7.1091
 20
12.943
 30
0.0
 40
0.001
 41
0.001
  0
VERTEX
  8
0
 10
7.1091
 20
13.061
 30
0.0
 40
0.001
 41
0.001
  0
VERTEX
  8
0
 10
8.10314
 20
13.061
 30
0.0
 40
0.001
 41
0.001
  0
VERTEX
  8
0
 10
8.10314
 20
12.943
 30
0.0
 40
0.001
 41
0.001
  0
VERTEX
  8
0
 10
9.1091
 20
12.943
 30
0.0
 40
0.001
 41
0.001
  0
VERTEX
  8
0
 10
9.1091
 20
13.061
 30
0.0
 40
0.001
 41
0.001
  0
VERTEX
  8
0
 10
10.1031
 20
13.061
 30
0.0
 40
0.001
 41
0.001
  0
VERTEX
  8
0
 10
10.1031
 20
12.943
 30
0.0
 40
0.001
 41
0.001
  0
VERTEX
  8
0
 10
11.6091
 20
12.943
 30
0.0
 40
0.001
 41
0.001
  0
VERTEX
  8
0
 10
11.6091
 20
13.061
 30
0.0
 40
0.001
 41
0.001
  0
VERTEX
  8
0
 10
13.1091
 20
13.061
 30
0.0
 40
0.001
 41
0.001
  0
VERTEX
  8
0
 10
13.1091
 20
13.949
 30
0.0
 40
0.001
 41
0.001
  0
VERTEX
  8
0
 10
12.9911
 20
13.949
 30
0.0
 40
0.001
 41
0.001
  0
VERTEX
  8
0
 10
12.9911
 20
14.9431
 30
0.0
 40
0.001
 41
0.001
  0
VERTEX
  8
0
 10
13.1091
 20
14.9431
 30
0.0
 40
0.001
 41
0.001
  0
VERTEX
  8
0
 10
13.1091
 20
15.949
 30
0.0
 40
0.001
 41
0.001
  0
VERTEX
  8
0
 10
12.9911
 20
15.949
 30
0.0
 40
0.001
 41
0.001
  0
VERTEX
  8
0
 10
12.9911
 20
16.9431
 30
0.0
 40
0.001
 41
0.001
  0
VERTEX
  8
0
 10
13.1091
 20
16.9431
 30
0.0
 40
0.001
 41
0.001
  0
VERTEX
  8
0
 10
13.1091
 20
17.8311
 30
0.0
 40
0.001
 41
0.001
  0
VERTEX
  8
0
 10
0.103136
 20
17.8311
 30
0.0
 40
0.001
 41
0.001
  0
VERTEX
  8
0
 10
0.103136
 20
16.9431
 30
0.0
 40
0.001
 41
0.001
  0
SEQEND
 8
0
  0
POLYLINE
  8
0
 62
     1
 66
     1
 10
0
 20
0
 30
0.0
 70
     1
 40
0.072
 41
0.072
  0
VERTEX
  8
0
 10
13.3038
 20
16.9431
 30
0.0
 40
0.001
 41
0.001
  0
VERTEX
  8
0
 10
13.3038
 20
13.061
 30
0.0
 40
0.001
 41
0.001
  0
VERTEX
  8
0
 10
14.8038
 20
13.061
 30
0.0
 40
0.001
 41
0.001
  0
VERTEX
  8
0
 10
14.8038
 20
12.943
 30
0.0
 40
0.001
 41
0.001
  0
VERTEX
  8
0
 10
16.3097
 20
12.943
 30
0.0
 40
0.001
 41
0.001
  0
VERTEX
  8
0
 10
16.3097
 20
13.061
 30
0.0
 40
0.001
 41
0.001
  0
VERTEX
  8
0
 10
17.3038
 20
13.061
 30
0.0
 40
0.001
 41
0.001
  0
VERTEX
  8
0
 10
17.3038
 20
12.943
 30
0.0
 40
0.001
 41
0.001
  0
VERTEX
  8
0
 10
18.3097
 20
12.943
 30
0.0
 40
0.001
 41
0.001
  0
VERTEX
  8
0
 10
18.3097
 20
13.061
 30
0.0
 40
0.001
 41
0.001
  0
VERTEX
  8
0
 10
19.3038
 20
13.061
 30
0.0
 40
0.001
 41
0.001
  0
VERTEX
  8
0
 10
19.3038
 20
12.943
 30
0.0
 40
0.001
 41
0.001
  0
VERTEX
  8
0
 10
20.3097
 20
12.943
 30
0.0
 40
0.001
 41
0.001
  0
VERTEX
  8
0
 10
20.3097
 20
13.061
 30
0.0
 40
0.001
 41
0.001
  0
VERTEX
  8
0
 10
21.3038
 20
13.061
 30
0.0
 40
0.001
 41
0.001
  0
VERTEX
  8
0
 10
21.3038
 20
12.943
 30
0.0
 40
0.001
 41
0.001
  0
VERTEX
  8
0
 10
22.3097
 20
12.943
 30
0.0
 40
0.001
 41
0.001
  0
VERTEX
  8
0
 10
22.3097
 20
13.061
 30
0.0
 40
0.001
 41
0.001
  0
VERTEX
  8
0
 10
23.3038
 20
13.061
 30
0.0
 40
0.001
 41
0.001
  0
VERTEX
  8
0
 10
23.3038
 20
12.943
 30
0.0
 40
0.001
 41
0.001
  0
VERTEX
  8
0
 10
24.8097
 20
12.943
 30
0.0
 40
0.001
 41
0.001
  0
VERTEX
  8
0
 10
24.8097
 20
13.061
 30
0.0
 40
0.001
 41
0.001
  0
VERTEX
  8
0
 10
26.3097
 20
13.061
 30
0.0
 40
0.001
 41
0.001
  0
VERTEX
  8
0
 10
26.3097
 20
13.949
 30
0.0
 40
0.001
 41
0.001
  0
VERTEX
  8
0
 10
26.1917
 20
13.949
 30
0.0
 40
0.001
 41
0.001
  0
VERTEX
  8
0
 10
26.1917
 20
14.9431
 30
0.0
 40
0.001
 41
0.001
  0
VERTEX
  8
0
 10
26.3097
 20
14.9431
 30
0.0
 40
0.001
 41
0.001
  0
VERTEX
  8
0
 10
26.3097
 20
15.949
 30
0.0
 40
0.001
 41
0.001
  0
VERTEX
  8
0
 10
26.1917
 20
15.949
 30
0.0
 40
0.001
 41
0.001
  0
VERTEX
  8
0
 10
26.1917
 20
16.9431
 30
0.0
 40
0.001
 41
0.001
  0
VERTEX
  8
0
 10
26.3097
 20
16.9431
 30
0.0
 40
0.001
 41
0.001
  0
VERTEX
  8
0
 10
26.3097
 20
17.8311
 30
0.0
 40
0.001
 41
0.001
  0
VERTEX
  8
0
 10
13.3038
 20
17.8311
 30
0.0
 40
0.001
 41
0.001
  0
VERTEX
  8
0
 10
13.3038
 20
16.9431
 30
0.0
 40
0.001
 41
0.001
  0
SEQEND
 8
0
  0
POLYLINE
  8
0
 62
     1
 66
     1
 10
0
 20
0
 30
0.0
 70
     1
 40
0.072
 41
0.072
  0
VERTEX
  8
0
 10
11.6058
 20
4.01704
 30
0.0
 40
0.001
 41
0.001
  0
VERTEX
  8
0
 10
11.631
 20
4.01704
 30
0.0
 40
0.001
 41
0.001
  0
VERTEX
  8
0
 10
11.7065
 20
4.00689
 30
0.0
 40
0.001
 41
0.001
  0
VERTEX
  8
0
 10
11.8004
 20
3.97775
 30
0.0
 40
0.001
 41
0.001
  0
VERTEX
  8
0
 10
11.8853
 20
3.93169
 30
0.0
 40
0.001
 41
0.001
  0
VERTEX
  8
0
 10
11.9593
 20
3.87067
 30
0.0
 40
0.001
 41
0.001
  0
VERTEX
  8
0
 10
12.0204
 20
3.79665
 30
0.0
 40
0.001
 41
0.001
  0
VERTEX
  8
0
 10
12.0665
 20
3.71169
 30
0.0
 40
0.001
 41
0.001
  0
VERTEX
  8
0
 10
12.0956
 20
3.61783
 30
0.0
 40
0.001
 41
0.001
  0
VERTEX
  8
0
 10
12.1058
 20
3.54226
 30
0.0
 40
0.001
 41
0.001
  0
VERTEX
  8
0
 10
12.1058
 20
3.51704
 30
0.0
 40
0.001
 41
0.001
  0
VERTEX
  8
0
 10
12.1058
 20
3.49186
 30
0.0
 40
0.001
 41
0.001
  0
VERTEX
  8
0
 10
12.0956
 20
3.41629
 30
0.0
 40
0.001
 41
0.001
  0
VERTEX
  8
0
 10
12.0665
 20
3.32249
 30
0.0
 40
0.001
 41
0.001
  0
VERTEX
  8
0
 10
12.0204
 20
3.23753
 30
0.0
 40
0.001
 41
0.001
  0
VERTEX
  8
0
 10
11.9593
 20
3.16351
 30
0.0
 40
0.001
 41
0.001
  0
VERTEX
  8
0
 10
11.8853
 20
3.10249
 30
0.0
 40
0.001
 41
0.001
  0
VERTEX
  8
0
 10
11.8004
 20
3.05638
 30
0.0
 40
0.001
 41
0.001
  0
VERTEX
  8
0
 10
11.7065
 20
3.02724
 30
0.0
 40
0.001
 41
0.001
  0
VERTEX
  8
0
 10
11.631
 20
3.01704
 30
0.0
 40
0.001
 41
0.001
  0
VERTEX
  8
0
 10
11.6058
 20
3.01704
 30
0.0
 40
0.001
 41
0.001
  0
VERTEX
  8
0
 10
11.5806
 20
3.01704
 30
0.0
 40
0.001
 41
0.001
  0
VERTEX
  8
0
 10
11.505
 20
3.02724
 30
0.0
 40
0.001
 41
0.001
  0
VERTEX
  8
0
 10
11.4111
 20
3.05638
 30
0.0
 40
0.001
 41
0.001
  0
VERTEX
  8
0
 10
11.3262
 20
3.10249
 30
0.0
 40
0.001
 41
0.001
  0
VERTEX
  8
0
 10
11.2522
 20
3.16351
 30
0.0
 40
0.001
 41
0.001
  0
VERTEX
  8
0
 10
11.1911
 20
3.23753
 30
0.0
 40
0.001
 41
0.001
  0
VERTEX
  8
0
 10
11.1451
 20
3.32249
 30
0.0
 40
0.001
 41
0.001
  0
VERTEX
  8
0
 10
11.1159
 20
3.41629
 30
0.0
 40
0.001
 41
0.001
  0
VERTEX
  8
0
 10
11.1058
 20
3.49186
 30
0.0
 40
0.001
 41
0.001
  0
VERTEX
  8
0
 10
11.1058
 20
3.51704
 30
0.0
 40
0.001
 41
0.001
  0
VERTEX
  8
0
 10
11.1058
 20
3.54226
 30
0.0
 40
0.001
 41
0.001
  0
VERTEX
  8
0
 10
11.1159
 20
3.61783
 30
0.0
 40
0.001
 41
0.001
  0
VERTEX
  8
0
 10
11.1451
 20
3.71169
 30
0.0
 40
0.001
 41
0.001
  0
VERTEX
  8
0
 10
11.1911
 20
3.79665
 30
0.0
 40
0.001
 41
0.001
  0
VERTEX
  8
0
 10
11.2522
 20
3.87067
 30
0.0
 40
0.001
 41
0.001
  0
VERTEX
  8
0
 10
11.3262
 20
3.93169
 30
0.0
 40
0.001
 41
0.001
  0
VERTEX
  8
0
 10
11.4111
 20
3.97775
 30
0.0
 40
0.001
 41
0.001
  0
VERTEX
  8
0
 10
11.505
 20
4.00689
 30
0.0
 40
0.001
 41
0.001
  0
VERTEX
  8
0
 10
11.5806
 20
4.01704
 30
0.0
 40
0.001
 41
0.001
  0
VERTEX
  8
0
 10
11.6058
 20
4.01704
 30
0.0
 40
0.001
 41
0.001
  0
SEQEND
 8
0
  0
POLYLINE
  8
0
 62
     1
 66
     1
 10
0
 20
0
 30
0.0
 70
     1
 40
0.072
 41
0.072
  0
VERTEX
  8
0
 10
11.6058
 20
4.287
 30
0.0
 40
0.001
 41
0.001
  0
VERTEX
  8
0
 10
11.6101
 20
4.287
 30
0.0
 40
0.001
 41
0.001
  0
VERTEX
  8
0
 10
11.6233
 20
4.28347
 30
0.0
 40
0.001
 41
0.001
  0
VERTEX
  8
0
 10
11.6376
 20
4.27387
 30
0.0
 40
0.001
 41
0.001
  0
VERTEX
  8
0
 10
11.6472
 20
4.25956
 30
0.0
 40
0.001
 41
0.001
  0
VERTEX
  8
0
 10
11.6508
 20
4.24642
 30
0.0
 40
0.001
 41
0.001
  0
VERTEX
  8
0
 10
11.6508
 20
4.24203
 30
0.0
 40
0.001
 41
0.001
  0
VERTEX
  8
0
 10
11.6508
 20
4.23768
 30
0.0
 40
0.001
 41
0.001
  0
VERTEX
  8
0
 10
11.6472
 20
4.22456
 30
0.0
 40
0.001
 41
0.001
  0
VERTEX
  8
0
 10
11.6376
 20
4.21024
 30
0.0
 40
0.001
 41
0.001
  0
VERTEX
  8
0
 10
11.6233
 20
4.20063
 30
0.0
 40
0.001
 41
0.001
  0
VERTEX
  8
0
 10
11.6101
 20
4.19706
 30
0.0
 40
0.001
 41
0.001
  0
VERTEX
  8
0
 10
11.6058
 20
4.19706
 30
0.0
 40
0.001
 41
0.001
  0
VERTEX
  8
0
 10
11.6014
 20
4.19706
 30
0.0
 40
0.001
 41
0.001
  0
VERTEX
  8
0
 10
11.5883
 20
4.20063
 30
0.0
 40
0.001
 41
0.001
  0
VERTEX
  8
0
 10
11.5739
 20
4.21024
 30
0.0
 40
0.001
 41
0.001
  0
VERTEX
  8
0
 10
11.5643
 20
4.22456
 30
0.0
 40
0.001
 41
0.001
  0
VERTEX
  8
0
 10
11.5608
 20
4.23768
 30
0.0
 40
0.001
 41
0.001
  0
VERTEX
  8
0
 10
11.5608
 20
4.24203
 30
0.0
 40
0.001
 41
0.001
  0
VERTEX
  8
0
 10
11.5608
 20
4.24642
 30
0.0
 40
0.001
 41
0.001
  0
VERTEX
  8
0
 10
11.5643
 20
4.25956
 30
0.0
 40
0.001
 41
0.001
  0
VERTEX
  8
0
 10
11.5739
 20
4.27387
 30
0.0
 40
0.001
 41
0.001
  0
VERTEX
  8
0
 10
11.5883
 20
4.28347
 30
0.0
 40
0.001
 41
0.001
  0
VERTEX
  8
0
 10
11.6014
 20
4.287
 30
0.0
 40
0.001
 41
0.001
  0
VERTEX
  8
0
 10
11.6058
 20
4.287
 30
0.0
 40
0.001
 41
0.001
  0
SEQEND
 8
0
  0
POLYLINE
  8
0
 62
     1
 66
     1
 10
0
 20
0
 30
0.0
 70
     1
 40
0.072
 41
0.072
  0
VERTEX
  8
0
 10
11.6058
 20
2.83703
 30
0.0
 40
0.001
 41
0.001
  0
VERTEX
  8
0
 10
11.6101
 20
2.83703
 30
0.0
 40
0.001
 41
0.001
  0
VERTEX
  8
0
 10
11.6233
 20
2.8335
 30
0.0
 40
0.001
 41
0.001
  0
VERTEX
  8
0
 10
11.6376
 20
2.82389
 30
0.0
 40
0.001
 41
0.001
  0
VERTEX
  8
0
 10
11.6472
 20
2.80957
 30
0.0
 40
0.001
 41
0.001
  0
VERTEX
  8
0
 10
11.6508
 20
2.79644
 30
0.0
 40
0.001
 41
0.001
  0
VERTEX
  8
0
 10
11.6508
 20
2.79204
 30
0.0
 40
0.001
 41
0.001
  0
VERTEX
  8
0
 10
11.6508
 20
2.78771
 30
0.0
 40
0.001
 41
0.001
  0
VERTEX
  8
0
 10
11.6472
 20
2.77458
 30
0.0
 40
0.001
 41
0.001
  0
VERTEX
  8
0
 10
11.6376
 20
2.76025
 30
0.0
 40
0.001
 41
0.001
  0
VERTEX
  8
0
 10
11.6233
 20
2.7506
 30
0.0
 40
0.001
 41
0.001
  0
VERTEX
  8
0
 10
11.6101
 20
2.74701
 30
0.0
 40
0.001
 41
0.001
  0
VERTEX
  8
0
 10
11.6058
 20
2.74701
 30
0.0
 40
0.001
 41
0.001
  0
VERTEX
  8
0
 10
11.6014
 20
2.74701
 30
0.0
 40
0.001
 41
0.001
  0
VERTEX
  8
0
 10
11.5883
 20
2.7506
 30
0.0
 40
0.001
 41
0.001
  0
VERTEX
  8
0
 10
11.5739
 20
2.76025
 30
0.0
 40
0.001
 41
0.001
  0
VERTEX
  8
0
 10
11.5643
 20
2.77458
 30
0.0
 40
0.001
 41
0.001
  0
VERTEX
  8
0
 10
11.5608
 20
2.78771
 30
0.0
 40
0.001
 41
0.001
  0
VERTEX
  8
0
 10
11.5608
 20
2.79204
 30
0.0
 40
0.001
 41
0.001
  0
VERTEX
  8
0
 10
11.5608
 20
2.79644
 30
0.0
 40
0.001
 41
0.001
  0
VERTEX
  8
0
 10
11.5643
 20
2.80957
 30
0.0
 40
0.001
 41
0.001
  0
VERTEX
  8
0
 10
11.5739
 20
2.82389
 30
0.0
 40
0.001
 41
0.001
  0
VERTEX
  8
0
 10
11.5883
 20
2.8335
 30
0.0
 40
0.001
 41
0.001
  0
VERTEX
  8
0
 10
11.6014
 20
2.83703
 30
0.0
 40
0.001
 41
0.001
  0
VERTEX
  8
0
 10
11.6058
 20
2.83703
 30
0.0
 40
0.001
 41
0.001
  0
SEQEND
 8
0
  0
POLYLINE
  8
0
 62
     1
 66
     1
 10
0
 20
0
 30
0.0
 70
     1
 40
0.072
 41
0.072
  0
VERTEX
  8
0
 10
11.6058
 20
5.76704
 30
0.0
 40
0.001
 41
0.001
  0
VERTEX
  8
0
 10
11.631
 20
5.76704
 30
0.0
 40
0.001
 41
0.001
  0
VERTEX
  8
0
 10
11.7065
 20
5.75689
 30
0.0
 40
0.001
 41
0.001
  0
VERTEX
  8
0
 10
11.8004
 20
5.72775
 30
0.0
 40
0.001
 41
0.001
  0
VERTEX
  8
0
 10
11.8853
 20
5.68169
 30
0.0
 40
0.001
 41
0.001
  0
VERTEX
  8
0
 10
11.9593
 20
5.62067
 30
0.0
 40
0.001
 41
0.001
  0
VERTEX
  8
0
 10
12.0204
 20
5.54665
 30
0.0
 40
0.001
 41
0.001
  0
VERTEX
  8
0
 10
12.0665
 20
5.46169
 30
0.0
 40
0.001
 41
0.001
  0
VERTEX
  8
0
 10
12.0956
 20
5.36783
 30
0.0
 40
0.001
 41
0.001
  0
VERTEX
  8
0
 10
12.1058
 20
5.29226
 30
0.0
 40
0.001
 41
0.001
  0
VERTEX
  8
0
 10
12.1058
 20
5.26704
 30
0.0
 40
0.001
 41
0.001
  0
VERTEX
  8
0
 10
12.1058
 20
5.24186
 30
0.0
 40
0.001
 41
0.001
  0
VERTEX
  8
0
 10
12.0956
 20
5.16629
 30
0.0
 40
0.001
 41
0.001
  0
VERTEX
  8
0
 10
12.0665
 20
5.07249
 30
0.0
 40
0.001
 41
0.001
  0
VERTEX
  8
0
 10
12.0204
 20
4.98753
 30
0.0
 40
0.001
 41
0.001
  0
VERTEX
  8
0
 10
11.9593
 20
4.91351
 30
0.0
 40
0.001
 41
0.001
  0
VERTEX
  8
0
 10
11.8853
 20
4.85249
 30
0.0
 40
0.001
 41
0.001
  0
VERTEX
  8
0
 10
11.8004
 20
4.80637
 30
0.0
 40
0.001
 41
0.001
  0
VERTEX
  8
0
 10
11.7065
 20
4.77724
 30
0.0
 40
0.001
 41
0.001
  0
VERTEX
  8
0
 10
11.631
 20
4.76704
 30
0.0
 40
0.001
 41
0.001
  0
VERTEX
  8
0
 10
11.6058
 20
4.76704
 30
0.0
 40
0.001
 41
0.001
  0
VERTEX
  8
0
 10
11.5806
 20
4.76704
 30
0.0
 40
0.001
 41
0.001
  0
VERTEX
  8
0
 10
11.505
 20
4.77724
 30
0.0
 40
0.001
 41
0.001
  0
VERTEX
  8
0
 10
11.4111
 20
4.80637
 30
0.0
 40
0.001
 41
0.001
  0
VERTEX
  8
0
 10
11.3262
 20
4.85249
 30
0.0
 40
0.001
 41
0.001
  0
VERTEX
  8
0
 10
11.2522
 20
4.91351
 30
0.0
 40
0.001
 41
0.001
  0
VERTEX
  8
0
 10
11.1911
 20
4.98753
 30
0.0
 40
0.001
 41
0.001
  0
VERTEX
  8
0
 10
11.1451
 20
5.07249
 30
0.0
 40
0.001
 41
0.001
  0
VERTEX
  8
0
 10
11.1159
 20
5.16629
 30
0.0
 40
0.001
 41
0.001
  0
VERTEX
  8
0
 10
11.1058
 20
5.24186
 30
0.0
 40
0.001
 41
0.001
  0
VERTEX
  8
0
 10
11.1058
 20
5.26704
 30
0.0
 40
0.001
 41
0.001
  0
VERTEX
  8
0
 10
11.1058
 20
5.29226
 30
0.0
 40
0.001
 41
0.001
  0
VERTEX
  8
0
 10
11.1159
 20
5.36783
 30
0.0
 40
0.001
 41
0.001
  0
VERTEX
  8
0
 10
11.1451
 20
5.46169
 30
0.0
 40
0.001
 41
0.001
  0
VERTEX
  8
0
 10
11.1911
 20
5.54665
 30
0.0
 40
0.001
 41
0.001
  0
VERTEX
  8
0
 10
11.2522
 20
5.62067
 30
0.0
 40
0.001
 41
0.001
  0
VERTEX
  8
0
 10
11.3262
 20
5.68169
 30
0.0
 40
0.001
 41
0.001
  0
VERTEX
  8
0
 10
11.4111
 20
5.72775
 30
0.0
 40
0.001
 41
0.001
  0
VERTEX
  8
0
 10
11.505
 20
5.75689
 30
0.0
 40
0.001
 41
0.001
  0
VERTEX
  8
0
 10
11.5806
 20
5.76704
 30
0.0
 40
0.001
 41
0.001
  0
VERTEX
  8
0
 10
11.6058
 20
5.76704
 30
0.0
 40
0.001
 41
0.001
  0
SEQEND
 8
0
  0
POLYLINE
  8
0
 62
     1
 66
     1
 10
0
 20
0
 30
0.0
 70
     1
 40
0.072
 41
0.072
  0
VERTEX
  8
0
 10
11.6058
 20
6.037
 30
0.0
 40
0.001
 41
0.001
  0
VERTEX
  8
0
 10
11.6101
 20
6.037
 30
0.0
 40
0.001
 41
0.001
  0
VERTEX
  8
0
 10
11.6233
 20
6.03347
 30
0.0
 40
0.001
 41
0.001
  0
VERTEX
  8
0
 10
11.6376
 20
6.02387
 30
0.0
 40
0.001
 41
0.001
  0
VERTEX
  8
0
 10
11.6472
 20
6.00956
 30
0.0
 40
0.001
 41
0.001
  0
VERTEX
  8
0
 10
11.6508
 20
5.99642
 30
0.0
 40
0.001
 41
0.001
  0
VERTEX
  8
0
 10
11.6508
 20
5.99203
 30
0.0
 40
0.001
 41
0.001
  0
VERTEX
  8
0
 10
11.6508
 20
5.98768
 30
0.0
 40
0.001
 41
0.001
  0
VERTEX
  8
0
 10
11.6472
 20
5.97456
 30
0.0
 40
0.001
 41
0.001
  0
VERTEX
  8
0
 10
11.6376
 20
5.96024
 30
0.0
 40
0.001
 41
0.001
  0
VERTEX
  8
0
 10
11.6233
 20
5.95063
 30
0.0
 40
0.001
 41
0.001
  0
VERTEX
  8
0
 10
11.6101
 20
5.94706
 30
0.0
 40
0.001
 41
0.001
  0
VERTEX
  8
0
 10
11.6058
 20
5.94706
 30
0.0
 40
0.001
 41
0.001
  0
VERTEX
  8
0
 10
11.6014
 20
5.94706
 30
0.0
 40
0.001
 41
0.001
  0
VERTEX
  8
0
 10
11.5883
 20
5.95063
 30
0.0
 40
0.001
 41
0.001
  0
VERTEX
  8
0
 10
11.5739
 20
5.96024
 30
0.0
 40
0.001
 41
0.001
  0
VERTEX
  8
0
 10
11.5643
 20
5.97456
 30
0.0
 40
0.001
 41
0.001
  0
VERTEX
  8
0
 10
11.5608
 20
5.98768
 30
0.0
 40
0.001
 41
0.001
  0
VERTEX
  8
0
 10
11.5608
 20
5.99203
 30
0.0
 40
0.001
 41
0.001
  0
VERTEX
  8
0
 10
11.5608
 20
5.99642
 30
0.0
 40
0.001
 41
0.001
  0
VERTEX
  8
0
 10
11.5643
 20
6.00956
 30
0.0
 40
0.001
 41
0.001
  0
VERTEX
  8
0
 10
11.5739
 20
6.02387
 30
0.0
 40
0.001
 41
0.001
  0
VERTEX
  8
0
 10
11.5883
 20
6.03347
 30
0.0
 40
0.001
 41
0.001
  0
VERTEX
  8
0
 10
11.6014
 20
6.037
 30
0.0
 40
0.001
 41
0.001
  0
VERTEX
  8
0
 10
11.6058
 20
6.037
 30
0.0
 40
0.001
 41
0.001
  0
SEQEND
 8
0
  0
POLYLINE
  8
0
 62
     1
 66
     1
 10
0
 20
0
 30
0.0
 70
     1
 40
0.072
 41
0.072
  0
VERTEX
  8
0
 10
11.6058
 20
4.58703
 30
0.0
 40
0.001
 41
0.001
  0
VERTEX
  8
0
 10
11.6101
 20
4.58703
 30
0.0
 40
0.001
 41
0.001
  0
VERTEX
  8
0
 10
11.6233
 20
4.5835
 30
0.0
 40
0.001
 41
0.001
  0
VERTEX
  8
0
 10
11.6376
 20
4.57389
 30
0.0
 40
0.001
 41
0.001
  0
VERTEX
  8
0
 10
11.6472
 20
4.55957
 30
0.0
 40
0.001
 41
0.001
  0
VERTEX
  8
0
 10
11.6508
 20
4.54644
 30
0.0
 40
0.001
 41
0.001
  0
VERTEX
  8
0
 10
11.6508
 20
4.54204
 30
0.0
 40
0.001
 41
0.001
  0
VERTEX
  8
0
 10
11.6508
 20
4.53771
 30
0.0
 40
0.001
 41
0.001
  0
VERTEX
  8
0
 10
11.6472
 20
4.52458
 30
0.0
 40
0.001
 41
0.001
  0
VERTEX
  8
0
 10
11.6376
 20
4.51025
 30
0.0
 40
0.001
 41
0.001
  0
VERTEX
  8
0
 10
11.6233
 20
4.5006
 30
0.0
 40
0.001
 41
0.001
  0
VERTEX
  8
0
 10
11.6101
 20
4.49701
 30
0.0
 40
0.001
 41
0.001
  0
VERTEX
  8
0
 10
11.6058
 20
4.49701
 30
0.0
 40
0.001
 41
0.001
  0
VERTEX
  8
0
 10
11.6014
 20
4.49701
 30
0.0
 40
0.001
 41
0.001
  0
VERTEX
  8
0
 10
11.5883
 20
4.5006
 30
0.0
 40
0.001
 41
0.001
  0
VERTEX
  8
0
 10
11.5739
 20
4.51025
 30
0.0
 40
0.001
 41
0.001
  0
VERTEX
  8
0
 10
11.5643
 20
4.52458
 30
0.0
 40
0.001
 41
0.001
  0
VERTEX
  8
0
 10
11.5608
 20
4.53771
 30
0.0
 40
0.001
 41
0.001
  0
VERTEX
  8
0
 10
11.5608
 20
4.54204
 30
0.0
 40
0.001
 41
0.001
  0
VERTEX
  8
0
 10
11.5608
 20
4.54644
 30
0.0
 40
0.001
 41
0.001
  0
VERTEX
  8
0
 10
11.5643
 20
4.55957
 30
0.0
 40
0.001
 41
0.001
  0
VERTEX
  8
0
 10
11.5739
 20
4.57389
 30
0.0
 40
0.001
 41
0.001
  0
VERTEX
  8
0
 10
11.5883
 20
4.5835
 30
0.0
 40
0.001
 41
0.001
  0
VERTEX
  8
0
 10
11.6014
 20
4.58703
 30
0.0
 40
0.001
 41
0.001
  0
VERTEX
  8
0
 10
11.6058
 20
4.58703
 30
0.0
 40
0.001
 41
0.001
  0
SEQEND
 8
0
  0
POLYLINE
  8
0
 62
     1
 66
     1
 10
0
 20
0
 30
0.0
 70
     1
 40
0.072
 41
0.072
  0
VERTEX
  8
0
 10
11.6058
 20
2.26704
 30
0.0
 40
0.001
 41
0.001
  0
VERTEX
  8
0
 10
11.631
 20
2.26704
 30
0.0
 40
0.001
 41
0.001
  0
VERTEX
  8
0
 10
11.7065
 20
2.25689
 30
0.0
 40
0.001
 41
0.001
  0
VERTEX
  8
0
 10
11.8004
 20
2.22775
 30
0.0
 40
0.001
 41
0.001
  0
VERTEX
  8
0
 10
11.8853
 20
2.18169
 30
0.0
 40
0.001
 41
0.001
  0
VERTEX
  8
0
 10
11.9593
 20
2.12067
 30
0.0
 40
0.001
 41
0.001
  0
VERTEX
  8
0
 10
12.0204
 20
2.04665
 30
0.0
 40
0.001
 41
0.001
  0
VERTEX
  8
0
 10
12.0665
 20
1.96169
 30
0.0
 40
0.001
 41
0.001
  0
VERTEX
  8
0
 10
12.0956
 20
1.86783
 30
0.0
 40
0.001
 41
0.001
  0
VERTEX
  8
0
 10
12.1058
 20
1.79226
 30
0.0
 40
0.001
 41
0.001
  0
VERTEX
  8
0
 10
12.1058
 20
1.76704
 30
0.0
 40
0.001
 41
0.001
  0
VERTEX
  8
0
 10
12.1058
 20
1.74186
 30
0.0
 40
0.001
 41
0.001
  0
VERTEX
  8
0
 10
12.0956
 20
1.66629
 30
0.0
 40
0.001
 41
0.001
  0
VERTEX
  8
0
 10
12.0665
 20
1.57249
 30
0.0
 40
0.001
 41
0.001
  0
VERTEX
  8
0
 10
12.0204
 20
1.48753
 30
0.0
 40
0.001
 41
0.001
  0
VERTEX
  8
0
 10
11.9593
 20
1.41351
 30
0.0
 40
0.001
 41
0.001
  0
VERTEX
  8
0
 10
11.8853
 20
1.35248
 30
0.0
 40
0.001
 41
0.001
  0
VERTEX
  8
0
 10
11.8004
 20
1.30637
 30
0.0
 40
0.001
 41
0.001
  0
VERTEX
  8
0
 10
11.7065
 20
1.27723
 30
0.0
 40
0.001
 41
0.001
  0
VERTEX
  8
0
 10
11.631
 20
1.26704
 30
0.0
 40
0.001
 41
0.001
  0
VERTEX
  8
0
 10
11.6058
 20
1.26704
 30
0.0
 40
0.001
 41
0.001
  0
VERTEX
  8
0
 10
11.5806
 20
1.26704
 30
0.0
 40
0.001
 41
0.001
  0
VERTEX
  8
0
 10
11.505
 20
1.27723
 30
0.0
 40
0.001
 41
0.001
  0
VERTEX
  8
0
 10
11.4111
 20
1.30637
 30
0.0
 40
0.001
 41
0.001
  0
VERTEX
  8
0
 10
11.3262
 20
1.35248
 30
0.0
 40
0.001
 41
0.001
  0
VERTEX
  8
0
 10
11.2522
 20
1.41351
 30
0.0
 40
0.001
 41
0.001
  0
VERTEX
  8
0
 10
11.1911
 20
1.48753
 30
0.0
 40
0.001
 41
0.001
  0
VERTEX
  8
0
 10
11.1451
 20
1.57249
 30
0.0
 40
0.001
 41
0.001
  0
VERTEX
  8
0
 10
11.1159
 20
1.66629
 30
0.0
 40
0.001
 41
0.001
  0
VERTEX
  8
0
 10
11.1058
 20
1.74186
 30
0.0
 40
0.001
 41
0.001
  0
VERTEX
  8
0
 10
11.1058
 20
1.76704
 30
0.0
 40
0.001
 41
0.001
  0
VERTEX
  8
0
 10
11.1058
 20
1.79226
 30
0.0
 40
0.001
 41
0.001
  0
VERTEX
  8
0
 10
11.1159
 20
1.86783
 30
0.0
 40
0.001
 41
0.001
  0
VERTEX
  8
0
 10
11.1451
 20
1.96169
 30
0.0
 40
0.001
 41
0.001
  0
VERTEX
  8
0
 10
11.1911
 20
2.04665
 30
0.0
 40
0.001
 41
0.001
  0
VERTEX
  8
0
 10
11.2522
 20
2.12067
 30
0.0
 40
0.001
 41
0.001
  0
VERTEX
  8
0
 10
11.3262
 20
2.18169
 30
0.0
 40
0.001
 41
0.001
  0
VERTEX
  8
0
 10
11.4111
 20
2.22775
 30
0.0
 40
0.001
 41
0.001
  0
VERTEX
  8
0
 10
11.505
 20
2.25689
 30
0.0
 40
0.001
 41
0.001
  0
VERTEX
  8
0
 10
11.5806
 20
2.26704
 30
0.0
 40
0.001
 41
0.001
  0
VERTEX
  8
0
 10
11.6058
 20
2.26704
 30
0.0
 40
0.001
 41
0.001
  0
SEQEND
 8
0
  0
POLYLINE
  8
0
 62
     1
 66
     1
 10
0
 20
0
 30
0.0
 70
     1
 40
0.072
 41
0.072
  0
VERTEX
  8
0
 10
11.6058
 20
2.537
 30
0.0
 40
0.001
 41
0.001
  0
VERTEX
  8
0
 10
11.6101
 20
2.537
 30
0.0
 40
0.001
 41
0.001
  0
VERTEX
  8
0
 10
11.6233
 20
2.53347
 30
0.0
 40
0.001
 41
0.001
  0
VERTEX
  8
0
 10
11.6376
 20
2.52387
 30
0.0
 40
0.001
 41
0.001
  0
VERTEX
  8
0
 10
11.6472
 20
2.50956
 30
0.0
 40
0.001
 41
0.001
  0
VERTEX
  8
0
 10
11.6508
 20
2.49642
 30
0.0
 40
0.001
 41
0.001
  0
VERTEX
  8
0
 10
11.6508
 20
2.49203
 30
0.0
 40
0.001
 41
0.001
  0
VERTEX
  8
0
 10
11.6508
 20
2.48768
 30
0.0
 40
0.001
 41
0.001
  0
VERTEX
  8
0
 10
11.6472
 20
2.47456
 30
0.0
 40
0.001
 41
0.001
  0
VERTEX
  8
0
 10
11.6376
 20
2.46024
 30
0.0
 40
0.001
 41
0.001
  0
VERTEX
  8
0
 10
11.6233
 20
2.45063
 30
0.0
 40
0.001
 41
0.001
  0
VERTEX
  8
0
 10
11.6101
 20
2.44706
 30
0.0
 40
0.001
 41
0.001
  0
VERTEX
  8
0
 10
11.6058
 20
2.44706
 30
0.0
 40
0.001
 41
0.001
  0
VERTEX
  8
0
 10
11.6014
 20
2.44706
 30
0.0
 40
0.001
 41
0.001
  0
VERTEX
  8
0
 10
11.5883
 20
2.45063
 30
0.0
 40
0.001
 41
0.001
  0
VERTEX
  8
0
 10
11.5739
 20
2.46024
 30
0.0
 40
0.001
 41
0.001
  0
VERTEX
  8
0
 10
11.5643
 20
2.47456
 30
0.0
 40
0.001
 41
0.001
  0
VERTEX
  8
0
 10
11.5608
 20
2.48768
 30
0.0
 40
0.001
 41
0.001
  0
VERTEX
  8
0
 10
11.5608
 20
2.49203
 30
0.0
 40
0.001
 41
0.001
  0
VERTEX
  8
0
 10
11.5608
 20
2.49642
 30
0.0
 40
0.001
 41
0.001
  0
VERTEX
  8
0
 10
11.5643
 20
2.50956
 30
0.0
 40
0.001
 41
0.001
  0
VERTEX
  8
0
 10
11.5739
 20
2.52387
 30
0.0
 40
0.001
 41
0.001
  0
VERTEX
  8
0
 10
11.5883
 20
2.53347
 30
0.0
 40
0.001
 41
0.001
  0
VERTEX
  8
0
 10
11.6014
 20
2.537
 30
0.0
 40
0.001
 41
0.001
  0
VERTEX
  8
0
 10
11.6058
 20
2.537
 30
0.0
 40
0.001
 41
0.001
  0
SEQEND
 8
0
  0
POLYLINE
  8
0
 62
     1
 66
     1
 10
0
 20
0
 30
0.0
 70
     1
 40
0.072
 41
0.072
  0
VERTEX
  8
0
 10
11.6058
 20
1.08702
 30
0.0
 40
0.001
 41
0.001
  0
VERTEX
  8
0
 10
11.6101
 20
1.08702
 30
0.0
 40
0.001
 41
0.001
  0
VERTEX
  8
0
 10
11.6233
 20
1.0835
 30
0.0
 40
0.001
 41
0.001
  0
VERTEX
  8
0
 10
11.6376
 20
1.07389
 30
0.0
 40
0.001
 41
0.001
  0
VERTEX
  8
0
 10
11.6472
 20
1.05957
 30
0.0
 40
0.001
 41
0.001
  0
VERTEX
  8
0
 10
11.6508
 20
1.04644
 30
0.0
 40
0.001
 41
0.001
  0
VERTEX
  8
0
 10
11.6508
 20
1.04205
 30
0.0
 40
0.001
 41
0.001
  0
VERTEX
  8
0
 10
11.6508
 20
1.03771
 30
0.0
 40
0.001
 41
0.001
  0
VERTEX
  8
0
 10
11.6472
 20
1.02458
 30
0.0
 40
0.001
 41
0.001
  0
VERTEX
  8
0
 10
11.6376
 20
1.01025
 30
0.0
 40
0.001
 41
0.001
  0
VERTEX
  8
0
 10
11.6233
 20
1.0006
 30
0.0
 40
0.001
 41
0.001
  0
VERTEX
  8
0
 10
11.6101
 20
0.997017
 30
0.0
 40
0.001
 41
0.001
  0
VERTEX
  8
0
 10
11.6058
 20
0.997017
 30
0.0
 40
0.001
 41
0.001
  0
VERTEX
  8
0
 10
11.6014
 20
0.997017
 30
0.0
 40
0.001
 41
0.001
  0
VERTEX
  8
0
 10
11.5883
 20
1.0006
 30
0.0
 40
0.001
 41
0.001
  0
VERTEX
  8
0
 10
11.5739
 20
1.01025
 30
0.0
 40
0.001
 41
0.001
  0
VERTEX
  8
0
 10
11.5643
 20
1.02458
 30
0.0
 40
0.001
 41
0.001
  0
VERTEX
  8
0
 10
11.5608
 20
1.03771
 30
0.0
 40
0.001
 41
0.001
  0
VERTEX
  8
0
 10
11.5608
 20
1.04205
 30
0.0
 40
0.001
 41
0.001
  0
VERTEX
  8
0
 10
11.5608
 20
1.04644
 30
0.0
 40
0.001
 41
0.001
  0
VERTEX
  8
0
 10
11.5643
 20
1.05957
 30
0.0
 40
0.001
 41
0.001
  0
VERTEX
  8
0
 10
11.5739
 20
1.07389
 30
0.0
 40
0.001
 41
0.001
  0
VERTEX
  8
0
 10
11.5883
 20
1.0835
 30
0.0
 40
0.001
 41
0.001
  0
VERTEX
  8
0
 10
11.6014
 20
1.08702
 30
0.0
 40
0.001
 41
0.001
  0
VERTEX
  8
0
 10
11.6058
 20
1.08702
 30
0.0
 40
0.001
 41
0.001
  0
SEQEND
 8
0
  0
POLYLINE
  8
0
 62
     1
 66
     1
 10
0
 20
0
 30
0.0
 70
     1
 40
0.072
 41
0.072
  0
VERTEX
  8
0
 10
10.8858
 20
3.61208
 30
0.0
 40
0.001
 41
0.001
  0
VERTEX
  8
0
 10
10.895
 20
3.61208
 30
0.0
 40
0.001
 41
0.001
  0
VERTEX
  8
0
 10
10.9227
 20
3.60465
 30
0.0
 40
0.001
 41
0.001
  0
VERTEX
  8
0
 10
10.953
 20
3.58425
 30
0.0
 40
0.001
 41
0.001
  0
VERTEX
  8
0
 10
10.9733
 20
3.55404
 30
0.0
 40
0.001
 41
0.001
  0
VERTEX
  8
0
 10
10.9808
 20
3.52632
 30
0.0
 40
0.001
 41
0.001
  0
VERTEX
  8
0
 10
10.9808
 20
3.51704
 30
0.0
 40
0.001
 41
0.001
  0
VERTEX
  8
0
 10
10.9808
 20
3.50782
 30
0.0
 40
0.001
 41
0.001
  0
VERTEX
  8
0
 10
10.9733
 20
3.48008
 30
0.0
 40
0.001
 41
0.001
  0
VERTEX
  8
0
 10
10.953
 20
3.44993
 30
0.0
 40
0.001
 41
0.001
  0
VERTEX
  8
0
 10
10.9227
 20
3.42953
 30
0.0
 40
0.001
 41
0.001
  0
VERTEX
  8
0
 10
10.895
 20
3.42204
 30
0.0
 40
0.001
 41
0.001
  0
VERTEX
  8
0
 10
10.8858
 20
3.42204
 30
0.0
 40
0.001
 41
0.001
  0
VERTEX
  8
0
 10
10.8765
 20
3.42204
 30
0.0
 40
0.001
 41
0.001
  0
VERTEX
  8
0
 10
10.8488
 20
3.42953
 30
0.0
 40
0.001
 41
0.001
  0
VERTEX
  8
0
 10
10.8186
 20
3.44993
 30
0.0
 40
0.001
 41
0.001
  0
VERTEX
  8
0
 10
10.7982
 20
3.48008
 30
0.0
 40
0.001
 41
0.001
  0
VERTEX
  8
0
 10
10.7908
 20
3.50782
 30
0.0
 40
0.001
 41
0.001
  0
VERTEX
  8
0
 10
10.7908
 20
3.51704
 30
0.0
 40
0.001
 41
0.001
  0
VERTEX
  8
0
 10
10.7908
 20
3.52632
 30
0.0
 40
0.001
 41
0.001
  0
VERTEX
  8
0
 10
10.7982
 20
3.55404
 30
0.0
 40
0.001
 41
0.001
  0
VERTEX
  8
0
 10
10.8186
 20
3.58425
 30
0.0
 40
0.001
 41
0.001
  0
VERTEX
  8
0
 10
10.8488
 20
3.60465
 30
0.0
 40
0.001
 41
0.001
  0
VERTEX
  8
0
 10
10.8765
 20
3.61208
 30
0.0
 40
0.001
 41
0.001
  0
VERTEX
  8
0
 10
10.8858
 20
3.61208
 30
0.0
 40
0.001
 41
0.001
  0
SEQEND
 8
0
  0
POLYLINE
  8
0
 62
     1
 66
     1
 10
0
 20
0
 30
0.0
 70
     1
 40
0.072
 41
0.072
  0
VERTEX
  8
0
 10
0.103136
 20
5.264
 30
0.0
 40
0.001
 41
0.001
  0
VERTEX
  8
0
 10
0.103136
 20
0.513997
 30
0.0
 40
0.001
 41
0.001
  0
VERTEX
  8
0
 10
1.6091
 20
0.513997
 30
0.0
 40
0.001
 41
0.001
  0
VERTEX
  8
0
 10
1.6091
 20
0.631999
 30
0.0
 40
0.001
 41
0.001
  0
VERTEX
  8
0
 10
3.10314
 20
0.631999
 30
0.0
 40
0.001
 41
0.001
  0
VERTEX
  8
0
 10
3.10314
 20
0.513997
 30
0.0
 40
0.001
 41
0.001
  0
VERTEX
  8
0
 10
4.1091
 20
0.513997
 30
0.0
 40
0.001
 41
0.001
  0
VERTEX
  8
0
 10
4.1091
 20
0.631999
 30
0.0
 40
0.001
 41
0.001
  0
VERTEX
  8
0
 10
5.10314
 20
0.631999
 30
0.0
 40
0.001
 41
0.001
  0
VERTEX
  8
0
 10
5.10314
 20
0.513997
 30
0.0
 40
0.001
 41
0.001
  0
VERTEX
  8
0
 10
6.1091
 20
0.513997
 30
0.0
 40
0.001
 41
0.001
  0
VERTEX
  8
0
 10
6.1091
 20
0.631999
 30
0.0
 40
0.001
 41
0.001
  0
VERTEX
  8
0
 10
7.10314
 20
0.631999
 30
0.0
 40
0.001
 41
0.001
  0
VERTEX
  8
0
 10
7.10314
 20
0.513997
 30
0.0
 40
0.001
 41
0.001
  0
VERTEX
  8
0
 10
8.1091
 20
0.513997
 30
0.0
 40
0.001
 41
0.001
  0
VERTEX
  8
0
 10
8.1091
 20
0.631999
 30
0.0
 40
0.001
 41
0.001
  0
VERTEX
  8
0
 10
9.10314
 20
0.631999
 30
0.0
 40
0.001
 41
0.001
  0
VERTEX
  8
0
 10
9.10314
 20
0.513997
 30
0.0
 40
0.001
 41
0.001
  0
VERTEX
  8
0
 10
10.1091
 20
0.513997
 30
0.0
 40
0.001
 41
0.001
  0
VERTEX
  8
0
 10
10.1091
 20
0.631999
 30
0.0
 40
0.001
 41
0.001
  0
VERTEX
  8
0
 10
11.6031
 20
0.631999
 30
0.0
 40
0.001
 41
0.001
  0
VERTEX
  8
0
 10
11.6031
 20
0.513997
 30
0.0
 40
0.001
 41
0.001
  0
VERTEX
  8
0
 10
12.9911
 20
0.513997
 30
0.0
 40
0.001
 41
0.001
  0
VERTEX
  8
0
 10
12.9911
 20
6.51926
 30
0.0
 40
0.001
 41
0.001
  0
VERTEX
  8
0
 10
13.1091
 20
6.51926
 30
0.0
 40
0.001
 41
0.001
  0
VERTEX
  8
0
 10
13.1091
 20
6.52001
 30
0.0
 40
0.001
 41
0.001
  0
VERTEX
  8
0
 10
11.6031
 20
6.52001
 30
0.0
 40
0.001
 41
0.001
  0
VERTEX
  8
0
 10
11.6031
 20
6.40201
 30
0.0
 40
0.001
 41
0.001
  0
VERTEX
  8
0
 10
10.1091
 20
6.40201
 30
0.0
 40
0.001
 41
0.001
  0
VERTEX
  8
0
 10
10.1091
 20
6.52001
 30
0.0
 40
0.001
 41
0.001
  0
VERTEX
  8
0
 10
9.10314
 20
6.52001
 30
0.0
 40
0.001
 41
0.001
  0
VERTEX
  8
0
 10
9.10314
 20
6.40201
 30
0.0
 40
0.001
 41
0.001
  0
VERTEX
  8
0
 10
8.1091
 20
6.40201
 30
0.0
 40
0.001
 41
0.001
  0
VERTEX
  8
0
 10
8.1091
 20
6.52001
 30
0.0
 40
0.001
 41
0.001
  0
VERTEX
  8
0
 10
7.10314
 20
6.52001
 30
0.0
 40
0.001
 41
0.001
  0
VERTEX
  8
0
 10
7.10314
 20
6.40201
 30
0.0
 40
0.001
 41
0.001
  0
VERTEX
  8
0
 10
6.1091
 20
6.40201
 30
0.0
 40
0.001
 41
0.001
  0
VERTEX
  8
0
 10
6.1091
 20
6.52001
 30
0.0
 40
0.001
 41
0.001
  0
VERTEX
  8
0
 10
5.10314
 20
6.52001
 30
0.0
 40
0.001
 41
0.001
  0
VERTEX
  8
0
 10
5.10314
 20
6.40201
 30
0.0
 40
0.001
 41
0.001
  0
VERTEX
  8
0
 10
4.1091
 20
6.40201
 30
0.0
 40
0.001
 41
0.001
  0
VERTEX
  8
0
 10
4.1091
 20
6.52001
 30
0.0
 40
0.001
 41
0.001
  0
VERTEX
  8
0
 10
3.10314
 20
6.52001
 30
0.0
 40
0.001
 41
0.001
  0
VERTEX
  8
0
 10
3.10314
 20
6.40201
 30
0.0
 40
0.001
 41
0.001
  0
VERTEX
  8
0
 10
1.6091
 20
6.40201
 30
0.0
 40
0.001
 41
0.001
  0
VERTEX
  8
0
 10
1.6091
 20
6.52001
 30
0.0
 40
0.001
 41
0.001
  0
VERTEX
  8
0
 10
0.103136
 20
6.52001
 30
0.0
 40
0.001
 41
0.001
  0
VERTEX
  8
0
 10
0.103136
 20
5.264
 30
0.0
 40
0.001
 41
0.001
  0
SEQEND
 8
0
  0
POLYLINE
  8
0
 62
     1
 66
     1
 10
0
 20
0
 30
0.0
 70
     1
 40
0.072
 41
0.072
  0
VERTEX
  8
0
 10
10.8858
 20
5.34819
 30
0.0
 40
0.001
 41
0.001
  0
VERTEX
  8
0
 10
10.895
 20
5.34819
 30
0.0
 40
0.001
 41
0.001
  0
VERTEX
  8
0
 10
10.9227
 20
5.34076
 30
0.0
 40
0.001
 41
0.001
  0
VERTEX
  8
0
 10
10.953
 20
5.32036
 30
0.0
 40
0.001
 41
0.001
  0
VERTEX
  8
0
 10
10.9733
 20
5.29015
 30
0.0
 40
0.001
 41
0.001
  0
VERTEX
  8
0
 10
10.9808
 20
5.26243
 30
0.0
 40
0.001
 41
0.001
  0
VERTEX
  8
0
 10
10.9808
 20
5.25315
 30
0.0
 40
0.001
 41
0.001
  0
VERTEX
  8
0
 10
10.9808
 20
5.24393
 30
0.0
 40
0.001
 41
0.001
  0
VERTEX
  8
0
 10
10.9733
 20
5.21619
 30
0.0
 40
0.001
 41
0.001
  0
VERTEX
  8
0
 10
10.953
 20
5.18604
 30
0.0
 40
0.001
 41
0.001
  0
VERTEX
  8
0
 10
10.9227
 20
5.16564
 30
0.0
 40
0.001
 41
0.001
  0
VERTEX
  8
0
 10
10.895
 20
5.15815
 30
0.0
 40
0.001
 41
0.001
  0
VERTEX
  8
0
 10
10.8858
 20
5.15815
 30
0.0
 40
0.001
 41
0.001
  0
VERTEX
  8
0
 10
10.8765
 20
5.15815
 30
0.0
 40
0.001
 41
0.001
  0
VERTEX
  8
0
 10
10.8488
 20
5.16564
 30
0.0
 40
0.001
 41
0.001
  0
VERTEX
  8
0
 10
10.8186
 20
5.18604
 30
0.0
 40
0.001
 41
0.001
  0
VERTEX
  8
0
 10
10.7982
 20
5.21619
 30
0.0
 40
0.001
 41
0.001
  0
VERTEX
  8
0
 10
10.7908
 20
5.24393
 30
0.0
 40
0.001
 41
0.001
  0
VERTEX
  8
0
 10
10.7908
 20
5.25315
 30
0.0
 40
0.001
 41
0.001
  0
VERTEX
  8
0
 10
10.7908
 20
5.26243
 30
0.0
 40
0.001
 41
0.001
  0
VERTEX
  8
0
 10
10.7982
 20
5.29015
 30
0.0
 40
0.001
 41
0.001
  0
VERTEX
  8
0
 10
10.8186
 20
5.32036
 30
0.0
 40
0.001
 41
0.001
  0
VERTEX
  8
0
 10
10.8488
 20
5.34076
 30
0.0
 40
0.001
 41
0.001
  0
VERTEX
  8
0
 10
10.8765
 20
5.34819
 30
0.0
 40
0.001
 41
0.001
  0
VERTEX
  8
0
 10
10.8858
 20
5.34819
 30
0.0
 40
0.001
 41
0.001
  0
SEQEND
 8
0
  0
POLYLINE
  8
0
 62
     1
 66
     1
 10
0
 20
0
 30
0.0
 70
     1
 40
0.072
 41
0.072
  0
VERTEX
  8
0
 10
10.8858
 20
1.86208
 30
0.0
 40
0.001
 41
0.001
  0
VERTEX
  8
0
 10
10.895
 20
1.86208
 30
0.0
 40
0.001
 41
0.001
  0
VERTEX
  8
0
 10
10.9227
 20
1.85465
 30
0.0
 40
0.001
 41
0.001
  0
VERTEX
  8
0
 10
10.953
 20
1.83425
 30
0.0
 40
0.001
 41
0.001
  0
VERTEX
  8
0
 10
10.9733
 20
1.80404
 30
0.0
 40
0.001
 41
0.001
  0
VERTEX
  8
0
 10
10.9808
 20
1.77632
 30
0.0
 40
0.001
 41
0.001
  0
VERTEX
  8
0
 10
10.9808
 20
1.76704
 30
0.0
 40
0.001
 41
0.001
  0
VERTEX
  8
0
 10
10.9808
 20
1.75782
 30
0.0
 40
0.001
 41
0.001
  0
VERTEX
  8
0
 10
10.9733
 20
1.73008
 30
0.0
 40
0.001
 41
0.001
  0
VERTEX
  8
0
 10
10.953
 20
1.69993
 30
0.0
 40
0.001
 41
0.001
  0
VERTEX
  8
0
 10
10.9227
 20
1.67953
 30
0.0
 40
0.001
 41
0.001
  0
VERTEX
  8
0
 10
10.895
 20
1.67204
 30
0.0
 40
0.001
 41
0.001
  0
VERTEX
  8
0
 10
10.8858
 20
1.67204
 30
0.0
 40
0.001
 41
0.001
  0
VERTEX
  8
0
 10
10.8765
 20
1.67204
 30
0.0
 40
0.001
 41
0.001
  0
VERTEX
  8
0
 10
10.8488
 20
1.67953
 30
0.0
 40
0.001
 41
0.001
  0
VERTEX
  8
0
 10
10.8186
 20
1.69993
 30
0.0
 40
0.001
 41
0.001
  0
VERTEX
  8
0
 10
10.7982
 20
1.73008
 30
0.0
 40
0.001
 41
0.001
  0
VERTEX
  8
0
 10
10.7908
 20
1.75782
 30
0.0
 40
0.001
 41
0.001
  0
VERTEX
  8
0
 10
10.7908
 20
1.76704
 30
0.0
 40
0.001
 41
0.001
  0
VERTEX
  8
0
 10
10.7908
 20
1.77632
 30
0.0
 40
0.001
 41
0.001
  0
VERTEX
  8
0
 10
10.7982
 20
1.80404
 30
0.0
 40
0.001
 41
0.001
  0
VERTEX
  8
0
 10
10.8186
 20
1.83425
 30
0.0
 40
0.001
 41
0.001
  0
VERTEX
  8
0
 10
10.8488
 20
1.85465
 30
0.0
 40
0.001
 41
0.001
  0
VERTEX
  8
0
 10
10.8765
 20
1.86208
 30
0.0
 40
0.001
 41
0.001
  0
VERTEX
  8
0
 10
10.8858
 20
1.86208
 30
0.0
 40
0.001
 41
0.001
  0
SEQEND
 8
0
  0
ENDSEC
  0
EOF
