  0
SECTION
  2
HEADER
  9
$ACADVER
  1
AC1009
  9
$FILLMODE
 70
 0
  9
$SPLFRAME
 70
 1
  9
$EXTMIN
 10
0
 20
0
 30
0.0
  9
$EXTMAX
 10
41.6667
 20
41.6667
 30
0.0
  0
ENDSEC
  0
SECTION
  2
TABLES
  0
TABLE
  2
LAYER
 70
1
  0
LAYER
  2
0
 70
     0
 62
     7
  6
CONTINUOUS
  0
ENDTAB
  0
ENDSEC
  0
SECTION
  2
ENTITIES
  0
POLYLINE
  8
0
 62
     1
 66
     1
 10
0
 20
0
 30
0.0
 40
0.072
 41
0.072
  0
VERTEX
  8
0
 10
1.0383
 20
16.5489
 30
0.0
 40
0.001
 41
0.001
  0
VERTEX
  8
0
 10
1.0383
 20
14.8683
 30
0.0
 40
0.001
 41
0.001
  0
SEQEND
 8
0
  0
POLYLINE
  8
0
 62
     1
 66
     1
 10
0
 20
0
 30
0.0
 40
0.072
 41
0.072
  0
VERTEX
  8
0
 10
2.53782
 20
17.1957
 30
0.0
 40
0.001
 41
0.001
  0
VERTEX
  8
0
 10
2.53782
 20
14.2383
 30
0.0
 40
0.001
 41
0.001
  0
SEQEND
 8
0
  0
POLYLINE
  8
0
 62
     1
 66
     1
 10
0
 20
0
 30
0.0
 40
0.072
 41
0.072
  0
VERTEX
  8
0
 10
2.53782
 20
17.1957
 30
0.0
 40
0.001
 41
0.001
  0
VERTEX
  8
0
 10
1.0383
 20
17.1957
 30
0.0
 40
0.001
 41
0.001
  0
SEQEND
 8
0
  0
POLYLINE
  8
0
 62
     1
 66
     1
 10
0
 20
0
 30
0.0
 40
0.072
 41
0.072
  0
VERTEX
  8
0
 10
2.53782
 20
14.2383
 30
0.0
 40
0.001
 41
0.001
  0
VERTEX
  8
0
 10
1.0383
 20
14.2383
 30
0.0
 40
0.001
 41
0.001
  0
SEQEND
 8
0
  0
POLYLINE
  8
0
 62
     1
 66
     1
 10
0
 20
0
 30
0.0
 40
0.072
 41
0.072
  0
VERTEX
  8
0
 10
1.55518
 20
16.5489
 30
0.0
 40
0.001
 41
0.001
  0
VERTEX
  8
0
 10
1.55518
 20
16.7364
 30
0.0
 40
0.001
 41
0.001
  0
SEQEND
 8
0
  0
POLYLINE
  8
0
 62
     1
 66
     1
 10
0
 20
0
 30
0.0
 40
0.072
 41
0.072
  0
VERTEX
  8
0
 10
1.55518
 20
14.6808
 30
0.0
 40
0.001
 41
0.001
  0
VERTEX
  8
0
 10
1.55518
 20
14.8683
 30
0.0
 40
0.001
 41
0.001
  0
SEQEND
 8
0
  0
POLYLINE
  8
0
 62
     1
 66
     1
 10
0
 20
0
 30
0.0
 40
0.072
 41
0.072
  0
VERTEX
  8
0
 10
1.0383
 20
14.8683
 30
0.0
 40
0.001
 41
0.001
  0
VERTEX
  8
0
 10
1.55518
 20
14.8683
 30
0.0
 40
0.001
 41
0.001
  0
SEQEND
 8
0
  0
POLYLINE
  8
0
 62
     1
 66
     1
 10
0
 20
0
 30
0.0
 40
0.072
 41
0.072
  0
VERTEX
  8
0
 10
1.55518
 20
14.6808
 30
0.0
 40
0.001
 41
0.001
  0
VERTEX
  8
0
 10
1.0383
 20
14.6808
 30
0.0
 40
0.001
 41
0.001
  0
SEQEND
 8
0
  0
POLYLINE
  8
0
 62
     1
 66
     1
 10
0
 20
0
 30
0.0
 40
0.072
 41
0.072
  0
VERTEX
  8
0
 10
1.0383
 20
14.6808
 30
0.0
 40
0.001
 41
0.001
  0
VERTEX
  8
0
 10
1.0383
 20
14.2383
 30
0.0
 40
0.001
 41
0.001
  0
SEQEND
 8
0
  0
POLYLINE
  8
0
 62
     1
 66
     1
 10
0
 20
0
 30
0.0
 40
0.072
 41
0.072
  0
VERTEX
  8
0
 10
1.0383
 20
16.5489
 30
0.0
 40
0.001
 41
0.001
  0
VERTEX
  8
0
 10
1.55518
 20
16.5489
 30
0.0
 40
0.001
 41
0.001
  0
SEQEND
 8
0
  0
POLYLINE
  8
0
 62
     1
 66
     1
 10
0
 20
0
 30
0.0
 40
0.072
 41
0.072
  0
VERTEX
  8
0
 10
1.55518
 20
16.7364
 30
0.0
 40
0.001
 41
0.001
  0
VERTEX
  8
0
 10
1.0383
 20
16.7364
 30
0.0
 40
0.001
 41
0.001
  0
SEQEND
 8
0
  0
POLYLINE
  8
0
 62
     1
 66
     1
 10
0
 20
0
 30
0.0
 40
0.072
 41
0.072
  0
VERTEX
  8
0
 10
1.0383
 20
16.7364
 30
0.0
 40
0.001
 41
0.001
  0
VERTEX
  8
0
 10
1.0383
 20
17.1957
 30
0.0
 40
0.001
 41
0.001
  0
SEQEND
 8
0
  0
ENDSEC
  0
EOF
