  0
SECTION
  2
HEADER
  9
$ACADVER
  1
AC1009
  9
$FILLMODE
 70
 0
  9
$SPLFRAME
 70
 1
  9
$EXTMIN
 10
0
 20
0
 30
0.0
  9
$EXTMAX
 10
41.6667
 20
41.6667
 30
0.0
  0
ENDSEC
  0
SECTION
  2
TABLES
  0
TABLE
  2
LAYER
 70
1
  0
LAYER
  2
0
 70
     0
 62
     7
  6
CONTINUOUS
  0
ENDTAB
  0
ENDSEC
  0
SECTION
  2
ENTITIES
  0
POLYLINE
  8
0
 62
     1
 66
     1
 10
0
 20
0
 30
0.0
 70
     1
 40
0.072
 41
0.072
  0
VERTEX
  8
0
 10
0.229167
 20
17.7222
 30
0.0
 40
0.001
 41
0.001
  0
VERTEX
  8
0
 10
3.24306
 20
17.7222
 30
0.0
 40
0.001
 41
0.001
  0
VERTEX
  8
0
 10
3.24306
 20
16.1944
 30
0.0
 40
0.001
 41
0.001
  0
VERTEX
  8
0
 10
0.229167
 20
16.1944
 30
0.0
 40
0.001
 41
0.001
  0
VERTEX
  8
0
 10
0.229167
 20
17.7222
 30
0.0
 40
0.001
 41
0.001
  0
SEQEND
 8
0
  0
POLYLINE
  8
0
 62
     1
 66
     1
 10
0
 20
0
 30
0.0
 70
     1
 40
0.072
 41
0.072
  0
VERTEX
  8
0
 10
1.05127
 20
17.4863
 30
0.0
 40
0.001
 41
0.001
  0
VERTEX
  8
0
 10
1.05127
 20
17.4807
 30
0.0
 40
0.001
 41
0.001
  0
VERTEX
  8
0
 10
1.04205
 20
17.464
 30
0.0
 40
0.001
 41
0.001
  0
VERTEX
  8
0
 10
1.02544
 20
17.4549
 30
0.0
 40
0.001
 41
0.001
  0
VERTEX
  8
0
 10
1.01991
 20
17.4549
 30
0.0
 40
0.001
 41
0.001
  0
VERTEX
  8
0
 10
1.01432
 20
17.4549
 30
0.0
 40
0.001
 41
0.001
  0
VERTEX
  8
0
 10
0.997721
 20
17.464
 30
0.0
 40
0.001
 41
0.001
  0
VERTEX
  8
0
 10
0.988553
 20
17.4807
 30
0.0
 40
0.001
 41
0.001
  0
VERTEX
  8
0
 10
0.988553
 20
17.4863
 30
0.0
 40
0.001
 41
0.001
  0
VERTEX
  8
0
 10
0.988553
 20
17.4918
 30
0.0
 40
0.001
 41
0.001
  0
VERTEX
  8
0
 10
0.997721
 20
17.5085
 30
0.0
 40
0.001
 41
0.001
  0
VERTEX
  8
0
 10
1.01432
 20
17.5176
 30
0.0
 40
0.001
 41
0.001
  0
VERTEX
  8
0
 10
1.01991
 20
17.5176
 30
0.0
 40
0.001
 41
0.001
  0
VERTEX
  8
0
 10
1.02544
 20
17.5176
 30
0.0
 40
0.001
 41
0.001
  0
VERTEX
  8
0
 10
1.04205
 20
17.5085
 30
0.0
 40
0.001
 41
0.001
  0
VERTEX
  8
0
 10
1.05127
 20
17.4918
 30
0.0
 40
0.001
 41
0.001
  0
VERTEX
  8
0
 10
1.05127
 20
17.4863
 30
0.0
 40
0.001
 41
0.001
  0
SEQEND
 8
0
  0
POLYLINE
  8
0
 62
     1
 66
     1
 10
0
 20
0
 30
0.0
 70
     1
 40
0.072
 41
0.072
  0
VERTEX
  8
0
 10
1.05127
 20
17.191
 30
0.0
 40
0.001
 41
0.001
  0
VERTEX
  8
0
 10
1.05127
 20
17.1854
 30
0.0
 40
0.001
 41
0.001
  0
VERTEX
  8
0
 10
1.04205
 20
17.1689
 30
0.0
 40
0.001
 41
0.001
  0
VERTEX
  8
0
 10
1.02544
 20
17.1596
 30
0.0
 40
0.001
 41
0.001
  0
VERTEX
  8
0
 10
1.01991
 20
17.1596
 30
0.0
 40
0.001
 41
0.001
  0
VERTEX
  8
0
 10
1.01432
 20
17.1596
 30
0.0
 40
0.001
 41
0.001
  0
VERTEX
  8
0
 10
0.997721
 20
17.1689
 30
0.0
 40
0.001
 41
0.001
  0
VERTEX
  8
0
 10
0.988553
 20
17.1854
 30
0.0
 40
0.001
 41
0.001
  0
VERTEX
  8
0
 10
0.988553
 20
17.191
 30
0.0
 40
0.001
 41
0.001
  0
VERTEX
  8
0
 10
0.988553
 20
17.1965
 30
0.0
 40
0.001
 41
0.001
  0
VERTEX
  8
0
 10
0.997721
 20
17.2132
 30
0.0
 40
0.001
 41
0.001
  0
VERTEX
  8
0
 10
1.01432
 20
17.2224
 30
0.0
 40
0.001
 41
0.001
  0
VERTEX
  8
0
 10
1.01991
 20
17.2224
 30
0.0
 40
0.001
 41
0.001
  0
VERTEX
  8
0
 10
1.02544
 20
17.2224
 30
0.0
 40
0.001
 41
0.001
  0
VERTEX
  8
0
 10
1.04205
 20
17.2132
 30
0.0
 40
0.001
 41
0.001
  0
VERTEX
  8
0
 10
1.05127
 20
17.1965
 30
0.0
 40
0.001
 41
0.001
  0
VERTEX
  8
0
 10
1.05127
 20
17.191
 30
0.0
 40
0.001
 41
0.001
  0
SEQEND
 8
0
  0
POLYLINE
  8
0
 62
     1
 66
     1
 10
0
 20
0
 30
0.0
 70
     1
 40
0.072
 41
0.072
  0
VERTEX
  8
0
 10
1.05127
 20
16.6668
 30
0.0
 40
0.001
 41
0.001
  0
VERTEX
  8
0
 10
1.05127
 20
16.6612
 30
0.0
 40
0.001
 41
0.001
  0
VERTEX
  8
0
 10
1.04205
 20
16.6446
 30
0.0
 40
0.001
 41
0.001
  0
VERTEX
  8
0
 10
1.02544
 20
16.6354
 30
0.0
 40
0.001
 41
0.001
  0
VERTEX
  8
0
 10
1.01991
 20
16.6354
 30
0.0
 40
0.001
 41
0.001
  0
VERTEX
  8
0
 10
1.01432
 20
16.6354
 30
0.0
 40
0.001
 41
0.001
  0
VERTEX
  8
0
 10
0.997721
 20
16.6446
 30
0.0
 40
0.001
 41
0.001
  0
VERTEX
  8
0
 10
0.988553
 20
16.6612
 30
0.0
 40
0.001
 41
0.001
  0
VERTEX
  8
0
 10
0.988553
 20
16.6668
 30
0.0
 40
0.001
 41
0.001
  0
VERTEX
  8
0
 10
0.988553
 20
16.6724
 30
0.0
 40
0.001
 41
0.001
  0
VERTEX
  8
0
 10
0.997721
 20
16.689
 30
0.0
 40
0.001
 41
0.001
  0
VERTEX
  8
0
 10
1.01432
 20
16.6982
 30
0.0
 40
0.001
 41
0.001
  0
VERTEX
  8
0
 10
1.01991
 20
16.6982
 30
0.0
 40
0.001
 41
0.001
  0
VERTEX
  8
0
 10
1.02544
 20
16.6982
 30
0.0
 40
0.001
 41
0.001
  0
VERTEX
  8
0
 10
1.04205
 20
16.689
 30
0.0
 40
0.001
 41
0.001
  0
VERTEX
  8
0
 10
1.05127
 20
16.6724
 30
0.0
 40
0.001
 41
0.001
  0
VERTEX
  8
0
 10
1.05127
 20
16.6668
 30
0.0
 40
0.001
 41
0.001
  0
SEQEND
 8
0
  0
POLYLINE
  8
0
 62
     1
 66
     1
 10
0
 20
0
 30
0.0
 70
     1
 40
0.072
 41
0.072
  0
VERTEX
  8
0
 10
1.05127
 20
16.3715
 30
0.0
 40
0.001
 41
0.001
  0
VERTEX
  8
0
 10
1.05127
 20
16.366
 30
0.0
 40
0.001
 41
0.001
  0
VERTEX
  8
0
 10
1.04205
 20
16.3494
 30
0.0
 40
0.001
 41
0.001
  0
VERTEX
  8
0
 10
1.02544
 20
16.3401
 30
0.0
 40
0.001
 41
0.001
  0
VERTEX
  8
0
 10
1.01991
 20
16.3401
 30
0.0
 40
0.001
 41
0.001
  0
VERTEX
  8
0
 10
1.01432
 20
16.3401
 30
0.0
 40
0.001
 41
0.001
  0
VERTEX
  8
0
 10
0.997721
 20
16.3494
 30
0.0
 40
0.001
 41
0.001
  0
VERTEX
  8
0
 10
0.988553
 20
16.366
 30
0.0
 40
0.001
 41
0.001
  0
VERTEX
  8
0
 10
0.988553
 20
16.3715
 30
0.0
 40
0.001
 41
0.001
  0
VERTEX
  8
0
 10
0.988553
 20
16.3771
 30
0.0
 40
0.001
 41
0.001
  0
VERTEX
  8
0
 10
0.997721
 20
16.3937
 30
0.0
 40
0.001
 41
0.001
  0
VERTEX
  8
0
 10
1.01432
 20
16.4029
 30
0.0
 40
0.001
 41
0.001
  0
VERTEX
  8
0
 10
1.01991
 20
16.4029
 30
0.0
 40
0.001
 41
0.001
  0
VERTEX
  8
0
 10
1.02544
 20
16.4029
 30
0.0
 40
0.001
 41
0.001
  0
VERTEX
  8
0
 10
1.04205
 20
16.3937
 30
0.0
 40
0.001
 41
0.001
  0
VERTEX
  8
0
 10
1.05127
 20
16.3771
 30
0.0
 40
0.001
 41
0.001
  0
VERTEX
  8
0
 10
1.05127
 20
16.3715
 30
0.0
 40
0.001
 41
0.001
  0
SEQEND
 8
0
  0
ENDSEC
  0
EOF
