  0
SECTION
  2
HEADER
  9
$ACADVER
  1
AC1009
  9
$FILLMODE
 70
 0
  9
$SPLFRAME
 70
 1
  9
$EXTMIN
 10
0
 20
0
 30
0.0
  9
$EXTMAX
 10
41.6667
 20
41.6667
 30
0.0
  0
ENDSEC
  0
SECTION
  2
TABLES
  0
TABLE
  2
LAYER
 70
1
  0
LAYER
  2
0
 70
     0
 62
     7
  6
CONTINUOUS
  0
ENDTAB
  0
ENDSEC
  0
SECTION
  2
ENTITIES
  0
POLYLINE
  8
0
 62
     1
 66
     1
 10
0
 20
0
 30
0.0
 70
     1
 40
0.072
 41
0.072
  0
VERTEX
  8
0
 10
9.65099
 20
0.0138889
 30
0.0
 40
0.001
 41
0.001
  0
VERTEX
  8
0
 10
0.131131
 20
0.0139432
 30
0.0
 40
0.001
 41
0.001
  0
VERTEX
  8
0
 10
0.131131
 20
13.0199
 30
0.0
 40
0.001
 41
0.001
  0
VERTEX
  8
0
 10
9.65099
 20
13.0199
 30
0.0
 40
0.001
 41
0.001
  0
VERTEX
  8
0
 10
9.65099
 20
0.0138889
 30
0.0
 40
0.001
 41
0.001
  0
SEQEND
 8
0
  0
POLYLINE
  8
0
 62
     1
 66
     1
 10
0
 20
0
 30
0.0
 70
     1
 40
0.072
 41
0.072
  0
VERTEX
  8
0
 10
0.117025
 20
17.0199
 30
0.0
 40
0.001
 41
0.001
  0
VERTEX
  8
0
 10
0.117025
 20
13.1379
 30
0.0
 40
0.001
 41
0.001
  0
VERTEX
  8
0
 10
1.61703
 20
13.1379
 30
0.0
 40
0.001
 41
0.001
  0
VERTEX
  8
0
 10
1.61703
 20
13.0199
 30
0.0
 40
0.001
 41
0.001
  0
VERTEX
  8
0
 10
3.12299
 20
13.0199
 30
0.0
 40
0.001
 41
0.001
  0
VERTEX
  8
0
 10
3.12299
 20
13.1379
 30
0.0
 40
0.001
 41
0.001
  0
VERTEX
  8
0
 10
4.11703
 20
13.1379
 30
0.0
 40
0.001
 41
0.001
  0
VERTEX
  8
0
 10
4.11703
 20
13.0199
 30
0.0
 40
0.001
 41
0.001
  0
VERTEX
  8
0
 10
5.12299
 20
13.0199
 30
0.0
 40
0.001
 41
0.001
  0
VERTEX
  8
0
 10
5.12299
 20
13.1379
 30
0.0
 40
0.001
 41
0.001
  0
VERTEX
  8
0
 10
6.11703
 20
13.1379
 30
0.0
 40
0.001
 41
0.001
  0
VERTEX
  8
0
 10
6.11703
 20
13.0199
 30
0.0
 40
0.001
 41
0.001
  0
VERTEX
  8
0
 10
7.12299
 20
13.0199
 30
0.0
 40
0.001
 41
0.001
  0
VERTEX
  8
0
 10
7.12299
 20
13.1379
 30
0.0
 40
0.001
 41
0.001
  0
VERTEX
  8
0
 10
8.11703
 20
13.1379
 30
0.0
 40
0.001
 41
0.001
  0
VERTEX
  8
0
 10
8.11703
 20
13.0199
 30
0.0
 40
0.001
 41
0.001
  0
VERTEX
  8
0
 10
9.12299
 20
13.0199
 30
0.0
 40
0.001
 41
0.001
  0
VERTEX
  8
0
 10
9.12299
 20
13.1379
 30
0.0
 40
0.001
 41
0.001
  0
VERTEX
  8
0
 10
10.117
 20
13.1379
 30
0.0
 40
0.001
 41
0.001
  0
VERTEX
  8
0
 10
10.117
 20
13.0199
 30
0.0
 40
0.001
 41
0.001
  0
VERTEX
  8
0
 10
11.623
 20
13.0199
 30
0.0
 40
0.001
 41
0.001
  0
VERTEX
  8
0
 10
11.623
 20
13.1379
 30
0.0
 40
0.001
 41
0.001
  0
VERTEX
  8
0
 10
13.123
 20
13.1379
 30
0.0
 40
0.001
 41
0.001
  0
VERTEX
  8
0
 10
13.123
 20
14.026
 30
0.0
 40
0.001
 41
0.001
  0
VERTEX
  8
0
 10
13.005
 20
14.026
 30
0.0
 40
0.001
 41
0.001
  0
VERTEX
  8
0
 10
13.005
 20
15.0199
 30
0.0
 40
0.001
 41
0.001
  0
VERTEX
  8
0
 10
13.123
 20
15.0199
 30
0.0
 40
0.001
 41
0.001
  0
VERTEX
  8
0
 10
13.123
 20
16.026
 30
0.0
 40
0.001
 41
0.001
  0
VERTEX
  8
0
 10
13.005
 20
16.026
 30
0.0
 40
0.001
 41
0.001
  0
VERTEX
  8
0
 10
13.005
 20
17.0199
 30
0.0
 40
0.001
 41
0.001
  0
VERTEX
  8
0
 10
13.123
 20
17.0199
 30
0.0
 40
0.001
 41
0.001
  0
VERTEX
  8
0
 10
13.123
 20
17.9079
 30
0.0
 40
0.001
 41
0.001
  0
VERTEX
  8
0
 10
0.117025
 20
17.9079
 30
0.0
 40
0.001
 41
0.001
  0
VERTEX
  8
0
 10
0.117025
 20
17.0199
 30
0.0
 40
0.001
 41
0.001
  0
SEQEND
 8
0
  0
POLYLINE
  8
0
 62
     1
 66
     1
 10
0
 20
0
 30
0.0
 70
     1
 40
0.072
 41
0.072
  0
VERTEX
  8
0
 10
13.3177
 20
13.9079
 30
0.0
 40
0.001
 41
0.001
  0
VERTEX
  8
0
 10
13.3177
 20
17.79
 30
0.0
 40
0.001
 41
0.001
  0
VERTEX
  8
0
 10
14.8176
 20
17.79
 30
0.0
 40
0.001
 41
0.001
  0
VERTEX
  8
0
 10
14.8176
 20
17.9079
 30
0.0
 40
0.001
 41
0.001
  0
VERTEX
  8
0
 10
16.3236
 20
17.9079
 30
0.0
 40
0.001
 41
0.001
  0
VERTEX
  8
0
 10
16.3236
 20
17.79
 30
0.0
 40
0.001
 41
0.001
  0
VERTEX
  8
0
 10
17.3176
 20
17.79
 30
0.0
 40
0.001
 41
0.001
  0
VERTEX
  8
0
 10
17.3176
 20
17.9079
 30
0.0
 40
0.001
 41
0.001
  0
VERTEX
  8
0
 10
18.3236
 20
17.9079
 30
0.0
 40
0.001
 41
0.001
  0
VERTEX
  8
0
 10
18.3236
 20
17.79
 30
0.0
 40
0.001
 41
0.001
  0
VERTEX
  8
0
 10
19.3176
 20
17.79
 30
0.0
 40
0.001
 41
0.001
  0
VERTEX
  8
0
 10
19.3176
 20
17.9079
 30
0.0
 40
0.001
 41
0.001
  0
VERTEX
  8
0
 10
20.3236
 20
17.9079
 30
0.0
 40
0.001
 41
0.001
  0
VERTEX
  8
0
 10
20.3236
 20
17.79
 30
0.0
 40
0.001
 41
0.001
  0
VERTEX
  8
0
 10
21.3176
 20
17.79
 30
0.0
 40
0.001
 41
0.001
  0
VERTEX
  8
0
 10
21.3176
 20
17.9079
 30
0.0
 40
0.001
 41
0.001
  0
VERTEX
  8
0
 10
22.3236
 20
17.9079
 30
0.0
 40
0.001
 41
0.001
  0
VERTEX
  8
0
 10
22.3236
 20
17.79
 30
0.0
 40
0.001
 41
0.001
  0
VERTEX
  8
0
 10
23.3176
 20
17.79
 30
0.0
 40
0.001
 41
0.001
  0
VERTEX
  8
0
 10
23.3176
 20
17.9079
 30
0.0
 40
0.001
 41
0.001
  0
VERTEX
  8
0
 10
24.8236
 20
17.9079
 30
0.0
 40
0.001
 41
0.001
  0
VERTEX
  8
0
 10
24.8236
 20
17.79
 30
0.0
 40
0.001
 41
0.001
  0
VERTEX
  8
0
 10
26.3236
 20
17.79
 30
0.0
 40
0.001
 41
0.001
  0
VERTEX
  8
0
 10
26.3236
 20
16.9019
 30
0.0
 40
0.001
 41
0.001
  0
VERTEX
  8
0
 10
26.2056
 20
16.9019
 30
0.0
 40
0.001
 41
0.001
  0
VERTEX
  8
0
 10
26.2056
 20
15.9079
 30
0.0
 40
0.001
 41
0.001
  0
VERTEX
  8
0
 10
26.3236
 20
15.9079
 30
0.0
 40
0.001
 41
0.001
  0
VERTEX
  8
0
 10
26.3236
 20
14.9019
 30
0.0
 40
0.001
 41
0.001
  0
VERTEX
  8
0
 10
26.2056
 20
14.9019
 30
0.0
 40
0.001
 41
0.001
  0
VERTEX
  8
0
 10
26.2056
 20
13.9079
 30
0.0
 40
0.001
 41
0.001
  0
VERTEX
  8
0
 10
26.3236
 20
13.9079
 30
0.0
 40
0.001
 41
0.001
  0
VERTEX
  8
0
 10
26.3236
 20
13.0199
 30
0.0
 40
0.001
 41
0.001
  0
VERTEX
  8
0
 10
13.3177
 20
13.0199
 30
0.0
 40
0.001
 41
0.001
  0
VERTEX
  8
0
 10
13.3177
 20
13.9079
 30
0.0
 40
0.001
 41
0.001
  0
SEQEND
 8
0
  0
POLYLINE
  8
0
 62
     1
 66
     1
 10
0
 20
0
 30
0.0
 70
     1
 40
0.072
 41
0.072
  0
VERTEX
  8
0
 10
15.1581
 20
1.51719
 30
0.0
 40
0.001
 41
0.001
  0
VERTEX
  8
0
 10
15.1581
 20
1.49203
 30
0.0
 40
0.001
 41
0.001
  0
VERTEX
  8
0
 10
15.1478
 20
1.41644
 30
0.0
 40
0.001
 41
0.001
  0
VERTEX
  8
0
 10
15.1186
 20
1.32259
 30
0.0
 40
0.001
 41
0.001
  0
VERTEX
  8
0
 10
15.0726
 20
1.23768
 30
0.0
 40
0.001
 41
0.001
  0
VERTEX
  8
0
 10
15.0115
 20
1.16368
 30
0.0
 40
0.001
 41
0.001
  0
VERTEX
  8
0
 10
14.9375
 20
1.10259
 30
0.0
 40
0.001
 41
0.001
  0
VERTEX
  8
0
 10
14.8526
 20
1.05653
 30
0.0
 40
0.001
 41
0.001
  0
VERTEX
  8
0
 10
14.7588
 20
1.0274
 30
0.0
 40
0.001
 41
0.001
  0
VERTEX
  8
0
 10
14.6832
 20
1.0172
 30
0.0
 40
0.001
 41
0.001
  0
VERTEX
  8
0
 10
14.6581
 20
1.0172
 30
0.0
 40
0.001
 41
0.001
  0
VERTEX
  8
0
 10
14.6328
 20
1.0172
 30
0.0
 40
0.001
 41
0.001
  0
VERTEX
  8
0
 10
14.5572
 20
1.0274
 30
0.0
 40
0.001
 41
0.001
  0
VERTEX
  8
0
 10
14.4633
 20
1.05653
 30
0.0
 40
0.001
 41
0.001
  0
VERTEX
  8
0
 10
14.3785
 20
1.10259
 30
0.0
 40
0.001
 41
0.001
  0
VERTEX
  8
0
 10
14.3044
 20
1.16368
 30
0.0
 40
0.001
 41
0.001
  0
VERTEX
  8
0
 10
14.2433
 20
1.23768
 30
0.0
 40
0.001
 41
0.001
  0
VERTEX
  8
0
 10
14.1972
 20
1.32259
 30
0.0
 40
0.001
 41
0.001
  0
VERTEX
  8
0
 10
14.1682
 20
1.41644
 30
0.0
 40
0.001
 41
0.001
  0
VERTEX
  8
0
 10
14.1581
 20
1.49203
 30
0.0
 40
0.001
 41
0.001
  0
VERTEX
  8
0
 10
14.1581
 20
1.51719
 30
0.0
 40
0.001
 41
0.001
  0
VERTEX
  8
0
 10
14.1581
 20
1.54243
 30
0.0
 40
0.001
 41
0.001
  0
VERTEX
  8
0
 10
14.1682
 20
1.618
 30
0.0
 40
0.001
 41
0.001
  0
VERTEX
  8
0
 10
14.1972
 20
1.71186
 30
0.0
 40
0.001
 41
0.001
  0
VERTEX
  8
0
 10
14.2433
 20
1.79676
 30
0.0
 40
0.001
 41
0.001
  0
VERTEX
  8
0
 10
14.3044
 20
1.87076
 30
0.0
 40
0.001
 41
0.001
  0
VERTEX
  8
0
 10
14.3785
 20
1.93186
 30
0.0
 40
0.001
 41
0.001
  0
VERTEX
  8
0
 10
14.4633
 20
1.97792
 30
0.0
 40
0.001
 41
0.001
  0
VERTEX
  8
0
 10
14.5572
 20
2.00706
 30
0.0
 40
0.001
 41
0.001
  0
VERTEX
  8
0
 10
14.6328
 20
2.01719
 30
0.0
 40
0.001
 41
0.001
  0
VERTEX
  8
0
 10
14.6581
 20
2.01719
 30
0.0
 40
0.001
 41
0.001
  0
VERTEX
  8
0
 10
14.6832
 20
2.01719
 30
0.0
 40
0.001
 41
0.001
  0
VERTEX
  8
0
 10
14.7588
 20
2.00706
 30
0.0
 40
0.001
 41
0.001
  0
VERTEX
  8
0
 10
14.8526
 20
1.97792
 30
0.0
 40
0.001
 41
0.001
  0
VERTEX
  8
0
 10
14.9375
 20
1.93186
 30
0.0
 40
0.001
 41
0.001
  0
VERTEX
  8
0
 10
15.0115
 20
1.87076
 30
0.0
 40
0.001
 41
0.001
  0
VERTEX
  8
0
 10
15.0726
 20
1.79676
 30
0.0
 40
0.001
 41
0.001
  0
VERTEX
  8
0
 10
15.1186
 20
1.71186
 30
0.0
 40
0.001
 41
0.001
  0
VERTEX
  8
0
 10
15.1478
 20
1.618
 30
0.0
 40
0.001
 41
0.001
  0
VERTEX
  8
0
 10
15.1581
 20
1.54243
 30
0.0
 40
0.001
 41
0.001
  0
VERTEX
  8
0
 10
15.1581
 20
1.51719
 30
0.0
 40
0.001
 41
0.001
  0
SEQEND
 8
0
  0
POLYLINE
  8
0
 62
     1
 66
     1
 10
0
 20
0
 30
0.0
 70
     1
 40
0.072
 41
0.072
  0
VERTEX
  8
0
 10
15.4279
 20
1.51719
 30
0.0
 40
0.001
 41
0.001
  0
VERTEX
  8
0
 10
15.4279
 20
1.51286
 30
0.0
 40
0.001
 41
0.001
  0
VERTEX
  8
0
 10
15.4243
 20
1.49972
 30
0.0
 40
0.001
 41
0.001
  0
VERTEX
  8
0
 10
15.4147
 20
1.4854
 30
0.0
 40
0.001
 41
0.001
  0
VERTEX
  8
0
 10
15.4004
 20
1.47581
 30
0.0
 40
0.001
 41
0.001
  0
VERTEX
  8
0
 10
15.3872
 20
1.47222
 30
0.0
 40
0.001
 41
0.001
  0
VERTEX
  8
0
 10
15.3829
 20
1.47222
 30
0.0
 40
0.001
 41
0.001
  0
VERTEX
  8
0
 10
15.3785
 20
1.47222
 30
0.0
 40
0.001
 41
0.001
  0
VERTEX
  8
0
 10
15.3654
 20
1.47581
 30
0.0
 40
0.001
 41
0.001
  0
VERTEX
  8
0
 10
15.3511
 20
1.4854
 30
0.0
 40
0.001
 41
0.001
  0
VERTEX
  8
0
 10
15.3415
 20
1.49972
 30
0.0
 40
0.001
 41
0.001
  0
VERTEX
  8
0
 10
15.3379
 20
1.51286
 30
0.0
 40
0.001
 41
0.001
  0
VERTEX
  8
0
 10
15.3379
 20
1.51719
 30
0.0
 40
0.001
 41
0.001
  0
VERTEX
  8
0
 10
15.3379
 20
1.5216
 30
0.0
 40
0.001
 41
0.001
  0
VERTEX
  8
0
 10
15.3415
 20
1.53472
 30
0.0
 40
0.001
 41
0.001
  0
VERTEX
  8
0
 10
15.3511
 20
1.54904
 30
0.0
 40
0.001
 41
0.001
  0
VERTEX
  8
0
 10
15.3654
 20
1.55871
 30
0.0
 40
0.001
 41
0.001
  0
VERTEX
  8
0
 10
15.3785
 20
1.56222
 30
0.0
 40
0.001
 41
0.001
  0
VERTEX
  8
0
 10
15.3829
 20
1.56222
 30
0.0
 40
0.001
 41
0.001
  0
VERTEX
  8
0
 10
15.3872
 20
1.56222
 30
0.0
 40
0.001
 41
0.001
  0
VERTEX
  8
0
 10
15.4004
 20
1.55871
 30
0.0
 40
0.001
 41
0.001
  0
VERTEX
  8
0
 10
15.4147
 20
1.54904
 30
0.0
 40
0.001
 41
0.001
  0
VERTEX
  8
0
 10
15.4243
 20
1.53472
 30
0.0
 40
0.001
 41
0.001
  0
VERTEX
  8
0
 10
15.4279
 20
1.5216
 30
0.0
 40
0.001
 41
0.001
  0
VERTEX
  8
0
 10
15.4279
 20
1.51719
 30
0.0
 40
0.001
 41
0.001
  0
SEQEND
 8
0
  0
POLYLINE
  8
0
 62
     1
 66
     1
 10
0
 20
0
 30
0.0
 70
     1
 40
0.072
 41
0.072
  0
VERTEX
  8
0
 10
13.9779
 20
1.51719
 30
0.0
 40
0.001
 41
0.001
  0
VERTEX
  8
0
 10
13.9779
 20
1.51286
 30
0.0
 40
0.001
 41
0.001
  0
VERTEX
  8
0
 10
13.9743
 20
1.49972
 30
0.0
 40
0.001
 41
0.001
  0
VERTEX
  8
0
 10
13.9647
 20
1.4854
 30
0.0
 40
0.001
 41
0.001
  0
VERTEX
  8
0
 10
13.9504
 20
1.47581
 30
0.0
 40
0.001
 41
0.001
  0
VERTEX
  8
0
 10
13.9372
 20
1.47222
 30
0.0
 40
0.001
 41
0.001
  0
VERTEX
  8
0
 10
13.9329
 20
1.47222
 30
0.0
 40
0.001
 41
0.001
  0
VERTEX
  8
0
 10
13.9286
 20
1.47222
 30
0.0
 40
0.001
 41
0.001
  0
VERTEX
  8
0
 10
13.9154
 20
1.47581
 30
0.0
 40
0.001
 41
0.001
  0
VERTEX
  8
0
 10
13.9011
 20
1.4854
 30
0.0
 40
0.001
 41
0.001
  0
VERTEX
  8
0
 10
13.8914
 20
1.49972
 30
0.0
 40
0.001
 41
0.001
  0
VERTEX
  8
0
 10
13.8879
 20
1.51286
 30
0.0
 40
0.001
 41
0.001
  0
VERTEX
  8
0
 10
13.8879
 20
1.51719
 30
0.0
 40
0.001
 41
0.001
  0
VERTEX
  8
0
 10
13.8879
 20
1.5216
 30
0.0
 40
0.001
 41
0.001
  0
VERTEX
  8
0
 10
13.8914
 20
1.53472
 30
0.0
 40
0.001
 41
0.001
  0
VERTEX
  8
0
 10
13.9011
 20
1.54904
 30
0.0
 40
0.001
 41
0.001
  0
VERTEX
  8
0
 10
13.9154
 20
1.55871
 30
0.0
 40
0.001
 41
0.001
  0
VERTEX
  8
0
 10
13.9286
 20
1.56222
 30
0.0
 40
0.001
 41
0.001
  0
VERTEX
  8
0
 10
13.9329
 20
1.56222
 30
0.0
 40
0.001
 41
0.001
  0
VERTEX
  8
0
 10
13.9372
 20
1.56222
 30
0.0
 40
0.001
 41
0.001
  0
VERTEX
  8
0
 10
13.9504
 20
1.55871
 30
0.0
 40
0.001
 41
0.001
  0
VERTEX
  8
0
 10
13.9647
 20
1.54904
 30
0.0
 40
0.001
 41
0.001
  0
VERTEX
  8
0
 10
13.9743
 20
1.53472
 30
0.0
 40
0.001
 41
0.001
  0
VERTEX
  8
0
 10
13.9779
 20
1.5216
 30
0.0
 40
0.001
 41
0.001
  0
VERTEX
  8
0
 10
13.9779
 20
1.51719
 30
0.0
 40
0.001
 41
0.001
  0
SEQEND
 8
0
  0
POLYLINE
  8
0
 62
     1
 66
     1
 10
0
 20
0
 30
0.0
 70
     1
 40
0.072
 41
0.072
  0
VERTEX
  8
0
 10
18.6622
 20
1.51719
 30
0.0
 40
0.001
 41
0.001
  0
VERTEX
  8
0
 10
18.6622
 20
1.49203
 30
0.0
 40
0.001
 41
0.001
  0
VERTEX
  8
0
 10
18.6521
 20
1.41644
 30
0.0
 40
0.001
 41
0.001
  0
VERTEX
  8
0
 10
18.6229
 20
1.32259
 30
0.0
 40
0.001
 41
0.001
  0
VERTEX
  8
0
 10
18.5769
 20
1.23768
 30
0.0
 40
0.001
 41
0.001
  0
VERTEX
  8
0
 10
18.5158
 20
1.16368
 30
0.0
 40
0.001
 41
0.001
  0
VERTEX
  8
0
 10
18.4418
 20
1.10259
 30
0.0
 40
0.001
 41
0.001
  0
VERTEX
  8
0
 10
18.3569
 20
1.05653
 30
0.0
 40
0.001
 41
0.001
  0
VERTEX
  8
0
 10
18.2631
 20
1.0274
 30
0.0
 40
0.001
 41
0.001
  0
VERTEX
  8
0
 10
18.1875
 20
1.0172
 30
0.0
 40
0.001
 41
0.001
  0
VERTEX
  8
0
 10
18.1622
 20
1.0172
 30
0.0
 40
0.001
 41
0.001
  0
VERTEX
  8
0
 10
18.1371
 20
1.0172
 30
0.0
 40
0.001
 41
0.001
  0
VERTEX
  8
0
 10
18.0615
 20
1.0274
 30
0.0
 40
0.001
 41
0.001
  0
VERTEX
  8
0
 10
17.9676
 20
1.05653
 30
0.0
 40
0.001
 41
0.001
  0
VERTEX
  8
0
 10
17.8826
 20
1.10259
 30
0.0
 40
0.001
 41
0.001
  0
VERTEX
  8
0
 10
17.8087
 20
1.16368
 30
0.0
 40
0.001
 41
0.001
  0
VERTEX
  8
0
 10
17.7476
 20
1.23768
 30
0.0
 40
0.001
 41
0.001
  0
VERTEX
  8
0
 10
17.7015
 20
1.32259
 30
0.0
 40
0.001
 41
0.001
  0
VERTEX
  8
0
 10
17.6724
 20
1.41644
 30
0.0
 40
0.001
 41
0.001
  0
VERTEX
  8
0
 10
17.6622
 20
1.49203
 30
0.0
 40
0.001
 41
0.001
  0
VERTEX
  8
0
 10
17.6622
 20
1.51719
 30
0.0
 40
0.001
 41
0.001
  0
VERTEX
  8
0
 10
17.6622
 20
1.54243
 30
0.0
 40
0.001
 41
0.001
  0
VERTEX
  8
0
 10
17.6724
 20
1.618
 30
0.0
 40
0.001
 41
0.001
  0
VERTEX
  8
0
 10
17.7015
 20
1.71186
 30
0.0
 40
0.001
 41
0.001
  0
VERTEX
  8
0
 10
17.7476
 20
1.79676
 30
0.0
 40
0.001
 41
0.001
  0
VERTEX
  8
0
 10
17.8087
 20
1.87076
 30
0.0
 40
0.001
 41
0.001
  0
VERTEX
  8
0
 10
17.8826
 20
1.93186
 30
0.0
 40
0.001
 41
0.001
  0
VERTEX
  8
0
 10
17.9676
 20
1.97792
 30
0.0
 40
0.001
 41
0.001
  0
VERTEX
  8
0
 10
18.0615
 20
2.00706
 30
0.0
 40
0.001
 41
0.001
  0
VERTEX
  8
0
 10
18.1371
 20
2.01719
 30
0.0
 40
0.001
 41
0.001
  0
VERTEX
  8
0
 10
18.1622
 20
2.01719
 30
0.0
 40
0.001
 41
0.001
  0
VERTEX
  8
0
 10
18.1875
 20
2.01719
 30
0.0
 40
0.001
 41
0.001
  0
VERTEX
  8
0
 10
18.2631
 20
2.00706
 30
0.0
 40
0.001
 41
0.001
  0
VERTEX
  8
0
 10
18.3569
 20
1.97792
 30
0.0
 40
0.001
 41
0.001
  0
VERTEX
  8
0
 10
18.4418
 20
1.93186
 30
0.0
 40
0.001
 41
0.001
  0
VERTEX
  8
0
 10
18.5158
 20
1.87076
 30
0.0
 40
0.001
 41
0.001
  0
VERTEX
  8
0
 10
18.5769
 20
1.79676
 30
0.0
 40
0.001
 41
0.001
  0
VERTEX
  8
0
 10
18.6229
 20
1.71186
 30
0.0
 40
0.001
 41
0.001
  0
VERTEX
  8
0
 10
18.6521
 20
1.618
 30
0.0
 40
0.001
 41
0.001
  0
VERTEX
  8
0
 10
18.6622
 20
1.54243
 30
0.0
 40
0.001
 41
0.001
  0
VERTEX
  8
0
 10
18.6622
 20
1.51719
 30
0.0
 40
0.001
 41
0.001
  0
SEQEND
 8
0
  0
POLYLINE
  8
0
 62
     1
 66
     1
 10
0
 20
0
 30
0.0
 70
     1
 40
0.072
 41
0.072
  0
VERTEX
  8
0
 10
18.9322
 20
1.51719
 30
0.0
 40
0.001
 41
0.001
  0
VERTEX
  8
0
 10
18.9322
 20
1.51286
 30
0.0
 40
0.001
 41
0.001
  0
VERTEX
  8
0
 10
18.9286
 20
1.49972
 30
0.0
 40
0.001
 41
0.001
  0
VERTEX
  8
0
 10
18.919
 20
1.4854
 30
0.0
 40
0.001
 41
0.001
  0
VERTEX
  8
0
 10
18.9047
 20
1.47581
 30
0.0
 40
0.001
 41
0.001
  0
VERTEX
  8
0
 10
18.8917
 20
1.47222
 30
0.0
 40
0.001
 41
0.001
  0
VERTEX
  8
0
 10
18.8872
 20
1.47222
 30
0.0
 40
0.001
 41
0.001
  0
VERTEX
  8
0
 10
18.8829
 20
1.47222
 30
0.0
 40
0.001
 41
0.001
  0
VERTEX
  8
0
 10
18.8697
 20
1.47581
 30
0.0
 40
0.001
 41
0.001
  0
VERTEX
  8
0
 10
18.8554
 20
1.4854
 30
0.0
 40
0.001
 41
0.001
  0
VERTEX
  8
0
 10
18.8457
 20
1.49972
 30
0.0
 40
0.001
 41
0.001
  0
VERTEX
  8
0
 10
18.8422
 20
1.51286
 30
0.0
 40
0.001
 41
0.001
  0
VERTEX
  8
0
 10
18.8422
 20
1.51719
 30
0.0
 40
0.001
 41
0.001
  0
VERTEX
  8
0
 10
18.8422
 20
1.5216
 30
0.0
 40
0.001
 41
0.001
  0
VERTEX
  8
0
 10
18.8457
 20
1.53472
 30
0.0
 40
0.001
 41
0.001
  0
VERTEX
  8
0
 10
18.8554
 20
1.54904
 30
0.0
 40
0.001
 41
0.001
  0
VERTEX
  8
0
 10
18.8697
 20
1.55871
 30
0.0
 40
0.001
 41
0.001
  0
VERTEX
  8
0
 10
18.8829
 20
1.56222
 30
0.0
 40
0.001
 41
0.001
  0
VERTEX
  8
0
 10
18.8872
 20
1.56222
 30
0.0
 40
0.001
 41
0.001
  0
VERTEX
  8
0
 10
18.8917
 20
1.56222
 30
0.0
 40
0.001
 41
0.001
  0
VERTEX
  8
0
 10
18.9047
 20
1.55871
 30
0.0
 40
0.001
 41
0.001
  0
VERTEX
  8
0
 10
18.919
 20
1.54904
 30
0.0
 40
0.001
 41
0.001
  0
VERTEX
  8
0
 10
18.9286
 20
1.53472
 30
0.0
 40
0.001
 41
0.001
  0
VERTEX
  8
0
 10
18.9322
 20
1.5216
 30
0.0
 40
0.001
 41
0.001
  0
VERTEX
  8
0
 10
18.9322
 20
1.51719
 30
0.0
 40
0.001
 41
0.001
  0
SEQEND
 8
0
  0
POLYLINE
  8
0
 62
     1
 66
     1
 10
0
 20
0
 30
0.0
 70
     1
 40
0.072
 41
0.072
  0
VERTEX
  8
0
 10
17.4822
 20
1.51719
 30
0.0
 40
0.001
 41
0.001
  0
VERTEX
  8
0
 10
17.4822
 20
1.51286
 30
0.0
 40
0.001
 41
0.001
  0
VERTEX
  8
0
 10
17.4786
 20
1.49972
 30
0.0
 40
0.001
 41
0.001
  0
VERTEX
  8
0
 10
17.469
 20
1.4854
 30
0.0
 40
0.001
 41
0.001
  0
VERTEX
  8
0
 10
17.4547
 20
1.47581
 30
0.0
 40
0.001
 41
0.001
  0
VERTEX
  8
0
 10
17.4415
 20
1.47222
 30
0.0
 40
0.001
 41
0.001
  0
VERTEX
  8
0
 10
17.4372
 20
1.47222
 30
0.0
 40
0.001
 41
0.001
  0
VERTEX
  8
0
 10
17.4328
 20
1.47222
 30
0.0
 40
0.001
 41
0.001
  0
VERTEX
  8
0
 10
17.4197
 20
1.47581
 30
0.0
 40
0.001
 41
0.001
  0
VERTEX
  8
0
 10
17.4054
 20
1.4854
 30
0.0
 40
0.001
 41
0.001
  0
VERTEX
  8
0
 10
17.3958
 20
1.49972
 30
0.0
 40
0.001
 41
0.001
  0
VERTEX
  8
0
 10
17.3922
 20
1.51286
 30
0.0
 40
0.001
 41
0.001
  0
VERTEX
  8
0
 10
17.3922
 20
1.51719
 30
0.0
 40
0.001
 41
0.001
  0
VERTEX
  8
0
 10
17.3922
 20
1.5216
 30
0.0
 40
0.001
 41
0.001
  0
VERTEX
  8
0
 10
17.3958
 20
1.53472
 30
0.0
 40
0.001
 41
0.001
  0
VERTEX
  8
0
 10
17.4054
 20
1.54904
 30
0.0
 40
0.001
 41
0.001
  0
VERTEX
  8
0
 10
17.4197
 20
1.55871
 30
0.0
 40
0.001
 41
0.001
  0
VERTEX
  8
0
 10
17.4328
 20
1.56222
 30
0.0
 40
0.001
 41
0.001
  0
VERTEX
  8
0
 10
17.4372
 20
1.56222
 30
0.0
 40
0.001
 41
0.001
  0
VERTEX
  8
0
 10
17.4415
 20
1.56222
 30
0.0
 40
0.001
 41
0.001
  0
VERTEX
  8
0
 10
17.4547
 20
1.55871
 30
0.0
 40
0.001
 41
0.001
  0
VERTEX
  8
0
 10
17.469
 20
1.54904
 30
0.0
 40
0.001
 41
0.001
  0
VERTEX
  8
0
 10
17.4786
 20
1.53472
 30
0.0
 40
0.001
 41
0.001
  0
VERTEX
  8
0
 10
17.4822
 20
1.5216
 30
0.0
 40
0.001
 41
0.001
  0
VERTEX
  8
0
 10
17.4822
 20
1.51719
 30
0.0
 40
0.001
 41
0.001
  0
SEQEND
 8
0
  0
POLYLINE
  8
0
 62
     1
 66
     1
 10
0
 20
0
 30
0.0
 70
     1
 40
0.072
 41
0.072
  0
VERTEX
  8
0
 10
11.6363
 20
1.51719
 30
0.0
 40
0.001
 41
0.001
  0
VERTEX
  8
0
 10
11.6363
 20
1.49203
 30
0.0
 40
0.001
 41
0.001
  0
VERTEX
  8
0
 10
11.6261
 20
1.41644
 30
0.0
 40
0.001
 41
0.001
  0
VERTEX
  8
0
 10
11.597
 20
1.32259
 30
0.0
 40
0.001
 41
0.001
  0
VERTEX
  8
0
 10
11.5509
 20
1.23768
 30
0.0
 40
0.001
 41
0.001
  0
VERTEX
  8
0
 10
11.4899
 20
1.16368
 30
0.0
 40
0.001
 41
0.001
  0
VERTEX
  8
0
 10
11.4158
 20
1.10259
 30
0.0
 40
0.001
 41
0.001
  0
VERTEX
  8
0
 10
11.3309
 20
1.05653
 30
0.0
 40
0.001
 41
0.001
  0
VERTEX
  8
0
 10
11.2371
 20
1.0274
 30
0.0
 40
0.001
 41
0.001
  0
VERTEX
  8
0
 10
11.1615
 20
1.0172
 30
0.0
 40
0.001
 41
0.001
  0
VERTEX
  8
0
 10
11.1363
 20
1.0172
 30
0.0
 40
0.001
 41
0.001
  0
VERTEX
  8
0
 10
11.1111
 20
1.0172
 30
0.0
 40
0.001
 41
0.001
  0
VERTEX
  8
0
 10
11.0355
 20
1.0274
 30
0.0
 40
0.001
 41
0.001
  0
VERTEX
  8
0
 10
10.9417
 20
1.05653
 30
0.0
 40
0.001
 41
0.001
  0
VERTEX
  8
0
 10
10.8568
 20
1.10259
 30
0.0
 40
0.001
 41
0.001
  0
VERTEX
  8
0
 10
10.7828
 20
1.16368
 30
0.0
 40
0.001
 41
0.001
  0
VERTEX
  8
0
 10
10.7217
 20
1.23768
 30
0.0
 40
0.001
 41
0.001
  0
VERTEX
  8
0
 10
10.6756
 20
1.32259
 30
0.0
 40
0.001
 41
0.001
  0
VERTEX
  8
0
 10
10.6465
 20
1.41644
 30
0.0
 40
0.001
 41
0.001
  0
VERTEX
  8
0
 10
10.6363
 20
1.49203
 30
0.0
 40
0.001
 41
0.001
  0
VERTEX
  8
0
 10
10.6363
 20
1.51719
 30
0.0
 40
0.001
 41
0.001
  0
VERTEX
  8
0
 10
10.6363
 20
1.54243
 30
0.0
 40
0.001
 41
0.001
  0
VERTEX
  8
0
 10
10.6465
 20
1.618
 30
0.0
 40
0.001
 41
0.001
  0
VERTEX
  8
0
 10
10.6756
 20
1.71186
 30
0.0
 40
0.001
 41
0.001
  0
VERTEX
  8
0
 10
10.7217
 20
1.79676
 30
0.0
 40
0.001
 41
0.001
  0
VERTEX
  8
0
 10
10.7828
 20
1.87076
 30
0.0
 40
0.001
 41
0.001
  0
VERTEX
  8
0
 10
10.8568
 20
1.93186
 30
0.0
 40
0.001
 41
0.001
  0
VERTEX
  8
0
 10
10.9417
 20
1.97792
 30
0.0
 40
0.001
 41
0.001
  0
VERTEX
  8
0
 10
11.0355
 20
2.00706
 30
0.0
 40
0.001
 41
0.001
  0
VERTEX
  8
0
 10
11.1111
 20
2.01719
 30
0.0
 40
0.001
 41
0.001
  0
VERTEX
  8
0
 10
11.1363
 20
2.01719
 30
0.0
 40
0.001
 41
0.001
  0
VERTEX
  8
0
 10
11.1615
 20
2.01719
 30
0.0
 40
0.001
 41
0.001
  0
VERTEX
  8
0
 10
11.2371
 20
2.00706
 30
0.0
 40
0.001
 41
0.001
  0
VERTEX
  8
0
 10
11.3309
 20
1.97792
 30
0.0
 40
0.001
 41
0.001
  0
VERTEX
  8
0
 10
11.4158
 20
1.93186
 30
0.0
 40
0.001
 41
0.001
  0
VERTEX
  8
0
 10
11.4899
 20
1.87076
 30
0.0
 40
0.001
 41
0.001
  0
VERTEX
  8
0
 10
11.5509
 20
1.79676
 30
0.0
 40
0.001
 41
0.001
  0
VERTEX
  8
0
 10
11.597
 20
1.71186
 30
0.0
 40
0.001
 41
0.001
  0
VERTEX
  8
0
 10
11.6261
 20
1.618
 30
0.0
 40
0.001
 41
0.001
  0
VERTEX
  8
0
 10
11.6363
 20
1.54243
 30
0.0
 40
0.001
 41
0.001
  0
VERTEX
  8
0
 10
11.6363
 20
1.51719
 30
0.0
 40
0.001
 41
0.001
  0
SEQEND
 8
0
  0
POLYLINE
  8
0
 62
     1
 66
     1
 10
0
 20
0
 30
0.0
 70
     1
 40
0.072
 41
0.072
  0
VERTEX
  8
0
 10
11.9063
 20
1.51719
 30
0.0
 40
0.001
 41
0.001
  0
VERTEX
  8
0
 10
11.9063
 20
1.51286
 30
0.0
 40
0.001
 41
0.001
  0
VERTEX
  8
0
 10
11.9027
 20
1.49972
 30
0.0
 40
0.001
 41
0.001
  0
VERTEX
  8
0
 10
11.8931
 20
1.4854
 30
0.0
 40
0.001
 41
0.001
  0
VERTEX
  8
0
 10
11.8788
 20
1.47581
 30
0.0
 40
0.001
 41
0.001
  0
VERTEX
  8
0
 10
11.8656
 20
1.47222
 30
0.0
 40
0.001
 41
0.001
  0
VERTEX
  8
0
 10
11.8613
 20
1.47222
 30
0.0
 40
0.001
 41
0.001
  0
VERTEX
  8
0
 10
11.8569
 20
1.47222
 30
0.0
 40
0.001
 41
0.001
  0
VERTEX
  8
0
 10
11.8438
 20
1.47581
 30
0.0
 40
0.001
 41
0.001
  0
VERTEX
  8
0
 10
11.8294
 20
1.4854
 30
0.0
 40
0.001
 41
0.001
  0
VERTEX
  8
0
 10
11.8198
 20
1.49972
 30
0.0
 40
0.001
 41
0.001
  0
VERTEX
  8
0
 10
11.8163
 20
1.51286
 30
0.0
 40
0.001
 41
0.001
  0
VERTEX
  8
0
 10
11.8163
 20
1.51719
 30
0.0
 40
0.001
 41
0.001
  0
VERTEX
  8
0
 10
11.8163
 20
1.5216
 30
0.0
 40
0.001
 41
0.001
  0
VERTEX
  8
0
 10
11.8198
 20
1.53472
 30
0.0
 40
0.001
 41
0.001
  0
VERTEX
  8
0
 10
11.8294
 20
1.54904
 30
0.0
 40
0.001
 41
0.001
  0
VERTEX
  8
0
 10
11.8438
 20
1.55871
 30
0.0
 40
0.001
 41
0.001
  0
VERTEX
  8
0
 10
11.8569
 20
1.56222
 30
0.0
 40
0.001
 41
0.001
  0
VERTEX
  8
0
 10
11.8613
 20
1.56222
 30
0.0
 40
0.001
 41
0.001
  0
VERTEX
  8
0
 10
11.8656
 20
1.56222
 30
0.0
 40
0.001
 41
0.001
  0
VERTEX
  8
0
 10
11.8788
 20
1.55871
 30
0.0
 40
0.001
 41
0.001
  0
VERTEX
  8
0
 10
11.8931
 20
1.54904
 30
0.0
 40
0.001
 41
0.001
  0
VERTEX
  8
0
 10
11.9027
 20
1.53472
 30
0.0
 40
0.001
 41
0.001
  0
VERTEX
  8
0
 10
11.9063
 20
1.5216
 30
0.0
 40
0.001
 41
0.001
  0
VERTEX
  8
0
 10
11.9063
 20
1.51719
 30
0.0
 40
0.001
 41
0.001
  0
SEQEND
 8
0
  0
POLYLINE
  8
0
 62
     1
 66
     1
 10
0
 20
0
 30
0.0
 70
     1
 40
0.072
 41
0.072
  0
VERTEX
  8
0
 10
10.4563
 20
1.51719
 30
0.0
 40
0.001
 41
0.001
  0
VERTEX
  8
0
 10
10.4563
 20
1.51286
 30
0.0
 40
0.001
 41
0.001
  0
VERTEX
  8
0
 10
10.4527
 20
1.49972
 30
0.0
 40
0.001
 41
0.001
  0
VERTEX
  8
0
 10
10.4431
 20
1.4854
 30
0.0
 40
0.001
 41
0.001
  0
VERTEX
  8
0
 10
10.4288
 20
1.47581
 30
0.0
 40
0.001
 41
0.001
  0
VERTEX
  8
0
 10
10.4156
 20
1.47222
 30
0.0
 40
0.001
 41
0.001
  0
VERTEX
  8
0
 10
10.4113
 20
1.47222
 30
0.0
 40
0.001
 41
0.001
  0
VERTEX
  8
0
 10
10.4069
 20
1.47222
 30
0.0
 40
0.001
 41
0.001
  0
VERTEX
  8
0
 10
10.3938
 20
1.47581
 30
0.0
 40
0.001
 41
0.001
  0
VERTEX
  8
0
 10
10.3794
 20
1.4854
 30
0.0
 40
0.001
 41
0.001
  0
VERTEX
  8
0
 10
10.3698
 20
1.49972
 30
0.0
 40
0.001
 41
0.001
  0
VERTEX
  8
0
 10
10.3663
 20
1.51286
 30
0.0
 40
0.001
 41
0.001
  0
VERTEX
  8
0
 10
10.3663
 20
1.51719
 30
0.0
 40
0.001
 41
0.001
  0
VERTEX
  8
0
 10
10.3663
 20
1.5216
 30
0.0
 40
0.001
 41
0.001
  0
VERTEX
  8
0
 10
10.3698
 20
1.53472
 30
0.0
 40
0.001
 41
0.001
  0
VERTEX
  8
0
 10
10.3794
 20
1.54904
 30
0.0
 40
0.001
 41
0.001
  0
VERTEX
  8
0
 10
10.3938
 20
1.55871
 30
0.0
 40
0.001
 41
0.001
  0
VERTEX
  8
0
 10
10.4069
 20
1.56222
 30
0.0
 40
0.001
 41
0.001
  0
VERTEX
  8
0
 10
10.4113
 20
1.56222
 30
0.0
 40
0.001
 41
0.001
  0
VERTEX
  8
0
 10
10.4156
 20
1.56222
 30
0.0
 40
0.001
 41
0.001
  0
VERTEX
  8
0
 10
10.4288
 20
1.55871
 30
0.0
 40
0.001
 41
0.001
  0
VERTEX
  8
0
 10
10.4431
 20
1.54904
 30
0.0
 40
0.001
 41
0.001
  0
VERTEX
  8
0
 10
10.4527
 20
1.53472
 30
0.0
 40
0.001
 41
0.001
  0
VERTEX
  8
0
 10
10.4563
 20
1.5216
 30
0.0
 40
0.001
 41
0.001
  0
VERTEX
  8
0
 10
10.4563
 20
1.51719
 30
0.0
 40
0.001
 41
0.001
  0
SEQEND
 8
0
  0
POLYLINE
  8
0
 62
     1
 66
     1
 10
0
 20
0
 30
0.0
 70
     1
 40
0.072
 41
0.072
  0
VERTEX
  8
0
 10
14.7529
 20
2.23719
 30
0.0
 40
0.001
 41
0.001
  0
VERTEX
  8
0
 10
14.7529
 20
2.22797
 30
0.0
 40
0.001
 41
0.001
  0
VERTEX
  8
0
 10
14.7456
 20
2.20025
 30
0.0
 40
0.001
 41
0.001
  0
VERTEX
  8
0
 10
14.7251
 20
2.17003
 30
0.0
 40
0.001
 41
0.001
  0
VERTEX
  8
0
 10
14.695
 20
2.14968
 30
0.0
 40
0.001
 41
0.001
  0
VERTEX
  8
0
 10
14.6672
 20
2.14219
 30
0.0
 40
0.001
 41
0.001
  0
VERTEX
  8
0
 10
14.6581
 20
2.14219
 30
0.0
 40
0.001
 41
0.001
  0
VERTEX
  8
0
 10
14.6487
 20
2.14219
 30
0.0
 40
0.001
 41
0.001
  0
VERTEX
  8
0
 10
14.621
 20
2.14968
 30
0.0
 40
0.001
 41
0.001
  0
VERTEX
  8
0
 10
14.5908
 20
2.17003
 30
0.0
 40
0.001
 41
0.001
  0
VERTEX
  8
0
 10
14.5704
 20
2.20025
 30
0.0
 40
0.001
 41
0.001
  0
VERTEX
  8
0
 10
14.5631
 20
2.22797
 30
0.0
 40
0.001
 41
0.001
  0
VERTEX
  8
0
 10
14.5631
 20
2.23719
 30
0.0
 40
0.001
 41
0.001
  0
VERTEX
  8
0
 10
14.5631
 20
2.24647
 30
0.0
 40
0.001
 41
0.001
  0
VERTEX
  8
0
 10
14.5704
 20
2.27419
 30
0.0
 40
0.001
 41
0.001
  0
VERTEX
  8
0
 10
14.5908
 20
2.30442
 30
0.0
 40
0.001
 41
0.001
  0
VERTEX
  8
0
 10
14.621
 20
2.32476
 30
0.0
 40
0.001
 41
0.001
  0
VERTEX
  8
0
 10
14.6487
 20
2.33219
 30
0.0
 40
0.001
 41
0.001
  0
VERTEX
  8
0
 10
14.6581
 20
2.33219
 30
0.0
 40
0.001
 41
0.001
  0
VERTEX
  8
0
 10
14.6672
 20
2.33219
 30
0.0
 40
0.001
 41
0.001
  0
VERTEX
  8
0
 10
14.695
 20
2.32476
 30
0.0
 40
0.001
 41
0.001
  0
VERTEX
  8
0
 10
14.7251
 20
2.30442
 30
0.0
 40
0.001
 41
0.001
  0
VERTEX
  8
0
 10
14.7456
 20
2.27419
 30
0.0
 40
0.001
 41
0.001
  0
VERTEX
  8
0
 10
14.7529
 20
2.24647
 30
0.0
 40
0.001
 41
0.001
  0
VERTEX
  8
0
 10
14.7529
 20
2.23719
 30
0.0
 40
0.001
 41
0.001
  0
SEQEND
 8
0
  0
POLYLINE
  8
0
 62
     1
 66
     1
 10
0
 20
0
 30
0.0
 40
0.072
 41
0.072
  0
VERTEX
  8
0
 10
9.891
 20
13.0199
 30
0.0
 40
0.001
 41
0.001
  0
VERTEX
  8
0
 10
9.891
 20
11.5139
 30
0.0
 40
0.001
 41
0.001
  0
VERTEX
  8
0
 10
10.009
 20
11.5139
 30
0.0
 40
0.001
 41
0.001
  0
VERTEX
  8
0
 10
10.009
 20
10.0199
 30
0.0
 40
0.001
 41
0.001
  0
VERTEX
  8
0
 10
9.891
 20
10.0199
 30
0.0
 40
0.001
 41
0.001
  0
VERTEX
  8
0
 10
9.891
 20
9.01389
 30
0.0
 40
0.001
 41
0.001
  0
VERTEX
  8
0
 10
10.009
 20
9.01389
 30
0.0
 40
0.001
 41
0.001
  0
VERTEX
  8
0
 10
10.009
 20
8.01992
 30
0.0
 40
0.001
 41
0.001
  0
VERTEX
  8
0
 10
9.891
 20
8.01992
 30
0.0
 40
0.001
 41
0.001
  0
VERTEX
  8
0
 10
9.891
 20
7.01389
 30
0.0
 40
0.001
 41
0.001
  0
VERTEX
  8
0
 10
10.009
 20
7.01389
 30
0.0
 40
0.001
 41
0.001
  0
VERTEX
  8
0
 10
10.009
 20
6.01992
 30
0.0
 40
0.001
 41
0.001
  0
VERTEX
  8
0
 10
9.891
 20
6.01992
 30
0.0
 40
0.001
 41
0.001
  0
VERTEX
  8
0
 10
9.891
 20
5.01389
 30
0.0
 40
0.001
 41
0.001
  0
VERTEX
  8
0
 10
10.009
 20
5.01389
 30
0.0
 40
0.001
 41
0.001
  0
VERTEX
  8
0
 10
10.009
 20
4.01992
 30
0.0
 40
0.001
 41
0.001
  0
VERTEX
  8
0
 10
9.891
 20
4.01992
 30
0.0
 40
0.001
 41
0.001
  0
VERTEX
  8
0
 10
9.891
 20
3.01389
 30
0.0
 40
0.001
 41
0.001
  0
VERTEX
  8
0
 10
10.009
 20
3.01389
 30
0.0
 40
0.001
 41
0.001
  0
VERTEX
  8
0
 10
10.009
 20
1.51992
 30
0.0
 40
0.001
 41
0.001
  0
VERTEX
  8
0
 10
9.891
 20
1.51992
 30
0.0
 40
0.001
 41
0.001
  0
VERTEX
  8
0
 10
9.891
 20
0.13189
 30
0.0
 40
0.001
 41
0.001
  0
SEQEND
 8
0
  0
POLYLINE
  8
0
 62
     1
 66
     1
 10
0
 20
0
 30
0.0
 40
0.072
 41
0.072
  0
VERTEX
  8
0
 10
19.4108
 20
0.0138889
 30
0.0
 40
0.001
 41
0.001
  0
VERTEX
  8
0
 10
19.4108
 20
1.51992
 30
0.0
 40
0.001
 41
0.001
  0
VERTEX
  8
0
 10
19.2929
 20
1.51992
 30
0.0
 40
0.001
 41
0.001
  0
VERTEX
  8
0
 10
19.2929
 20
3.01389
 30
0.0
 40
0.001
 41
0.001
  0
VERTEX
  8
0
 10
19.4108
 20
3.01389
 30
0.0
 40
0.001
 41
0.001
  0
VERTEX
  8
0
 10
19.4108
 20
4.01992
 30
0.0
 40
0.001
 41
0.001
  0
VERTEX
  8
0
 10
19.2929
 20
4.01992
 30
0.0
 40
0.001
 41
0.001
  0
VERTEX
  8
0
 10
19.2929
 20
5.01389
 30
0.0
 40
0.001
 41
0.001
  0
VERTEX
  8
0
 10
19.4108
 20
5.01389
 30
0.0
 40
0.001
 41
0.001
  0
VERTEX
  8
0
 10
19.4108
 20
6.01992
 30
0.0
 40
0.001
 41
0.001
  0
VERTEX
  8
0
 10
19.2929
 20
6.01992
 30
0.0
 40
0.001
 41
0.001
  0
VERTEX
  8
0
 10
19.2929
 20
7.01389
 30
0.0
 40
0.001
 41
0.001
  0
VERTEX
  8
0
 10
19.4108
 20
7.01389
 30
0.0
 40
0.001
 41
0.001
  0
VERTEX
  8
0
 10
19.4108
 20
8.01992
 30
0.0
 40
0.001
 41
0.001
  0
VERTEX
  8
0
 10
19.2929
 20
8.01992
 30
0.0
 40
0.001
 41
0.001
  0
VERTEX
  8
0
 10
19.2929
 20
9.01389
 30
0.0
 40
0.001
 41
0.001
  0
VERTEX
  8
0
 10
19.4108
 20
9.01389
 30
0.0
 40
0.001
 41
0.001
  0
VERTEX
  8
0
 10
19.4108
 20
10.0199
 30
0.0
 40
0.001
 41
0.001
  0
VERTEX
  8
0
 10
19.2929
 20
10.0199
 30
0.0
 40
0.001
 41
0.001
  0
VERTEX
  8
0
 10
19.2929
 20
11.5139
 30
0.0
 40
0.001
 41
0.001
  0
VERTEX
  8
0
 10
19.4108
 20
11.5139
 30
0.0
 40
0.001
 41
0.001
  0
VERTEX
  8
0
 10
19.4108
 20
13.0199
 30
0.0
 40
0.001
 41
0.001
  0
SEQEND
 8
0
  0
POLYLINE
  8
0
 62
     1
 66
     1
 10
0
 20
0
 30
0.0
 70
     1
 40
0.072
 41
0.072
  0
VERTEX
  8
0
 10
11.2139
 20
2.23719
 30
0.0
 40
0.001
 41
0.001
  0
VERTEX
  8
0
 10
11.2139
 20
2.22797
 30
0.0
 40
0.001
 41
0.001
  0
VERTEX
  8
0
 10
11.2064
 20
2.20025
 30
0.0
 40
0.001
 41
0.001
  0
VERTEX
  8
0
 10
11.186
 20
2.17003
 30
0.0
 40
0.001
 41
0.001
  0
VERTEX
  8
0
 10
11.1559
 20
2.14968
 30
0.0
 40
0.001
 41
0.001
  0
VERTEX
  8
0
 10
11.1282
 20
2.14219
 30
0.0
 40
0.001
 41
0.001
  0
VERTEX
  8
0
 10
11.1189
 20
2.14219
 30
0.0
 40
0.001
 41
0.001
  0
VERTEX
  8
0
 10
11.1097
 20
2.14219
 30
0.0
 40
0.001
 41
0.001
  0
VERTEX
  8
0
 10
11.0819
 20
2.14968
 30
0.0
 40
0.001
 41
0.001
  0
VERTEX
  8
0
 10
11.0517
 20
2.17003
 30
0.0
 40
0.001
 41
0.001
  0
VERTEX
  8
0
 10
11.0314
 20
2.20025
 30
0.0
 40
0.001
 41
0.001
  0
VERTEX
  8
0
 10
11.0239
 20
2.22797
 30
0.0
 40
0.001
 41
0.001
  0
VERTEX
  8
0
 10
11.0239
 20
2.23719
 30
0.0
 40
0.001
 41
0.001
  0
VERTEX
  8
0
 10
11.0239
 20
2.24647
 30
0.0
 40
0.001
 41
0.001
  0
VERTEX
  8
0
 10
11.0314
 20
2.27419
 30
0.0
 40
0.001
 41
0.001
  0
VERTEX
  8
0
 10
11.0517
 20
2.30442
 30
0.0
 40
0.001
 41
0.001
  0
VERTEX
  8
0
 10
11.0819
 20
2.32476
 30
0.0
 40
0.001
 41
0.001
  0
VERTEX
  8
0
 10
11.1097
 20
2.33219
 30
0.0
 40
0.001
 41
0.001
  0
VERTEX
  8
0
 10
11.1189
 20
2.33219
 30
0.0
 40
0.001
 41
0.001
  0
VERTEX
  8
0
 10
11.1282
 20
2.33219
 30
0.0
 40
0.001
 41
0.001
  0
VERTEX
  8
0
 10
11.1559
 20
2.32476
 30
0.0
 40
0.001
 41
0.001
  0
VERTEX
  8
0
 10
11.186
 20
2.30442
 30
0.0
 40
0.001
 41
0.001
  0
VERTEX
  8
0
 10
11.2064
 20
2.27419
 30
0.0
 40
0.001
 41
0.001
  0
VERTEX
  8
0
 10
11.2139
 20
2.24647
 30
0.0
 40
0.001
 41
0.001
  0
VERTEX
  8
0
 10
11.2139
 20
2.23719
 30
0.0
 40
0.001
 41
0.001
  0
SEQEND
 8
0
  0
POLYLINE
  8
0
 62
     1
 66
     1
 10
0
 20
0
 30
0.0
 70
     1
 40
0.072
 41
0.072
  0
VERTEX
  8
0
 10
18.2589
 20
2.23719
 30
0.0
 40
0.001
 41
0.001
  0
VERTEX
  8
0
 10
18.2589
 20
2.22797
 30
0.0
 40
0.001
 41
0.001
  0
VERTEX
  8
0
 10
18.2514
 20
2.20025
 30
0.0
 40
0.001
 41
0.001
  0
VERTEX
  8
0
 10
18.2311
 20
2.17003
 30
0.0
 40
0.001
 41
0.001
  0
VERTEX
  8
0
 10
18.2008
 20
2.14968
 30
0.0
 40
0.001
 41
0.001
  0
VERTEX
  8
0
 10
18.1731
 20
2.14219
 30
0.0
 40
0.001
 41
0.001
  0
VERTEX
  8
0
 10
18.1639
 20
2.14219
 30
0.0
 40
0.001
 41
0.001
  0
VERTEX
  8
0
 10
18.1546
 20
2.14219
 30
0.0
 40
0.001
 41
0.001
  0
VERTEX
  8
0
 10
18.1269
 20
2.14968
 30
0.0
 40
0.001
 41
0.001
  0
VERTEX
  8
0
 10
18.0967
 20
2.17003
 30
0.0
 40
0.001
 41
0.001
  0
VERTEX
  8
0
 10
18.0764
 20
2.20025
 30
0.0
 40
0.001
 41
0.001
  0
VERTEX
  8
0
 10
18.0689
 20
2.22797
 30
0.0
 40
0.001
 41
0.001
  0
VERTEX
  8
0
 10
18.0689
 20
2.23719
 30
0.0
 40
0.001
 41
0.001
  0
VERTEX
  8
0
 10
18.0689
 20
2.24647
 30
0.0
 40
0.001
 41
0.001
  0
VERTEX
  8
0
 10
18.0764
 20
2.27419
 30
0.0
 40
0.001
 41
0.001
  0
VERTEX
  8
0
 10
18.0967
 20
2.30442
 30
0.0
 40
0.001
 41
0.001
  0
VERTEX
  8
0
 10
18.1269
 20
2.32476
 30
0.0
 40
0.001
 41
0.001
  0
VERTEX
  8
0
 10
18.1546
 20
2.33219
 30
0.0
 40
0.001
 41
0.001
  0
VERTEX
  8
0
 10
18.1639
 20
2.33219
 30
0.0
 40
0.001
 41
0.001
  0
VERTEX
  8
0
 10
18.1731
 20
2.33219
 30
0.0
 40
0.001
 41
0.001
  0
VERTEX
  8
0
 10
18.2008
 20
2.32476
 30
0.0
 40
0.001
 41
0.001
  0
VERTEX
  8
0
 10
18.2311
 20
2.30442
 30
0.0
 40
0.001
 41
0.001
  0
VERTEX
  8
0
 10
18.2514
 20
2.27419
 30
0.0
 40
0.001
 41
0.001
  0
VERTEX
  8
0
 10
18.2589
 20
2.24647
 30
0.0
 40
0.001
 41
0.001
  0
VERTEX
  8
0
 10
18.2589
 20
2.23719
 30
0.0
 40
0.001
 41
0.001
  0
SEQEND
 8
0
  0
POLYLINE
  8
0
 62
     1
 66
     1
 10
0
 20
0
 30
0.0
 40
0.072
 41
0.072
  0
VERTEX
  8
0
 10
9.891
 20
0.13189
 30
0.0
 40
0.001
 41
0.001
  0
VERTEX
  8
0
 10
19.4108
 20
0.13189
 30
0.0
 40
0.001
 41
0.001
  0
SEQEND
 8
0
  0
POLYLINE
  8
0
 62
     1
 66
     1
 10
0
 20
0
 30
0.0
 40
0.072
 41
0.072
  0
VERTEX
  8
0
 10
19.4108
 20
13.0199
 30
0.0
 40
0.001
 41
0.001
  0
VERTEX
  8
0
 10
9.891
 20
13.0199
 30
0.0
 40
0.001
 41
0.001
  0
SEQEND
 8
0
  0
POLYLINE
  8
0
 62
     1
 66
     1
 10
0
 20
0
 30
0.0
 70
     1
 40
0.072
 41
0.072
  0
VERTEX
  8
0
 10
19.9846
 20
5.37771
 30
0.0
 40
0.001
 41
0.001
  0
VERTEX
  8
0
 10
19.9889
 20
5.37771
 30
0.0
 40
0.001
 41
0.001
  0
VERTEX
  8
0
 10
20.0021
 20
5.37418
 30
0.0
 40
0.001
 41
0.001
  0
VERTEX
  8
0
 10
20.0164
 20
5.36453
 30
0.0
 40
0.001
 41
0.001
  0
VERTEX
  8
0
 10
20.0261
 20
5.35021
 30
0.0
 40
0.001
 41
0.001
  0
VERTEX
  8
0
 10
20.0296
 20
5.33708
 30
0.0
 40
0.001
 41
0.001
  0
VERTEX
  8
0
 10
20.0296
 20
5.33268
 30
0.0
 40
0.001
 41
0.001
  0
VERTEX
  8
0
 10
20.0296
 20
5.32835
 30
0.0
 40
0.001
 41
0.001
  0
VERTEX
  8
0
 10
20.0261
 20
5.31521
 30
0.0
 40
0.001
 41
0.001
  0
VERTEX
  8
0
 10
20.0164
 20
5.30089
 30
0.0
 40
0.001
 41
0.001
  0
VERTEX
  8
0
 10
20.0021
 20
5.29129
 30
0.0
 40
0.001
 41
0.001
  0
VERTEX
  8
0
 10
19.9889
 20
5.28771
 30
0.0
 40
0.001
 41
0.001
  0
VERTEX
  8
0
 10
19.9846
 20
5.28771
 30
0.0
 40
0.001
 41
0.001
  0
VERTEX
  8
0
 10
19.9801
 20
5.28771
 30
0.0
 40
0.001
 41
0.001
  0
VERTEX
  8
0
 10
19.9671
 20
5.29129
 30
0.0
 40
0.001
 41
0.001
  0
VERTEX
  8
0
 10
19.9528
 20
5.30089
 30
0.0
 40
0.001
 41
0.001
  0
VERTEX
  8
0
 10
19.9432
 20
5.31521
 30
0.0
 40
0.001
 41
0.001
  0
VERTEX
  8
0
 10
19.9396
 20
5.32835
 30
0.0
 40
0.001
 41
0.001
  0
VERTEX
  8
0
 10
19.9396
 20
5.33268
 30
0.0
 40
0.001
 41
0.001
  0
VERTEX
  8
0
 10
19.9396
 20
5.33708
 30
0.0
 40
0.001
 41
0.001
  0
VERTEX
  8
0
 10
19.9432
 20
5.35021
 30
0.0
 40
0.001
 41
0.001
  0
VERTEX
  8
0
 10
19.9528
 20
5.36453
 30
0.0
 40
0.001
 41
0.001
  0
VERTEX
  8
0
 10
19.9671
 20
5.37418
 30
0.0
 40
0.001
 41
0.001
  0
VERTEX
  8
0
 10
19.9801
 20
5.37771
 30
0.0
 40
0.001
 41
0.001
  0
VERTEX
  8
0
 10
19.9846
 20
5.37771
 30
0.0
 40
0.001
 41
0.001
  0
SEQEND
 8
0
  0
POLYLINE
  8
0
 62
     1
 66
     1
 10
0
 20
0
 30
0.0
 70
     1
 40
0.072
 41
0.072
  0
VERTEX
  8
0
 10
21.7846
 20
5.32764
 30
0.0
 40
0.001
 41
0.001
  0
VERTEX
  8
0
 10
21.7889
 20
5.32764
 30
0.0
 40
0.001
 41
0.001
  0
VERTEX
  8
0
 10
21.8021
 20
5.32417
 30
0.0
 40
0.001
 41
0.001
  0
VERTEX
  8
0
 10
21.8164
 20
5.31451
 30
0.0
 40
0.001
 41
0.001
  0
VERTEX
  8
0
 10
21.826
 20
5.30024
 30
0.0
 40
0.001
 41
0.001
  0
VERTEX
  8
0
 10
21.8296
 20
5.28711
 30
0.0
 40
0.001
 41
0.001
  0
VERTEX
  8
0
 10
21.8296
 20
5.28271
 30
0.0
 40
0.001
 41
0.001
  0
VERTEX
  8
0
 10
21.8296
 20
5.27838
 30
0.0
 40
0.001
 41
0.001
  0
VERTEX
  8
0
 10
21.826
 20
5.26519
 30
0.0
 40
0.001
 41
0.001
  0
VERTEX
  8
0
 10
21.8164
 20
5.25087
 30
0.0
 40
0.001
 41
0.001
  0
VERTEX
  8
0
 10
21.8021
 20
5.24126
 30
0.0
 40
0.001
 41
0.001
  0
VERTEX
  8
0
 10
21.7889
 20
5.23768
 30
0.0
 40
0.001
 41
0.001
  0
VERTEX
  8
0
 10
21.7846
 20
5.23768
 30
0.0
 40
0.001
 41
0.001
  0
VERTEX
  8
0
 10
21.7803
 20
5.23768
 30
0.0
 40
0.001
 41
0.001
  0
VERTEX
  8
0
 10
21.7671
 20
5.24126
 30
0.0
 40
0.001
 41
0.001
  0
VERTEX
  8
0
 10
21.7528
 20
5.25087
 30
0.0
 40
0.001
 41
0.001
  0
VERTEX
  8
0
 10
21.7432
 20
5.26519
 30
0.0
 40
0.001
 41
0.001
  0
VERTEX
  8
0
 10
21.7396
 20
5.27838
 30
0.0
 40
0.001
 41
0.001
  0
VERTEX
  8
0
 10
21.7396
 20
5.28271
 30
0.0
 40
0.001
 41
0.001
  0
VERTEX
  8
0
 10
21.7396
 20
5.28711
 30
0.0
 40
0.001
 41
0.001
  0
VERTEX
  8
0
 10
21.7432
 20
5.30024
 30
0.0
 40
0.001
 41
0.001
  0
VERTEX
  8
0
 10
21.7528
 20
5.31451
 30
0.0
 40
0.001
 41
0.001
  0
VERTEX
  8
0
 10
21.7671
 20
5.32417
 30
0.0
 40
0.001
 41
0.001
  0
VERTEX
  8
0
 10
21.7803
 20
5.32764
 30
0.0
 40
0.001
 41
0.001
  0
VERTEX
  8
0
 10
21.7846
 20
5.32764
 30
0.0
 40
0.001
 41
0.001
  0
SEQEND
 8
0
  0
POLYLINE
  8
0
 62
     1
 66
     1
 10
0
 20
0
 30
0.0
 70
     1
 40
0.072
 41
0.072
  0
VERTEX
  8
0
 10
21.6846
 20
7.37771
 30
0.0
 40
0.001
 41
0.001
  0
VERTEX
  8
0
 10
21.689
 20
7.37771
 30
0.0
 40
0.001
 41
0.001
  0
VERTEX
  8
0
 10
21.7021
 20
7.37418
 30
0.0
 40
0.001
 41
0.001
  0
VERTEX
  8
0
 10
21.7164
 20
7.36453
 30
0.0
 40
0.001
 41
0.001
  0
VERTEX
  8
0
 10
21.726
 20
7.35021
 30
0.0
 40
0.001
 41
0.001
  0
VERTEX
  8
0
 10
21.7296
 20
7.33708
 30
0.0
 40
0.001
 41
0.001
  0
VERTEX
  8
0
 10
21.7296
 20
7.33268
 30
0.0
 40
0.001
 41
0.001
  0
VERTEX
  8
0
 10
21.7296
 20
7.32835
 30
0.0
 40
0.001
 41
0.001
  0
VERTEX
  8
0
 10
21.726
 20
7.31521
 30
0.0
 40
0.001
 41
0.001
  0
VERTEX
  8
0
 10
21.7164
 20
7.30089
 30
0.0
 40
0.001
 41
0.001
  0
VERTEX
  8
0
 10
21.7021
 20
7.29129
 30
0.0
 40
0.001
 41
0.001
  0
VERTEX
  8
0
 10
21.689
 20
7.28771
 30
0.0
 40
0.001
 41
0.001
  0
VERTEX
  8
0
 10
21.6846
 20
7.28771
 30
0.0
 40
0.001
 41
0.001
  0
VERTEX
  8
0
 10
21.6803
 20
7.28771
 30
0.0
 40
0.001
 41
0.001
  0
VERTEX
  8
0
 10
21.6671
 20
7.29129
 30
0.0
 40
0.001
 41
0.001
  0
VERTEX
  8
0
 10
21.6528
 20
7.30089
 30
0.0
 40
0.001
 41
0.001
  0
VERTEX
  8
0
 10
21.6431
 20
7.31521
 30
0.0
 40
0.001
 41
0.001
  0
VERTEX
  8
0
 10
21.6396
 20
7.32835
 30
0.0
 40
0.001
 41
0.001
  0
VERTEX
  8
0
 10
21.6396
 20
7.33268
 30
0.0
 40
0.001
 41
0.001
  0
VERTEX
  8
0
 10
21.6396
 20
7.33708
 30
0.0
 40
0.001
 41
0.001
  0
VERTEX
  8
0
 10
21.6431
 20
7.35021
 30
0.0
 40
0.001
 41
0.001
  0
VERTEX
  8
0
 10
21.6528
 20
7.36453
 30
0.0
 40
0.001
 41
0.001
  0
VERTEX
  8
0
 10
21.6671
 20
7.37418
 30
0.0
 40
0.001
 41
0.001
  0
VERTEX
  8
0
 10
21.6803
 20
7.37771
 30
0.0
 40
0.001
 41
0.001
  0
VERTEX
  8
0
 10
21.6846
 20
7.37771
 30
0.0
 40
0.001
 41
0.001
  0
SEQEND
 8
0
  0
POLYLINE
  8
0
 62
     1
 66
     1
 10
0
 20
0
 30
0.0
 70
     1
 40
0.072
 41
0.072
  0
VERTEX
  8
0
 10
20.5846
 20
7.37771
 30
0.0
 40
0.001
 41
0.001
  0
VERTEX
  8
0
 10
20.5889
 20
7.37771
 30
0.0
 40
0.001
 41
0.001
  0
VERTEX
  8
0
 10
20.6021
 20
7.37418
 30
0.0
 40
0.001
 41
0.001
  0
VERTEX
  8
0
 10
20.6164
 20
7.36453
 30
0.0
 40
0.001
 41
0.001
  0
VERTEX
  8
0
 10
20.626
 20
7.35021
 30
0.0
 40
0.001
 41
0.001
  0
VERTEX
  8
0
 10
20.6296
 20
7.33708
 30
0.0
 40
0.001
 41
0.001
  0
VERTEX
  8
0
 10
20.6296
 20
7.33268
 30
0.0
 40
0.001
 41
0.001
  0
VERTEX
  8
0
 10
20.6296
 20
7.32835
 30
0.0
 40
0.001
 41
0.001
  0
VERTEX
  8
0
 10
20.626
 20
7.31521
 30
0.0
 40
0.001
 41
0.001
  0
VERTEX
  8
0
 10
20.6164
 20
7.30089
 30
0.0
 40
0.001
 41
0.001
  0
VERTEX
  8
0
 10
20.6021
 20
7.29129
 30
0.0
 40
0.001
 41
0.001
  0
VERTEX
  8
0
 10
20.5889
 20
7.28771
 30
0.0
 40
0.001
 41
0.001
  0
VERTEX
  8
0
 10
20.5846
 20
7.28771
 30
0.0
 40
0.001
 41
0.001
  0
VERTEX
  8
0
 10
20.5801
 20
7.28771
 30
0.0
 40
0.001
 41
0.001
  0
VERTEX
  8
0
 10
20.5671
 20
7.29129
 30
0.0
 40
0.001
 41
0.001
  0
VERTEX
  8
0
 10
20.5528
 20
7.30089
 30
0.0
 40
0.001
 41
0.001
  0
VERTEX
  8
0
 10
20.5432
 20
7.31521
 30
0.0
 40
0.001
 41
0.001
  0
VERTEX
  8
0
 10
20.5396
 20
7.32835
 30
0.0
 40
0.001
 41
0.001
  0
VERTEX
  8
0
 10
20.5396
 20
7.33268
 30
0.0
 40
0.001
 41
0.001
  0
VERTEX
  8
0
 10
20.5396
 20
7.33708
 30
0.0
 40
0.001
 41
0.001
  0
VERTEX
  8
0
 10
20.5432
 20
7.35021
 30
0.0
 40
0.001
 41
0.001
  0
VERTEX
  8
0
 10
20.5528
 20
7.36453
 30
0.0
 40
0.001
 41
0.001
  0
VERTEX
  8
0
 10
20.5671
 20
7.37418
 30
0.0
 40
0.001
 41
0.001
  0
VERTEX
  8
0
 10
20.5801
 20
7.37771
 30
0.0
 40
0.001
 41
0.001
  0
VERTEX
  8
0
 10
20.5846
 20
7.37771
 30
0.0
 40
0.001
 41
0.001
  0
SEQEND
 8
0
  0
POLYLINE
  8
0
 62
     1
 66
     1
 10
0
 20
0
 30
0.0
 70
     1
 40
0.072
 41
0.072
  0
VERTEX
  8
0
 10
20.8847
 20
8.13699
 30
0.0
 40
0.001
 41
0.001
  0
VERTEX
  8
0
 10
20.889
 20
8.13699
 30
0.0
 40
0.001
 41
0.001
  0
VERTEX
  8
0
 10
20.9021
 20
8.13346
 30
0.0
 40
0.001
 41
0.001
  0
VERTEX
  8
0
 10
20.9164
 20
8.12381
 30
0.0
 40
0.001
 41
0.001
  0
VERTEX
  8
0
 10
20.9261
 20
8.10949
 30
0.0
 40
0.001
 41
0.001
  0
VERTEX
  8
0
 10
20.9296
 20
8.09636
 30
0.0
 40
0.001
 41
0.001
  0
VERTEX
  8
0
 10
20.9296
 20
8.09196
 30
0.0
 40
0.001
 41
0.001
  0
VERTEX
  8
0
 10
20.9296
 20
8.08763
 30
0.0
 40
0.001
 41
0.001
  0
VERTEX
  8
0
 10
20.9261
 20
8.07449
 30
0.0
 40
0.001
 41
0.001
  0
VERTEX
  8
0
 10
20.9164
 20
8.06017
 30
0.0
 40
0.001
 41
0.001
  0
VERTEX
  8
0
 10
20.9021
 20
8.05057
 30
0.0
 40
0.001
 41
0.001
  0
VERTEX
  8
0
 10
20.889
 20
8.04699
 30
0.0
 40
0.001
 41
0.001
  0
VERTEX
  8
0
 10
20.8847
 20
8.04699
 30
0.0
 40
0.001
 41
0.001
  0
VERTEX
  8
0
 10
20.8803
 20
8.04699
 30
0.0
 40
0.001
 41
0.001
  0
VERTEX
  8
0
 10
20.8671
 20
8.05057
 30
0.0
 40
0.001
 41
0.001
  0
VERTEX
  8
0
 10
20.8528
 20
8.06017
 30
0.0
 40
0.001
 41
0.001
  0
VERTEX
  8
0
 10
20.8432
 20
8.07449
 30
0.0
 40
0.001
 41
0.001
  0
VERTEX
  8
0
 10
20.8396
 20
8.08763
 30
0.0
 40
0.001
 41
0.001
  0
VERTEX
  8
0
 10
20.8396
 20
8.09196
 30
0.0
 40
0.001
 41
0.001
  0
VERTEX
  8
0
 10
20.8396
 20
8.09636
 30
0.0
 40
0.001
 41
0.001
  0
VERTEX
  8
0
 10
20.8432
 20
8.10949
 30
0.0
 40
0.001
 41
0.001
  0
VERTEX
  8
0
 10
20.8528
 20
8.12381
 30
0.0
 40
0.001
 41
0.001
  0
VERTEX
  8
0
 10
20.8671
 20
8.13346
 30
0.0
 40
0.001
 41
0.001
  0
VERTEX
  8
0
 10
20.8803
 20
8.13699
 30
0.0
 40
0.001
 41
0.001
  0
VERTEX
  8
0
 10
20.8847
 20
8.13699
 30
0.0
 40
0.001
 41
0.001
  0
SEQEND
 8
0
  0
POLYLINE
  8
0
 62
     1
 66
     1
 10
0
 20
0
 30
0.0
 70
     1
 40
0.072
 41
0.072
  0
VERTEX
  8
0
 10
20.8847
 20
11.0369
 30
0.0
 40
0.001
 41
0.001
  0
VERTEX
  8
0
 10
20.889
 20
11.0369
 30
0.0
 40
0.001
 41
0.001
  0
VERTEX
  8
0
 10
20.9021
 20
11.0335
 30
0.0
 40
0.001
 41
0.001
  0
VERTEX
  8
0
 10
20.9164
 20
11.0238
 30
0.0
 40
0.001
 41
0.001
  0
VERTEX
  8
0
 10
20.9261
 20
11.0096
 30
0.0
 40
0.001
 41
0.001
  0
VERTEX
  8
0
 10
20.9296
 20
10.9964
 30
0.0
 40
0.001
 41
0.001
  0
VERTEX
  8
0
 10
20.9296
 20
10.992
 30
0.0
 40
0.001
 41
0.001
  0
VERTEX
  8
0
 10
20.9296
 20
10.9877
 30
0.0
 40
0.001
 41
0.001
  0
VERTEX
  8
0
 10
20.9261
 20
10.9745
 30
0.0
 40
0.001
 41
0.001
  0
VERTEX
  8
0
 10
20.9164
 20
10.9602
 30
0.0
 40
0.001
 41
0.001
  0
VERTEX
  8
0
 10
20.9021
 20
10.9506
 30
0.0
 40
0.001
 41
0.001
  0
VERTEX
  8
0
 10
20.889
 20
10.947
 30
0.0
 40
0.001
 41
0.001
  0
VERTEX
  8
0
 10
20.8847
 20
10.947
 30
0.0
 40
0.001
 41
0.001
  0
VERTEX
  8
0
 10
20.8803
 20
10.947
 30
0.0
 40
0.001
 41
0.001
  0
VERTEX
  8
0
 10
20.8671
 20
10.9506
 30
0.0
 40
0.001
 41
0.001
  0
VERTEX
  8
0
 10
20.8528
 20
10.9602
 30
0.0
 40
0.001
 41
0.001
  0
VERTEX
  8
0
 10
20.8432
 20
10.9745
 30
0.0
 40
0.001
 41
0.001
  0
VERTEX
  8
0
 10
20.8396
 20
10.9877
 30
0.0
 40
0.001
 41
0.001
  0
VERTEX
  8
0
 10
20.8396
 20
10.992
 30
0.0
 40
0.001
 41
0.001
  0
VERTEX
  8
0
 10
20.8396
 20
10.9964
 30
0.0
 40
0.001
 41
0.001
  0
VERTEX
  8
0
 10
20.8432
 20
11.0096
 30
0.0
 40
0.001
 41
0.001
  0
VERTEX
  8
0
 10
20.8528
 20
11.0238
 30
0.0
 40
0.001
 41
0.001
  0
VERTEX
  8
0
 10
20.8671
 20
11.0335
 30
0.0
 40
0.001
 41
0.001
  0
VERTEX
  8
0
 10
20.8803
 20
11.0369
 30
0.0
 40
0.001
 41
0.001
  0
VERTEX
  8
0
 10
20.8847
 20
11.0369
 30
0.0
 40
0.001
 41
0.001
  0
SEQEND
 8
0
  0
POLYLINE
  8
0
 62
     1
 66
     1
 10
0
 20
0
 30
0.0
 40
0.072
 41
0.072
  0
VERTEX
  8
0
 10
22.4008
 20
3.45904
 30
0.0
 40
0.001
 41
0.001
  0
VERTEX
  8
0
 10
24.8249
 20
3.45904
 30
0.0
 40
0.001
 41
0.001
  0
VERTEX
  8
0
 10
24.8249
 20
3.34104
 30
0.0
 40
0.001
 41
0.001
  0
VERTEX
  8
0
 10
25.831
 20
3.34104
 30
0.0
 40
0.001
 41
0.001
  0
VERTEX
  8
0
 10
25.831
 20
3.45904
 30
0.0
 40
0.001
 41
0.001
  0
VERTEX
  8
0
 10
26.8249
 20
3.45904
 30
0.0
 40
0.001
 41
0.001
  0
VERTEX
  8
0
 10
26.8249
 20
3.34104
 30
0.0
 40
0.001
 41
0.001
  0
VERTEX
  8
0
 10
27.831
 20
3.34104
 30
0.0
 40
0.001
 41
0.001
  0
VERTEX
  8
0
 10
27.831
 20
3.45904
 30
0.0
 40
0.001
 41
0.001
  0
VERTEX
  8
0
 10
28.7129
 20
3.45904
 30
0.0
 40
0.001
 41
0.001
  0
SEQEND
 8
0
  0
POLYLINE
  8
0
 62
     1
 66
     1
 10
0
 20
0
 30
0.0
 40
0.072
 41
0.072
  0
VERTEX
  8
0
 10
22.4008
 20
11.3683
 30
0.0
 40
0.001
 41
0.001
  0
VERTEX
  8
0
 10
19.6479
 20
11.3683
 30
0.0
 40
0.001
 41
0.001
  0
VERTEX
  8
0
 10
19.6479
 20
4.83365
 30
0.0
 40
0.001
 41
0.001
  0
VERTEX
  8
0
 10
22.4008
 20
4.83365
 30
0.0
 40
0.001
 41
0.001
  0
SEQEND
 8
0
  0
POLYLINE
  8
0
 62
     1
 66
     1
 10
0
 20
0
 30
0.0
 40
0.072
 41
0.072
  0
VERTEX
  8
0
 10
28.7129
 20
12.7429
 30
0.0
 40
0.001
 41
0.001
  0
VERTEX
  8
0
 10
27.831
 20
12.7429
 30
0.0
 40
0.001
 41
0.001
  0
VERTEX
  8
0
 10
27.831
 20
12.8609
 30
0.0
 40
0.001
 41
0.001
  0
VERTEX
  8
0
 10
26.8249
 20
12.8609
 30
0.0
 40
0.001
 41
0.001
  0
VERTEX
  8
0
 10
26.8249
 20
12.7429
 30
0.0
 40
0.001
 41
0.001
  0
VERTEX
  8
0
 10
25.831
 20
12.7429
 30
0.0
 40
0.001
 41
0.001
  0
VERTEX
  8
0
 10
25.831
 20
12.8609
 30
0.0
 40
0.001
 41
0.001
  0
VERTEX
  8
0
 10
24.8249
 20
12.8609
 30
0.0
 40
0.001
 41
0.001
  0
VERTEX
  8
0
 10
24.8249
 20
12.7429
 30
0.0
 40
0.001
 41
0.001
  0
VERTEX
  8
0
 10
22.4008
 20
12.7429
 30
0.0
 40
0.001
 41
0.001
  0
SEQEND
 8
0
  0
POLYLINE
  8
0
 62
     1
 66
     1
 10
0
 20
0
 30
0.0
 40
0.072
 41
0.072
  0
VERTEX
  8
0
 10
22.4008
 20
12.7429
 30
0.0
 40
0.001
 41
0.001
  0
VERTEX
  8
0
 10
22.4008
 20
11.3683
 30
0.0
 40
0.001
 41
0.001
  0
SEQEND
 8
0
  0
POLYLINE
  8
0
 62
     1
 66
     1
 10
0
 20
0
 30
0.0
 40
0.072
 41
0.072
  0
VERTEX
  8
0
 10
28.7129
 20
12.7429
 30
0.0
 40
0.001
 41
0.001
  0
VERTEX
  8
0
 10
28.7129
 20
3.45904
 30
0.0
 40
0.001
 41
0.001
  0
SEQEND
 8
0
  0
POLYLINE
  8
0
 62
     1
 66
     1
 10
0
 20
0
 30
0.0
 40
0.072
 41
0.072
  0
VERTEX
  8
0
 10
22.4008
 20
3.45904
 30
0.0
 40
0.001
 41
0.001
  0
VERTEX
  8
0
 10
22.4008
 20
4.83365
 30
0.0
 40
0.001
 41
0.001
  0
SEQEND
 8
0
  0
POLYLINE
  8
0
 62
     1
 66
     1
 10
0
 20
0
 30
0.0
 70
     1
 40
0.072
 41
0.072
  0
VERTEX
  8
0
 10
12.8172
 20
13.0199
 30
0.0
 40
0.001
 41
0.001
  0
VERTEX
  8
0
 10
12.9422
 20
13.0199
 30
0.0
 40
0.001
 41
0.001
  0
VERTEX
  8
0
 10
12.9422
 20
11.5512
 30
0.0
 40
0.001
 41
0.001
  0
VERTEX
  8
0
 10
12.8172
 20
11.5512
 30
0.0
 40
0.001
 41
0.001
  0
VERTEX
  8
0
 10
12.8172
 20
13.0199
 30
0.0
 40
0.001
 41
0.001
  0
SEQEND
 8
0
  0
POLYLINE
  8
0
 62
     1
 66
     1
 10
0
 20
0
 30
0.0
 70
     1
 40
0.072
 41
0.072
  0
VERTEX
  8
0
 10
16.3563
 20
13.0199
 30
0.0
 40
0.001
 41
0.001
  0
VERTEX
  8
0
 10
16.4813
 20
13.0199
 30
0.0
 40
0.001
 41
0.001
  0
VERTEX
  8
0
 10
16.4813
 20
11.5512
 30
0.0
 40
0.001
 41
0.001
  0
VERTEX
  8
0
 10
16.3563
 20
11.5512
 30
0.0
 40
0.001
 41
0.001
  0
VERTEX
  8
0
 10
16.3563
 20
13.0199
 30
0.0
 40
0.001
 41
0.001
  0
SEQEND
 8
0
  0
POLYLINE
  8
0
 62
     1
 66
     1
 10
0
 20
0
 30
0.0
 70
     1
 40
0.072
 41
0.072
  0
VERTEX
  8
0
 10
19.9846
 20
10.897
 30
0.0
 40
0.001
 41
0.001
  0
VERTEX
  8
0
 10
19.989
 20
10.897
 30
0.0
 40
0.001
 41
0.001
  0
VERTEX
  8
0
 10
20.0021
 20
10.9006
 30
0.0
 40
0.001
 41
0.001
  0
VERTEX
  8
0
 10
20.0164
 20
10.9102
 30
0.0
 40
0.001
 41
0.001
  0
VERTEX
  8
0
 10
20.0261
 20
10.9245
 30
0.0
 40
0.001
 41
0.001
  0
VERTEX
  8
0
 10
20.0296
 20
10.9376
 30
0.0
 40
0.001
 41
0.001
  0
VERTEX
  8
0
 10
20.0296
 20
10.9419
 30
0.0
 40
0.001
 41
0.001
  0
VERTEX
  8
0
 10
20.0296
 20
10.9463
 30
0.0
 40
0.001
 41
0.001
  0
VERTEX
  8
0
 10
20.0261
 20
10.9595
 30
0.0
 40
0.001
 41
0.001
  0
VERTEX
  8
0
 10
20.0164
 20
10.9738
 30
0.0
 40
0.001
 41
0.001
  0
VERTEX
  8
0
 10
20.0021
 20
10.9835
 30
0.0
 40
0.001
 41
0.001
  0
VERTEX
  8
0
 10
19.989
 20
10.987
 30
0.0
 40
0.001
 41
0.001
  0
VERTEX
  8
0
 10
19.9846
 20
10.987
 30
0.0
 40
0.001
 41
0.001
  0
VERTEX
  8
0
 10
19.9803
 20
10.987
 30
0.0
 40
0.001
 41
0.001
  0
VERTEX
  8
0
 10
19.9671
 20
10.9835
 30
0.0
 40
0.001
 41
0.001
  0
VERTEX
  8
0
 10
19.9528
 20
10.9738
 30
0.0
 40
0.001
 41
0.001
  0
VERTEX
  8
0
 10
19.9432
 20
10.9595
 30
0.0
 40
0.001
 41
0.001
  0
VERTEX
  8
0
 10
19.9396
 20
10.9463
 30
0.0
 40
0.001
 41
0.001
  0
VERTEX
  8
0
 10
19.9396
 20
10.9419
 30
0.0
 40
0.001
 41
0.001
  0
VERTEX
  8
0
 10
19.9396
 20
10.9376
 30
0.0
 40
0.001
 41
0.001
  0
VERTEX
  8
0
 10
19.9432
 20
10.9245
 30
0.0
 40
0.001
 41
0.001
  0
VERTEX
  8
0
 10
19.9528
 20
10.9102
 30
0.0
 40
0.001
 41
0.001
  0
VERTEX
  8
0
 10
19.9671
 20
10.9006
 30
0.0
 40
0.001
 41
0.001
  0
VERTEX
  8
0
 10
19.9803
 20
10.897
 30
0.0
 40
0.001
 41
0.001
  0
VERTEX
  8
0
 10
19.9846
 20
10.897
 30
0.0
 40
0.001
 41
0.001
  0
SEQEND
 8
0
  0
POLYLINE
  8
0
 62
     1
 66
     1
 10
0
 20
0
 30
0.0
 70
     1
 40
0.072
 41
0.072
  0
VERTEX
  8
0
 10
21.7846
 20
10.947
 30
0.0
 40
0.001
 41
0.001
  0
VERTEX
  8
0
 10
21.7889
 20
10.947
 30
0.0
 40
0.001
 41
0.001
  0
VERTEX
  8
0
 10
21.8021
 20
10.9506
 30
0.0
 40
0.001
 41
0.001
  0
VERTEX
  8
0
 10
21.8164
 20
10.9602
 30
0.0
 40
0.001
 41
0.001
  0
VERTEX
  8
0
 10
21.8261
 20
10.9745
 30
0.0
 40
0.001
 41
0.001
  0
VERTEX
  8
0
 10
21.8296
 20
10.9876
 30
0.0
 40
0.001
 41
0.001
  0
VERTEX
  8
0
 10
21.8296
 20
10.992
 30
0.0
 40
0.001
 41
0.001
  0
VERTEX
  8
0
 10
21.8296
 20
10.9964
 30
0.0
 40
0.001
 41
0.001
  0
VERTEX
  8
0
 10
21.8261
 20
11.0095
 30
0.0
 40
0.001
 41
0.001
  0
VERTEX
  8
0
 10
21.8164
 20
11.0238
 30
0.0
 40
0.001
 41
0.001
  0
VERTEX
  8
0
 10
21.8021
 20
11.0335
 30
0.0
 40
0.001
 41
0.001
  0
VERTEX
  8
0
 10
21.7889
 20
11.037
 30
0.0
 40
0.001
 41
0.001
  0
VERTEX
  8
0
 10
21.7846
 20
11.037
 30
0.0
 40
0.001
 41
0.001
  0
VERTEX
  8
0
 10
21.7803
 20
11.037
 30
0.0
 40
0.001
 41
0.001
  0
VERTEX
  8
0
 10
21.7671
 20
11.0335
 30
0.0
 40
0.001
 41
0.001
  0
VERTEX
  8
0
 10
21.7528
 20
11.0238
 30
0.0
 40
0.001
 41
0.001
  0
VERTEX
  8
0
 10
21.7432
 20
11.0095
 30
0.0
 40
0.001
 41
0.001
  0
VERTEX
  8
0
 10
21.7396
 20
10.9964
 30
0.0
 40
0.001
 41
0.001
  0
VERTEX
  8
0
 10
21.7396
 20
10.992
 30
0.0
 40
0.001
 41
0.001
  0
VERTEX
  8
0
 10
21.7396
 20
10.9876
 30
0.0
 40
0.001
 41
0.001
  0
VERTEX
  8
0
 10
21.7432
 20
10.9745
 30
0.0
 40
0.001
 41
0.001
  0
VERTEX
  8
0
 10
21.7528
 20
10.9602
 30
0.0
 40
0.001
 41
0.001
  0
VERTEX
  8
0
 10
21.7671
 20
10.9506
 30
0.0
 40
0.001
 41
0.001
  0
VERTEX
  8
0
 10
21.7803
 20
10.947
 30
0.0
 40
0.001
 41
0.001
  0
VERTEX
  8
0
 10
21.7846
 20
10.947
 30
0.0
 40
0.001
 41
0.001
  0
SEQEND
 8
0
  0
POLYLINE
  8
0
 62
     1
 66
     1
 10
0
 20
0
 30
0.0
 70
     1
 40
0.072
 41
0.072
  0
VERTEX
  8
0
 10
21.6846
 20
8.89697
 30
0.0
 40
0.001
 41
0.001
  0
VERTEX
  8
0
 10
21.689
 20
8.89697
 30
0.0
 40
0.001
 41
0.001
  0
VERTEX
  8
0
 10
21.7021
 20
8.90056
 30
0.0
 40
0.001
 41
0.001
  0
VERTEX
  8
0
 10
21.7164
 20
8.91015
 30
0.0
 40
0.001
 41
0.001
  0
VERTEX
  8
0
 10
21.726
 20
8.92449
 30
0.0
 40
0.001
 41
0.001
  0
VERTEX
  8
0
 10
21.7296
 20
8.93761
 30
0.0
 40
0.001
 41
0.001
  0
VERTEX
  8
0
 10
21.7296
 20
8.94194
 30
0.0
 40
0.001
 41
0.001
  0
VERTEX
  8
0
 10
21.7296
 20
8.94635
 30
0.0
 40
0.001
 41
0.001
  0
VERTEX
  8
0
 10
21.726
 20
8.95947
 30
0.0
 40
0.001
 41
0.001
  0
VERTEX
  8
0
 10
21.7164
 20
8.97379
 30
0.0
 40
0.001
 41
0.001
  0
VERTEX
  8
0
 10
21.7021
 20
8.98346
 30
0.0
 40
0.001
 41
0.001
  0
VERTEX
  8
0
 10
21.689
 20
8.98699
 30
0.0
 40
0.001
 41
0.001
  0
VERTEX
  8
0
 10
21.6846
 20
8.98699
 30
0.0
 40
0.001
 41
0.001
  0
VERTEX
  8
0
 10
21.6803
 20
8.98699
 30
0.0
 40
0.001
 41
0.001
  0
VERTEX
  8
0
 10
21.6671
 20
8.98346
 30
0.0
 40
0.001
 41
0.001
  0
VERTEX
  8
0
 10
21.6528
 20
8.97379
 30
0.0
 40
0.001
 41
0.001
  0
VERTEX
  8
0
 10
21.6432
 20
8.95947
 30
0.0
 40
0.001
 41
0.001
  0
VERTEX
  8
0
 10
21.6396
 20
8.94635
 30
0.0
 40
0.001
 41
0.001
  0
VERTEX
  8
0
 10
21.6396
 20
8.94194
 30
0.0
 40
0.001
 41
0.001
  0
VERTEX
  8
0
 10
21.6396
 20
8.93761
 30
0.0
 40
0.001
 41
0.001
  0
VERTEX
  8
0
 10
21.6432
 20
8.92449
 30
0.0
 40
0.001
 41
0.001
  0
VERTEX
  8
0
 10
21.6528
 20
8.91015
 30
0.0
 40
0.001
 41
0.001
  0
VERTEX
  8
0
 10
21.6671
 20
8.90056
 30
0.0
 40
0.001
 41
0.001
  0
VERTEX
  8
0
 10
21.6803
 20
8.89697
 30
0.0
 40
0.001
 41
0.001
  0
VERTEX
  8
0
 10
21.6846
 20
8.89697
 30
0.0
 40
0.001
 41
0.001
  0
SEQEND
 8
0
  0
POLYLINE
  8
0
 62
     1
 66
     1
 10
0
 20
0
 30
0.0
 70
     1
 40
0.072
 41
0.072
  0
VERTEX
  8
0
 10
20.5846
 20
8.89697
 30
0.0
 40
0.001
 41
0.001
  0
VERTEX
  8
0
 10
20.589
 20
8.89697
 30
0.0
 40
0.001
 41
0.001
  0
VERTEX
  8
0
 10
20.6021
 20
8.90056
 30
0.0
 40
0.001
 41
0.001
  0
VERTEX
  8
0
 10
20.6164
 20
8.91015
 30
0.0
 40
0.001
 41
0.001
  0
VERTEX
  8
0
 10
20.626
 20
8.92449
 30
0.0
 40
0.001
 41
0.001
  0
VERTEX
  8
0
 10
20.6296
 20
8.93761
 30
0.0
 40
0.001
 41
0.001
  0
VERTEX
  8
0
 10
20.6296
 20
8.94194
 30
0.0
 40
0.001
 41
0.001
  0
VERTEX
  8
0
 10
20.6296
 20
8.94635
 30
0.0
 40
0.001
 41
0.001
  0
VERTEX
  8
0
 10
20.626
 20
8.95947
 30
0.0
 40
0.001
 41
0.001
  0
VERTEX
  8
0
 10
20.6164
 20
8.97379
 30
0.0
 40
0.001
 41
0.001
  0
VERTEX
  8
0
 10
20.6021
 20
8.98346
 30
0.0
 40
0.001
 41
0.001
  0
VERTEX
  8
0
 10
20.589
 20
8.98699
 30
0.0
 40
0.001
 41
0.001
  0
VERTEX
  8
0
 10
20.5846
 20
8.98699
 30
0.0
 40
0.001
 41
0.001
  0
VERTEX
  8
0
 10
20.5803
 20
8.98699
 30
0.0
 40
0.001
 41
0.001
  0
VERTEX
  8
0
 10
20.5671
 20
8.98346
 30
0.0
 40
0.001
 41
0.001
  0
VERTEX
  8
0
 10
20.5528
 20
8.97379
 30
0.0
 40
0.001
 41
0.001
  0
VERTEX
  8
0
 10
20.5432
 20
8.95947
 30
0.0
 40
0.001
 41
0.001
  0
VERTEX
  8
0
 10
20.5396
 20
8.94635
 30
0.0
 40
0.001
 41
0.001
  0
VERTEX
  8
0
 10
20.5396
 20
8.94194
 30
0.0
 40
0.001
 41
0.001
  0
VERTEX
  8
0
 10
20.5396
 20
8.93761
 30
0.0
 40
0.001
 41
0.001
  0
VERTEX
  8
0
 10
20.5432
 20
8.92449
 30
0.0
 40
0.001
 41
0.001
  0
VERTEX
  8
0
 10
20.5528
 20
8.91015
 30
0.0
 40
0.001
 41
0.001
  0
VERTEX
  8
0
 10
20.5671
 20
8.90056
 30
0.0
 40
0.001
 41
0.001
  0
VERTEX
  8
0
 10
20.5803
 20
8.89697
 30
0.0
 40
0.001
 41
0.001
  0
VERTEX
  8
0
 10
20.5846
 20
8.89697
 30
0.0
 40
0.001
 41
0.001
  0
SEQEND
 8
0
  0
POLYLINE
  8
0
 62
     1
 66
     1
 10
0
 20
0
 30
0.0
 70
     1
 40
0.072
 41
0.072
  0
VERTEX
  8
0
 10
20.8847
 20
5.07769
 30
0.0
 40
0.001
 41
0.001
  0
VERTEX
  8
0
 10
20.889
 20
5.07769
 30
0.0
 40
0.001
 41
0.001
  0
VERTEX
  8
0
 10
20.9021
 20
5.07417
 30
0.0
 40
0.001
 41
0.001
  0
VERTEX
  8
0
 10
20.9164
 20
5.06456
 30
0.0
 40
0.001
 41
0.001
  0
VERTEX
  8
0
 10
20.9261
 20
5.05024
 30
0.0
 40
0.001
 41
0.001
  0
VERTEX
  8
0
 10
20.9296
 20
5.03711
 30
0.0
 40
0.001
 41
0.001
  0
VERTEX
  8
0
 10
20.9296
 20
5.03271
 30
0.0
 40
0.001
 41
0.001
  0
VERTEX
  8
0
 10
20.9296
 20
5.02838
 30
0.0
 40
0.001
 41
0.001
  0
VERTEX
  8
0
 10
20.9261
 20
5.01525
 30
0.0
 40
0.001
 41
0.001
  0
VERTEX
  8
0
 10
20.9164
 20
5.00092
 30
0.0
 40
0.001
 41
0.001
  0
VERTEX
  8
0
 10
20.9021
 20
4.99126
 30
0.0
 40
0.001
 41
0.001
  0
VERTEX
  8
0
 10
20.889
 20
4.98768
 30
0.0
 40
0.001
 41
0.001
  0
VERTEX
  8
0
 10
20.8847
 20
4.98768
 30
0.0
 40
0.001
 41
0.001
  0
VERTEX
  8
0
 10
20.8803
 20
4.98768
 30
0.0
 40
0.001
 41
0.001
  0
VERTEX
  8
0
 10
20.8671
 20
4.99126
 30
0.0
 40
0.001
 41
0.001
  0
VERTEX
  8
0
 10
20.8528
 20
5.00092
 30
0.0
 40
0.001
 41
0.001
  0
VERTEX
  8
0
 10
20.8432
 20
5.01525
 30
0.0
 40
0.001
 41
0.001
  0
VERTEX
  8
0
 10
20.8396
 20
5.02838
 30
0.0
 40
0.001
 41
0.001
  0
VERTEX
  8
0
 10
20.8396
 20
5.03271
 30
0.0
 40
0.001
 41
0.001
  0
VERTEX
  8
0
 10
20.8396
 20
5.03711
 30
0.0
 40
0.001
 41
0.001
  0
VERTEX
  8
0
 10
20.8432
 20
5.05024
 30
0.0
 40
0.001
 41
0.001
  0
VERTEX
  8
0
 10
20.8528
 20
5.06456
 30
0.0
 40
0.001
 41
0.001
  0
VERTEX
  8
0
 10
20.8671
 20
5.07417
 30
0.0
 40
0.001
 41
0.001
  0
VERTEX
  8
0
 10
20.8803
 20
5.07769
 30
0.0
 40
0.001
 41
0.001
  0
VERTEX
  8
0
 10
20.8847
 20
5.07769
 30
0.0
 40
0.001
 41
0.001
  0
SEQEND
 8
0
  0
POLYLINE
  8
0
 62
     1
 66
     1
 10
0
 20
0
 30
0.0
 70
     1
 40
0.072
 41
0.072
  0
VERTEX
  8
0
 10
20.8847
 20
7.97771
 30
0.0
 40
0.001
 41
0.001
  0
VERTEX
  8
0
 10
20.889
 20
7.97771
 30
0.0
 40
0.001
 41
0.001
  0
VERTEX
  8
0
 10
20.9021
 20
7.97418
 30
0.0
 40
0.001
 41
0.001
  0
VERTEX
  8
0
 10
20.9164
 20
7.96457
 30
0.0
 40
0.001
 41
0.001
  0
VERTEX
  8
0
 10
20.9261
 20
7.95025
 30
0.0
 40
0.001
 41
0.001
  0
VERTEX
  8
0
 10
20.9296
 20
7.93713
 30
0.0
 40
0.001
 41
0.001
  0
VERTEX
  8
0
 10
20.9296
 20
7.93272
 30
0.0
 40
0.001
 41
0.001
  0
VERTEX
  8
0
 10
20.9296
 20
7.92839
 30
0.0
 40
0.001
 41
0.001
  0
VERTEX
  8
0
 10
20.9261
 20
7.91521
 30
0.0
 40
0.001
 41
0.001
  0
VERTEX
  8
0
 10
20.9164
 20
7.90087
 30
0.0
 40
0.001
 41
0.001
  0
VERTEX
  8
0
 10
20.9021
 20
7.89128
 30
0.0
 40
0.001
 41
0.001
  0
VERTEX
  8
0
 10
20.889
 20
7.88769
 30
0.0
 40
0.001
 41
0.001
  0
VERTEX
  8
0
 10
20.8847
 20
7.88769
 30
0.0
 40
0.001
 41
0.001
  0
VERTEX
  8
0
 10
20.8803
 20
7.88769
 30
0.0
 40
0.001
 41
0.001
  0
VERTEX
  8
0
 10
20.8671
 20
7.89128
 30
0.0
 40
0.001
 41
0.001
  0
VERTEX
  8
0
 10
20.8528
 20
7.90087
 30
0.0
 40
0.001
 41
0.001
  0
VERTEX
  8
0
 10
20.8432
 20
7.91521
 30
0.0
 40
0.001
 41
0.001
  0
VERTEX
  8
0
 10
20.8396
 20
7.92839
 30
0.0
 40
0.001
 41
0.001
  0
VERTEX
  8
0
 10
20.8396
 20
7.93272
 30
0.0
 40
0.001
 41
0.001
  0
VERTEX
  8
0
 10
20.8396
 20
7.93713
 30
0.0
 40
0.001
 41
0.001
  0
VERTEX
  8
0
 10
20.8432
 20
7.95025
 30
0.0
 40
0.001
 41
0.001
  0
VERTEX
  8
0
 10
20.8528
 20
7.96457
 30
0.0
 40
0.001
 41
0.001
  0
VERTEX
  8
0
 10
20.8671
 20
7.97418
 30
0.0
 40
0.001
 41
0.001
  0
VERTEX
  8
0
 10
20.8803
 20
7.97771
 30
0.0
 40
0.001
 41
0.001
  0
VERTEX
  8
0
 10
20.8847
 20
7.97771
 30
0.0
 40
0.001
 41
0.001
  0
SEQEND
 8
0
  0
ENDSEC
  0
EOF
